<svg width="22" height="22" viewBox="0 0 22 22" fill="none" xmlns="http://www.w3.org/2000/svg">
<path d="M14.0739 15.0859C12.5933 16.382 10.6544 17.1675 8.53205 17.1675C3.88343 17.1675 0.11499 13.3991 0.11499 8.75051C0.11499 4.10192 3.88343 0.333496 8.53205 0.333496C13.1807 0.333496 16.9491 4.10192 16.9491 8.75051C16.9491 10.8729 16.1636 12.8118 14.8674 14.2923L21.2739 20.6987C21.8029 21.2277 21.0093 22.0213 20.4803 21.4923L14.0739 15.0859ZM13.6639 13.9349C13.6804 13.9164 13.6979 13.8988 13.7165 13.8823C15.0211 12.5644 15.8268 10.7515 15.8268 8.75051C15.8268 4.72173 12.5609 1.45577 8.53205 1.45577C4.50324 1.45577 1.23726 4.72173 1.23726 8.75051C1.23726 12.7793 4.50324 16.0453 8.53205 16.0453C10.5331 16.0453 12.3459 15.2396 13.6639 13.9349Z" fill="white"/>
</svg>
