<svg width="28" height="28" viewBox="0 0 28 28" fill="none" xmlns="http://www.w3.org/2000/svg">
<path d="M26.9824 23.7536C26.9353 23.5171 26.7993 23.3135 26.5988 23.1794C26.1716 22.8935 25.8163 22.6046 25.54 22.3176C25.8661 21.9872 26.1145 21.5852 26.2656 21.1389C26.5288 20.3585 26.4737 19.522 26.1097 18.7837C25.5865 17.7222 24.531 17.0624 23.3563 17.0624C22.9853 17.0624 22.6192 17.1295 22.2678 17.2621C22.1707 17.2989 22.0758 17.3401 21.9873 17.3845C21.8003 17.4767 21.6242 17.5878 21.4604 17.7155L17.9374 12.5966L17.8632 11.9317C17.8615 11.9186 17.8593 11.9051 17.8562 11.8922L15.654 2.73776C15.5751 2.30969 15.205 2 14.7696 2C14.7181 2 14.6666 2.00449 14.6156 2.01346C14.1296 2.09762 13.801 2.55963 13.8793 3.04661L14.3919 7.4457L11.8821 3.7998C11.7161 3.53471 11.4316 3.3765 11.1181 3.3765C10.9523 3.3765 10.79 3.42223 10.6486 3.50919C10.4434 3.63514 10.2992 3.83319 10.2432 4.0677C10.1878 4.298 10.2236 4.53644 10.3443 4.73982L14.7125 13.0777C14.7187 13.0894 14.7257 13.1009 14.7332 13.1119L15.1151 13.6609L15.834 19.8367C15.6269 19.8488 15.4211 19.8819 15.2215 19.9358C15.1229 19.9619 15.0244 19.9935 14.9286 20.03C13.442 20.5902 12.631 22.1732 13.0414 23.7115C13.2539 24.5071 13.7626 25.1725 14.4743 25.5851C14.9426 25.8564 15.4734 26 16.0096 26C16.0451 26 16.0807 25.9994 16.1162 25.998C16.1185 25.998 16.1207 25.998 16.1227 25.998C16.1988 25.998 16.5082 25.9647 16.8214 25.8819C17.0043 25.8337 17.151 25.7792 17.2417 25.7419C17.2949 25.7203 17.3525 25.6968 17.4049 25.6659L17.4054 25.6667C18.6913 25.0185 19.3467 23.5903 19.0049 22.1872L18.6166 18.6933L20.6225 21.5771C21.1555 22.6004 22.1961 23.2355 23.3437 23.2355C23.5313 23.2355 23.7191 23.2178 23.9039 23.1833C24.3166 23.7006 24.8857 24.2036 25.5988 24.6804C25.7474 24.7797 25.9199 24.8325 26.0982 24.8325C26.4003 24.8325 26.6806 24.6824 26.8482 24.4308C26.9818 24.2308 27.0294 23.9898 26.9824 23.7536ZM16.9418 25.3534C16.9435 25.3341 16.9469 25.3153 16.9514 25.2973C16.9466 25.3155 16.9435 25.3341 16.9418 25.3534ZM17.0286 25.1579C17.0488 25.1363 17.0712 25.1181 17.0939 25.1051C17.0698 25.12 17.0479 25.1377 17.0286 25.1579ZM26.3141 24.074C26.2659 24.1463 26.1853 24.1895 26.0982 24.1895C26.0473 24.1895 25.998 24.1744 25.9549 24.1461C25.2276 23.6594 24.6688 23.1513 24.2936 22.636C24.2161 22.5292 24.0811 22.4809 23.9537 22.514C23.7538 22.5662 23.5486 22.5923 23.3434 22.5923C22.4305 22.5923 21.6026 22.0834 21.1832 21.2637C21.1768 21.2508 21.1692 21.2385 21.1608 21.2267L18.4209 17.2874C18.3369 17.1665 18.1818 17.1182 18.0443 17.1701C17.9071 17.222 17.8223 17.3606 17.8385 17.5068L18.3696 22.2789C18.3713 22.2935 18.3738 22.3078 18.3772 22.3216C18.6572 23.4375 18.1389 24.5764 17.1171 25.0917C17.1109 25.0948 17.105 25.0979 17.0994 25.1012C17.0726 25.1144 16.9096 25.1929 16.6582 25.2592C16.411 25.3242 16.1781 25.3498 16.1235 25.3537C16.1179 25.3537 16.112 25.3537 16.1061 25.354C15.6507 25.3716 15.1943 25.2589 14.7957 25.0277C14.2321 24.7012 13.8295 24.1747 13.6613 23.5449C13.3365 22.3272 13.9784 21.0744 15.1551 20.6309C15.231 20.602 15.3083 20.5773 15.3861 20.5565C15.5899 20.5018 15.8002 20.4741 16.011 20.4741C16.0644 20.4741 16.1193 20.4758 16.1731 20.4797C16.268 20.4859 16.3612 20.4497 16.427 20.3804C16.4925 20.3111 16.5244 20.2163 16.5135 20.1212L15.7439 13.506C15.7377 13.4533 15.7184 13.4028 15.6884 13.3596L15.2719 12.7607L10.9087 4.43265C10.9053 4.42648 10.902 4.42031 10.898 4.41442C10.8622 4.35523 10.8513 4.28566 10.8675 4.21862C10.8838 4.15129 10.9249 4.09435 10.984 4.05816C11.0249 4.03319 11.0713 4.01973 11.1184 4.01973C11.2096 4.01973 11.2922 4.0663 11.3398 4.14372C11.3429 4.14877 11.346 4.15382 11.3493 4.15859L14.596 8.87466C14.6797 8.9964 14.8351 9.04493 14.9734 8.99303C15.1112 8.94086 15.1963 8.80144 15.1789 8.65501L14.5163 2.96414C14.5157 2.95825 14.5149 2.95236 14.5137 2.94647C14.4894 2.80565 14.5843 2.67128 14.7248 2.64687C14.8662 2.62247 14.9997 2.71897 15.0238 2.8581C15.0249 2.86512 15.0263 2.87213 15.028 2.87886L17.2277 12.0232L17.3086 12.7483C17.3145 12.8011 17.3332 12.8513 17.3632 12.895L21.137 18.378C21.1911 18.4566 21.2773 18.5071 21.3722 18.5158C21.4674 18.5242 21.5609 18.4903 21.6281 18.4229C21.8171 18.2339 22.0332 18.0782 22.2717 17.9604C22.3423 17.9253 22.4173 17.8927 22.4943 17.8633C22.7726 17.7584 23.0623 17.7054 23.356 17.7054C24.2849 17.7054 25.1198 18.2274 25.5341 19.0681C25.8219 19.6524 25.8659 20.3145 25.657 20.9322C25.5086 21.3706 25.2421 21.7552 24.886 22.0436C24.8197 22.0974 24.7771 22.176 24.7684 22.261C24.76 22.3463 24.7858 22.4312 24.8401 22.4977C25.1772 22.9084 25.6489 23.318 26.2421 23.7143C26.2998 23.753 26.339 23.8117 26.3527 23.8796C26.3664 23.9475 26.3527 24.0165 26.3141 24.074Z" fill="#0F0A0F"/>
<path d="M16.0153 21.3125C15.8767 21.3125 15.7378 21.3307 15.6023 21.3672C15.5497 21.3815 15.4979 21.3978 15.4503 21.4163C14.6788 21.7072 14.2574 22.5294 14.4707 23.3286C14.5813 23.7421 14.8456 24.0877 15.2149 24.302C15.4587 24.4431 15.7345 24.5177 16.0136 24.5177C16.153 24.5177 16.2924 24.4995 16.4296 24.4627C16.4839 24.4479 16.5338 24.4319 16.5805 24.4139C17.3524 24.1227 17.7734 23.3005 17.5601 22.5013C17.3737 21.8017 16.7384 21.3125 16.0153 21.3125ZM16.3538 23.8122C16.326 23.8226 16.2952 23.8327 16.2628 23.8414C16.0178 23.907 15.7558 23.8719 15.5363 23.7449C15.3154 23.6167 15.1572 23.4099 15.0909 23.1622C14.9632 22.684 15.2152 22.1919 15.6777 22.0174C15.7065 22.0065 15.737 21.9967 15.7686 21.9883C15.8495 21.9667 15.9324 21.9557 16.0153 21.9557C16.4481 21.9557 16.8283 22.2483 16.9403 22.6674C17.0679 23.1457 16.8163 23.6377 16.3538 23.8122Z" fill="#0F0A0F"/>
<path d="M17.0597 12.9394C16.9766 12.7178 16.7621 12.5688 16.5253 12.5688C16.4612 12.5688 16.3973 12.5798 16.3363 12.6008C16.3315 12.6025 16.3273 12.6045 16.3226 12.6062C16.0365 12.7212 15.892 13.0499 16.0009 13.338C16.0841 13.5599 16.2985 13.7089 16.5351 13.7089C16.5997 13.7089 16.6639 13.6979 16.7252 13.6763C16.7294 13.6749 16.7336 13.6732 16.738 13.6716C17.0236 13.5566 17.1678 13.2281 17.0597 12.9394Z" fill="#0F0A0F"/>
<path d="M24.7841 19.4401C24.5123 18.8883 23.9641 18.5458 23.3538 18.5458C23.1612 18.5458 22.9711 18.5806 22.79 18.649C22.7385 18.6681 22.6886 18.69 22.6424 18.713C21.8521 19.1046 21.5265 20.067 21.9168 20.8586C22.1889 21.4104 22.7368 21.7529 23.3471 21.7529C23.5397 21.7529 23.7295 21.7182 23.9112 21.6497C23.961 21.6312 24.0106 21.6093 24.0582 21.5855C24.4409 21.3961 24.7276 21.0688 24.8648 20.6634C25.0017 20.2581 24.9728 19.8235 24.7841 19.4401ZM24.257 20.4569C24.1747 20.6996 24.0033 20.8957 23.7738 21.0093C23.7446 21.0236 23.7152 21.0365 23.6856 21.0477C23.5761 21.089 23.4622 21.11 23.3471 21.11C22.9826 21.11 22.655 20.9049 22.4921 20.5742C22.2586 20.1004 22.4532 19.5239 22.9277 19.2891C22.9549 19.2757 22.984 19.2631 23.0153 19.2513C23.1248 19.21 23.2387 19.189 23.3538 19.189C23.7183 19.189 24.0459 19.3941 24.2088 19.7248C24.3216 19.9543 24.339 20.2143 24.257 20.4569Z" fill="#0F0A0F"/>
<path d="M8.26023 3.26734C8.43744 3.26734 8.58106 3.12343 8.58106 2.94586C8.58106 2.7683 8.43716 2.62439 8.26023 2.62439H2.18815C1.53305 2.62439 1 3.15822 1 3.81491V24.8033C1 25.4597 1.53305 25.9935 2.18815 25.9935H2.40288C3.05323 25.9935 3.58264 25.4633 3.58264 24.8117V13.7565H8.26051C8.43772 13.7565 8.58134 13.6123 8.58134 13.435C8.58134 13.2577 8.43744 13.1135 8.26051 13.1135H3.58236V12.0086H8.26023C8.43744 12.0086 8.58106 11.8647 8.58106 11.6871C8.58106 11.5095 8.43716 11.3656 8.26023 11.3656H3.58236V10.2604H8.26023C8.43744 10.2604 8.58106 10.1165 8.58106 9.9389C8.58106 9.76105 8.43716 9.61742 8.26023 9.61742H3.58236V8.51246H8.26023C8.43744 8.51246 8.58106 8.36856 8.58106 8.19099C8.58106 8.01342 8.43716 7.86951 8.26023 7.86951H3.58236V6.76455H8.26023C8.43744 6.76455 8.58106 6.62037 8.58106 6.44308C8.58106 6.26579 8.43716 6.12161 8.26023 6.12161H3.58236V5.01665H8.26023C8.43744 5.01665 8.58106 4.87274 8.58106 4.69517C8.58106 4.51761 8.43716 4.3737 8.26023 4.3737H3.58236V3.26846H8.26023V3.26734ZM2.94041 24.812C2.94041 25.109 2.69936 25.3508 2.4026 25.3508H2.18815C1.88692 25.3508 1.64195 25.1054 1.64195 24.8035V3.81519C1.64195 3.51335 1.88692 3.26762 2.18815 3.26762H2.94069V24.812H2.94041Z" fill="#0F0A0F"/>
</svg>
