<svg width="28" height="28" viewBox="0 0 28 28" fill="none" xmlns="http://www.w3.org/2000/svg">
<path d="M22.8853 25.2928L17.4574 19.9007C17.3181 19.7602 17.1443 19.6587 16.9534 19.6065L14.9838 19.0491L10.9284 14.9885C10.8491 14.9095 10.7866 14.8152 10.7446 14.7115C10.7027 14.6077 10.6821 14.4966 10.6841 14.3847C10.6861 14.1646 10.7746 13.9541 10.9305 13.7984C11.0864 13.6428 11.2972 13.5545 11.5177 13.5524C11.7374 13.5535 11.9478 13.6412 12.1031 13.7963L14.7667 16.4634C14.8393 16.5354 14.9376 16.5759 15.04 16.5759C15.1424 16.5759 15.2407 16.5354 15.3134 16.4634C15.3598 16.4156 15.3932 16.3566 15.4102 16.2922C15.4271 16.2278 15.4272 16.1601 15.4103 16.0956C15.4413 14.8191 15.5396 13.5451 15.7049 12.2789L16.7091 13.2815C17.3023 13.8737 18.0932 15.9292 18.1979 16.7421C18.2086 16.8218 18.2438 16.8962 18.2987 16.955L22.327 21.2749C22.3632 21.3138 22.4069 21.3449 22.4556 21.3662C22.5043 21.3875 22.5569 21.3986 22.61 21.3987C22.708 21.3984 22.8022 21.3611 22.8737 21.2942C22.9459 21.2217 22.9864 21.1236 22.9864 21.0213C22.9864 20.9191 22.9459 20.821 22.8737 20.7484L18.9501 16.5292C18.7717 15.5189 17.9614 13.4557 17.2558 12.7512L15.8523 11.346C15.9531 10.7693 16.0694 10.2235 16.2051 9.7164C16.3348 9.25119 16.4026 8.77094 16.4067 8.28804V6.25583C16.4065 6.06595 16.3597 5.87902 16.2703 5.7114C16.181 5.54379 16.0518 5.40061 15.8941 5.2944C15.7365 5.1882 15.5552 5.12221 15.366 5.10221C15.1769 5.08222 14.9858 5.10883 14.8093 5.17972C14.7663 5.02209 14.6904 4.87529 14.5867 4.74893C14.483 4.62256 14.3537 4.51948 14.2073 4.44641C14.0609 4.37334 13.9008 4.33193 13.7373 4.32489C13.5738 4.31785 13.4106 4.34533 13.2585 4.40554C13.1923 4.16001 13.0472 3.94296 12.8455 3.78772C12.6438 3.63248 12.3966 3.54763 12.1419 3.54621C11.9563 3.54643 11.7737 3.59301 11.6107 3.68169C11.4881 3.41135 11.2903 3.18189 11.0408 3.02062C10.7913 2.85934 10.5006 2.77306 10.2033 2.77203C9.98196 2.77424 9.76362 2.82374 9.56299 2.91722C9.36237 3.01069 9.18412 3.14597 9.04022 3.31395C8.73468 2.80632 8.27098 2.41261 7.72005 2.19306C7.16913 1.97352 6.56134 1.94022 5.98966 2.09828C5.41799 2.25633 4.91393 2.59703 4.5546 3.06825C4.19527 3.53946 4.00047 4.11524 4 4.70747C4 5.75261 4.36057 6.56937 4.9654 6.89452C5.02449 6.92404 5.08534 6.9499 5.14762 6.97194C4.93438 7.47903 4.75991 8.32675 4.75991 9.73963C4.75991 11.5086 5.4733 12.6854 6.10526 13.7266C6.64805 14.5976 7.10167 15.3485 7.10167 16.3201V21.8052C7.10102 22.8362 7.48094 23.8313 8.16882 24.6003C8.85669 25.3693 9.80428 25.8582 10.8305 25.9736C11.8566 26.0891 12.8894 25.8229 13.7314 25.226C14.5735 24.6291 15.1656 23.7434 15.3948 22.7381C15.4681 22.3935 15.4968 22.0409 15.4801 21.6891V21.2787C15.4801 20.8413 15.4568 20.4117 15.4491 19.9781L16.7673 20.3652C16.8315 20.3823 16.8902 20.4157 16.9379 20.462L22.3348 25.8425C22.3708 25.8788 22.4137 25.9076 22.4609 25.9272C22.5082 25.9469 22.5589 25.957 22.61 25.957C22.6612 25.957 22.7119 25.9469 22.7591 25.9272C22.8064 25.9076 22.8493 25.8788 22.8853 25.8425C22.9217 25.8065 22.9505 25.7637 22.9702 25.7165C22.9899 25.6694 23 25.6188 23 25.5677C23 25.5166 22.9899 25.466 22.9702 25.4188C22.9505 25.3716 22.9217 25.3288 22.8853 25.2928ZM14.6387 22.5832C14.4517 23.4041 13.9679 24.1272 13.2799 24.614C12.5919 25.1007 11.7482 25.3168 10.9105 25.2209C10.0728 25.125 9.29997 24.7238 8.74022 24.0942C8.18046 23.4646 7.87311 22.6509 7.87709 21.809V16.3201C7.87709 15.1356 7.34593 14.257 6.78375 13.3279C6.17893 12.3254 5.55084 11.288 5.55084 9.73963C5.55084 7.52548 5.93855 7.08033 6.02384 7.03001C6.07374 7.01605 6.12092 6.9938 6.16342 6.9642C6.43917 6.87302 6.70033 6.74265 6.93884 6.57711C6.98637 6.55165 7.02807 6.51657 7.06125 6.4741C7.09443 6.43164 7.11838 6.38273 7.13155 6.3305C7.14472 6.27827 7.14682 6.22387 7.13773 6.17078C7.12864 6.11769 7.10856 6.06708 7.07876 6.02218C7.04896 5.97728 7.0101 5.93909 6.96468 5.91004C6.91925 5.88099 6.86825 5.86173 6.81494 5.85348C6.76163 5.84523 6.70719 5.84818 6.65508 5.86214C6.60298 5.8761 6.55437 5.90076 6.51236 5.93454C6.16729 6.15906 5.68654 6.39518 5.34923 6.20938C5.01192 6.02358 4.77542 5.43907 4.77542 4.70747C4.77542 4.19416 4.97966 3.70187 5.34321 3.33891C5.70675 2.97594 6.19983 2.77203 6.71396 2.77203C7.2281 2.77203 7.72118 2.97594 8.08472 3.33891C8.44827 3.70187 8.65251 4.19416 8.65251 4.70747V5.86874C8.65251 5.9714 8.69336 6.06986 8.76607 6.14245C8.83878 6.21505 8.93739 6.25583 9.04022 6.25583C9.14305 6.25583 9.24166 6.21505 9.31437 6.14245C9.38708 6.06986 9.42793 5.9714 9.42793 5.86874V4.32039C9.42793 4.11506 9.50962 3.91815 9.65504 3.77296C9.80046 3.62777 9.99769 3.54621 10.2033 3.54621C10.409 3.54621 10.6062 3.62777 10.7517 3.77296C10.8971 3.91815 10.9788 4.11506 10.9788 4.32039V5.86874C10.9788 5.9714 11.0196 6.06986 11.0923 6.14245C11.165 6.21505 11.2636 6.25583 11.3665 6.25583C11.4693 6.25583 11.5679 6.21505 11.6406 6.14245C11.7133 6.06986 11.7542 5.9714 11.7542 5.86874V4.70747C11.7542 4.60481 11.795 4.50635 11.8677 4.43376C11.9405 4.36117 12.0391 4.32039 12.1419 4.32039C12.2447 4.32039 12.3433 4.36117 12.416 4.43376C12.4888 4.50635 12.5296 4.60481 12.5296 4.70747V6.25583C12.5296 6.35849 12.5705 6.45695 12.6432 6.52954C12.7159 6.60213 12.8145 6.64292 12.9173 6.64292C13.0201 6.64292 13.1188 6.60213 13.1915 6.52954C13.2642 6.45695 13.305 6.35849 13.305 6.25583V5.48165C13.305 5.37899 13.3459 5.28053 13.4186 5.20794C13.4913 5.13534 13.5899 5.09456 13.6927 5.09456C13.7956 5.09456 13.8942 5.13534 13.9669 5.20794C14.0396 5.28053 14.0804 5.37899 14.0804 5.48165V7.03001C14.0804 7.13267 14.1213 7.23113 14.194 7.30372C14.2667 7.37631 14.3653 7.41709 14.4681 7.41709C14.571 7.41709 14.6696 7.37631 14.7423 7.30372C14.815 7.23113 14.8559 7.13267 14.8559 7.03001V6.25583C14.8559 6.15317 14.8967 6.05471 14.9694 5.98212C15.0421 5.90952 15.1407 5.86874 15.2436 5.86874C15.3464 5.86874 15.445 5.90952 15.5177 5.98212C15.5904 6.05471 15.6313 6.15317 15.6313 6.25583V8.28804C15.6267 8.70417 15.5681 9.11794 15.4568 9.51899C14.9949 11.4074 14.735 13.3395 14.6814 15.2827L12.6653 13.266C12.5176 13.116 12.3414 12.9969 12.147 12.9158C11.9526 12.8347 11.7439 12.7932 11.5332 12.7938C11.3219 12.7917 11.1123 12.8312 10.9163 12.9101C10.7203 12.9889 10.5417 13.1056 10.3909 13.2533C10.24 13.401 10.1198 13.577 10.0371 13.7711C9.95434 13.9652 9.91072 14.1737 9.90869 14.3847C9.90569 14.5997 9.94563 14.8131 10.0262 15.0125C10.1067 15.2119 10.2263 15.3932 10.3778 15.546L14.5263 19.6801C14.5655 19.7162 14.6117 19.7439 14.662 19.7614C14.662 20.2878 14.662 20.791 14.6969 21.3097V21.7161C14.7139 22.0013 14.6944 22.2875 14.6387 22.5677V22.5832Z" fill="#0F0A0F"/>
<path d="M9.86599 12.937C10.082 12.7211 10.3386 12.5498 10.621 12.4329C10.9034 12.316 11.2061 12.2558 11.5118 12.2558C11.8175 12.2558 12.1202 12.316 12.4026 12.4329C12.685 12.5498 12.9416 12.7211 13.1576 12.937C13.2303 13.0091 13.3286 13.0496 13.431 13.0496C13.5334 13.0496 13.6317 13.0091 13.7043 12.937C13.7407 12.901 13.7695 12.8582 13.7892 12.811C13.8089 12.7639 13.819 12.7133 13.819 12.6622C13.819 12.6111 13.8089 12.5605 13.7892 12.5133C13.7695 12.4661 13.7407 12.4233 13.7043 12.3873C13.1223 11.8068 12.3332 11.4808 11.5104 11.4812C10.6877 11.4816 9.89887 11.8082 9.31738 12.3893C8.7359 12.9703 8.40943 13.7582 8.40979 14.5796C8.41015 15.401 8.73732 16.1886 9.31932 16.7692C9.39233 16.8416 9.49114 16.882 9.59403 16.8817C9.69691 16.8813 9.79544 16.8401 9.86793 16.7673C9.94042 16.6944 9.98095 16.5957 9.98058 16.493C9.98022 16.3903 9.939 16.2919 9.86599 16.2195C9.43036 15.784 9.18567 15.1937 9.18567 14.5783C9.18567 13.9628 9.43036 13.3725 9.86599 12.937Z" fill="#0F0A0F"/>
</svg>
