<svg width="28" height="28" viewBox="0 0 28 28" fill="none" xmlns="http://www.w3.org/2000/svg">
<path d="M23.7053 3.7951L21.2027 1.29413C20.9879 1.0795 20.693 0.974364 20.3905 1.00532C20.0908 1.03587 19.8244 1.19772 19.6596 1.44927C18.6243 3.02708 16.3623 5.42454 14.7204 6.68454C14.4961 6.85671 14.3568 7.11777 14.3381 7.40105C14.3195 7.6875 14.4255 7.96838 14.6291 8.17191L14.8868 8.42939L11.8927 11.4216C11.542 10.0808 10.3243 9.0872 8.87409 9.0872C7.15042 9.0872 5.7479 10.4889 5.7479 12.2114V15.5486C4.68338 16.4425 4 17.7751 4 19.2701V26.6953C4 26.8635 4.13655 27 4.30488 27H13.439C13.6073 27 13.7438 26.8635 13.7438 26.6953V19.266C13.7438 17.772 13.0634 16.4371 11.9999 15.5436V14.6698L16.5654 10.1069L16.8236 10.365C17.0114 10.553 17.2659 10.6574 17.5295 10.6574C17.5509 10.6574 17.5727 10.6566 17.5946 10.6554C17.878 10.6367 18.1392 10.4975 18.3115 10.2733C19.5743 8.63086 21.9733 6.37071 23.5505 5.3376C23.8021 5.17295 23.9637 4.90677 23.9947 4.6072C24.0256 4.30609 23.92 4.00973 23.7053 3.7951ZM6.3577 12.2114C6.3577 10.8248 7.48669 9.6965 8.87413 9.6965C10.1707 9.6965 11.2353 10.6834 11.3698 11.9441L9.65133 13.6615C7.41872 14.676 7.24733 14.6035 7.02855 15.0131C6.41148 16.1644 8.79088 18.6026 9.98288 17.9581C10.3963 17.7343 10.3187 17.5675 11.3282 15.3413L11.3902 15.2794V18.8071C11.3902 19.6874 10.6736 20.4035 9.79272 20.4035H7.9551C7.0742 20.4035 6.35766 19.6874 6.35766 18.8071V12.2114H6.3577ZM9.75467 14.2811L10.7094 15.2352C9.94109 16.7239 9.92723 17.5751 9.49385 17.4438C9.49267 17.4438 9.49186 17.4434 9.49109 17.443C7.96681 16.9955 7.41104 15.5886 7.56612 15.3007C7.63742 15.1666 7.56071 15.25 9.75467 14.2811ZM13.1341 19.266V26.3905H4.6098V19.27C4.6098 18.1548 5.0433 17.141 5.74794 16.3812V18.807C5.74794 20.0234 6.73798 21.0128 7.95514 21.0128H9.79276C11.0099 21.0128 12 20.0234 12 18.807V16.3855C12.7009 17.1445 13.1341 18.154 13.1341 19.266ZM11.0726 14.735L10.256 13.9189L15.3171 8.86096L16.1337 9.67663L11.0726 14.735ZM23.2162 4.82816C21.5644 5.91006 19.1472 8.18609 17.828 9.90198C17.7617 9.98847 17.6645 10.04 17.5549 10.0472C17.4386 10.0559 17.3341 10.0131 17.2547 9.93412L15.0603 7.741C14.9809 7.66166 14.9396 7.55217 14.9467 7.44066C14.9539 7.33117 15.0055 7.23395 15.092 7.16769C16.8073 5.85135 19.0848 3.43565 20.1694 1.78326C20.2333 1.68604 20.3365 1.62335 20.4528 1.61145C20.4663 1.60987 20.4798 1.60946 20.4933 1.60946C20.5973 1.60946 20.697 1.65033 20.7716 1.72492L23.2742 4.22589C23.3587 4.31039 23.4004 4.42662 23.3881 4.54488C23.3762 4.66115 23.3135 4.7643 23.2162 4.82816Z" fill="#0F0A0F" stroke="#0F0A0F" stroke-width="0.2"/>
</svg>
