<svg width="17" height="22" viewBox="0 0 17 22" fill="none" xmlns="http://www.w3.org/2000/svg">
<path d="M8.30525 5.349C7.72298 5.349 7.1538 5.52014 6.66966 5.84077C6.18553 6.1614 5.80819 6.61713 5.58537 7.15032C5.36254 7.68351 5.30424 8.27022 5.41784 8.83625C5.53143 9.40228 5.81182 9.92222 6.22354 10.3303C6.63526 10.7384 7.15983 11.0163 7.73091 11.1289C8.30198 11.2415 8.89392 11.1837 9.43186 10.9628C9.9698 10.742 10.4296 10.368 10.7531 9.88812C11.0766 9.40826 11.2492 8.8441 11.2492 8.26698C11.2483 7.49335 10.9379 6.75167 10.386 6.20463C9.83406 5.65759 9.08577 5.34988 8.30525 5.349ZM8.30525 9.72597C8.01412 9.72597 7.72952 9.6404 7.48745 9.48009C7.24539 9.31977 7.05672 9.09191 6.94531 8.82531C6.83389 8.55872 6.80474 8.26536 6.86154 7.98235C6.91834 7.69933 7.05853 7.43936 7.26439 7.23532C7.47026 7.03127 7.73254 6.89232 8.01808 6.83602C8.30361 6.77973 8.59958 6.80862 8.86855 6.91905C9.13752 7.02948 9.36742 7.21648 9.52916 7.45641C9.69091 7.69634 9.77724 7.97842 9.77724 8.26698C9.77679 8.65379 9.62156 9.02463 9.3456 9.29815C9.06965 9.57167 8.69551 9.72552 8.30525 9.72597Z" fill="black"/>
<path d="M13.9619 2.65523C12.5632 1.26921 10.6961 0.445852 8.72088 0.344076C6.7457 0.242299 4.8025 0.869314 3.26631 2.10411C1.73012 3.3389 0.709851 5.09393 0.402411 7.03048C0.094972 8.96703 0.522158 10.9478 1.60152 12.5905L7.16321 21.0533C7.28697 21.2416 7.4562 21.3963 7.65555 21.5034C7.85489 21.6105 8.07806 21.6666 8.3048 21.6666C8.53155 21.6666 8.75471 21.6105 8.95406 21.5034C9.15341 21.3963 9.32263 21.2416 9.4464 21.0533L15.0083 12.5905C16.0098 11.0667 16.4524 9.2479 16.2619 7.43905C16.0714 5.6302 15.2594 3.94123 13.9619 2.65523ZM13.7749 11.7942L8.30483 20.1173L2.83468 11.7942C1.16029 9.24645 1.51941 5.83697 3.68857 3.68687C4.29478 3.086 5.01446 2.60936 5.80652 2.28417C6.59858 1.95898 7.44751 1.7916 8.30483 1.7916C9.16215 1.7916 10.0111 1.95898 10.8031 2.28417C11.5952 2.60936 12.3149 3.086 12.9211 3.68687C15.0902 5.83697 15.4493 9.24645 13.7749 11.7942Z" fill="black"/>
</svg>
