<svg width="28" height="28" viewBox="0 0 28 28" fill="none" xmlns="http://www.w3.org/2000/svg">
<path d="M25.9289 22.1228L22.9853 17.96C22.9248 17.8742 22.833 17.8164 22.7303 17.799C22.628 17.7817 22.5219 17.8048 22.4369 17.8665L22.3819 17.9056L20.8163 15.6911C20.7557 15.6053 20.664 15.5475 20.5613 15.5301C20.4913 15.5188 20.4213 15.5331 20.355 15.5588L19.9416 14.9742C21.2793 14.045 22.5422 12.8026 23.6926 11.2448C23.6938 11.2432 23.6936 11.2411 23.6947 11.2394C23.7319 11.1875 23.7527 11.1267 23.7614 11.0618C23.7638 11.0439 23.7622 11.0276 23.7622 11.0096C23.7623 10.9854 23.7678 10.962 23.7632 10.9373C23.7583 10.9101 23.7438 10.8884 23.7338 10.864C23.7294 10.8531 23.7327 10.841 23.7272 10.8303C23.6062 10.5922 20.7246 4.97923 17.0574 3.3378C15.9357 2.83562 14.6031 2.89783 13.4924 3.50409L13.3637 3.57252C13.2336 3.64144 13.0871 3.71902 12.9589 3.80047C12.9584 3.80047 12.812 3.80047 12.812 3.80095C12.6838 3.71951 12.5378 3.64144 12.4076 3.57301L12.2775 3.50312C11.1664 2.89783 9.83382 2.83471 8.71302 3.33538C5.04476 4.97353 2.1588 10.5846 2.03779 10.8227C2.03238 10.8333 2.03559 10.8456 2.0312 10.8566C2.02123 10.881 2.00677 10.9025 2.00179 10.9297C1.99724 10.9542 2.00281 10.9773 2.00281 11.0013C2.00281 11.0197 2.00115 11.036 2.00361 11.0541C2.01229 11.1184 2.0327 11.1789 2.06945 11.2306C2.07084 11.2326 2.07046 11.2352 2.07191 11.2371C4.88202 15.0501 8.35144 17.0357 12.0484 16.9326C12.1627 16.9297 12.4172 16.9277 12.6977 16.9277C13.1029 16.9267 13.5553 16.9306 13.7219 16.9326C13.805 16.9355 13.8876 16.9364 13.9702 16.9364C15.0965 16.9364 16.2008 16.7388 17.2646 16.367L17.9254 17.3013C17.8961 17.3462 17.8748 17.3962 17.8655 17.4502C17.8482 17.5542 17.8722 17.6593 17.9328 17.7451L19.499 19.9596L19.4036 20.0275C19.2269 20.1528 19.1851 20.3986 19.309 20.5759L22.1637 24.6636C22.164 24.664 22.1644 24.6641 22.1647 24.6645C22.1649 24.6649 22.1649 24.6652 22.1652 24.6656C22.1681 24.6697 22.1732 24.6705 22.1762 24.6746C22.2162 24.7268 22.2653 24.7665 22.3212 24.7925C22.4793 24.9204 22.6682 25 22.8989 25C23.4357 25 24.1152 24.6964 24.6818 24.2926C25.1303 23.9726 25.5054 23.5957 25.7377 23.2304C25.9517 22.8945 26.0045 22.631 25.9923 22.427C26.0124 22.3243 25.994 22.2145 25.9289 22.1228ZM2.99285 10.7134C3.76369 9.33793 6.2031 5.3205 9.03282 4.05642C9.93222 3.65548 11.004 3.70752 11.901 4.19669L12.0408 4.27136C12.1532 4.33114 12.2804 4.39764 12.3923 4.46893C12.546 4.56484 12.7145 4.61349 12.8696 4.60581C13.0483 4.61688 13.2264 4.56532 13.3776 4.46845C13.4895 4.39807 13.6173 4.33109 13.7301 4.27136L13.8684 4.1976C14.7649 3.70843 15.8377 3.65639 16.7366 4.05879C19.563 5.32383 22.002 9.34503 22.7725 10.7204L22.6435 10.7445C21.5963 10.9428 20.5214 10.876 19.4835 10.5806C18.5083 10.2293 17.569 9.57669 17.067 9.14692C16.5349 8.69103 15.9251 8.44233 15.3042 8.42884C14.6943 8.40857 14.1003 8.57631 13.512 8.90693C13.4722 8.9286 13.4319 8.94935 13.3906 8.96811C12.8998 9.19219 12.3264 9.17246 11.8491 8.90693C11.26 8.57539 10.6597 8.41395 10.0556 8.42647C9.43324 8.43997 8.82342 8.68818 8.29278 9.14359C7.59988 9.73636 6.08151 10.7561 4.78303 10.8226C4.76369 10.8236 4.74756 10.8328 4.72914 10.8365C4.16919 10.8623 3.59886 10.828 3.03083 10.7205L2.99285 10.7134ZM16.8075 9.95022C16.149 9.90909 15.4717 9.97446 14.8441 10.2444L14.4426 10.4169C14.021 10.5972 13.7084 10.7321 13.4745 10.8266C13.0755 10.9866 12.5622 10.9557 12.3139 10.8362C12.1352 10.7504 11.9047 10.6541 11.6133 10.5335C11.4135 10.4506 11.184 10.3552 10.9218 10.2425C10.1431 9.90844 9.28887 9.88377 8.48825 9.99505C8.64258 9.87629 8.7623 9.77904 8.80312 9.74415C9.19497 9.40825 9.63385 9.22557 10.0727 9.21595C10.5217 9.20149 10.999 9.33304 11.4759 9.60195C12.1621 9.98414 12.9991 10.0149 13.7179 9.6863C13.7775 9.65932 13.836 9.62942 13.8946 9.59668C14.3599 9.33546 14.832 9.21256 15.2862 9.21837C15.7241 9.22799 16.1631 9.41116 16.5558 9.74802C16.5911 9.77791 16.687 9.85587 16.8075 9.95022ZM16.1843 14.84C16.1848 14.84 16.1848 14.841 16.1853 14.841L16.7878 15.6928C15.8035 16.0114 14.7855 16.1712 13.7392 16.1431C13.5937 16.1402 13.2364 16.1383 12.8816 16.1383C12.5271 16.1402 12.1699 16.1402 12.0287 16.1441C8.83114 16.1967 5.88652 14.6595 3.33723 11.5536C4.52826 11.7094 5.71907 11.6202 6.80274 11.2583C6.88872 11.2304 6.97319 11.2005 7.0558 11.1697C8.04498 10.8053 9.46495 10.4786 10.6121 10.9682C10.8776 11.0829 11.1106 11.1793 11.3132 11.2632C11.5879 11.3769 11.8059 11.4665 11.973 11.5475C12.2169 11.6651 12.5319 11.7249 12.857 11.7249C13.1701 11.7249 13.4918 11.6699 13.767 11.5591C14.0056 11.4627 14.3235 11.3268 14.7519 11.1427L15.1528 10.9711C16.3005 10.4757 17.7199 10.8092 18.7375 11.1841C18.9007 11.244 19.0697 11.2812 19.2361 11.3296C19.6552 11.4791 20.093 11.5885 20.53 11.6111C20.5367 11.6111 20.5434 11.6121 20.5506 11.6121C20.5663 11.6121 20.5799 11.6051 20.595 11.6034C21.2042 11.6655 21.8187 11.6476 22.4292 11.5635C21.5045 12.6874 20.5197 13.6156 19.4875 14.3323L18.1016 12.3726C17.9215 12.1172 17.6181 11.9774 17.3083 12.0256C16.9991 12.0661 16.7402 12.2743 16.6317 12.5673L16.0824 14.0632C15.9874 14.3224 16.0254 14.6135 16.1843 14.84ZM16.8268 14.3841L16.821 14.3359L17.4601 12.8294L19.032 15.0521C19.04 15.07 19.0421 15.0891 19.0529 15.106C19.07 15.1325 19.0943 15.1502 19.1161 15.1711L19.7025 16.0003L19.2547 16.3193L18.5501 16.8207L16.8268 14.3841ZM18.8019 17.6101L19.728 16.9503L20.4025 16.4701L21.7405 18.3626L21.101 18.8183L20.1402 19.5022L18.8019 17.6101ZM24.2266 23.6486C23.4824 24.1797 22.8954 24.2529 22.8068 24.2086L20.1776 20.4438L21.0993 19.7873L22.5166 18.7782C22.5172 18.7778 22.5175 18.777 22.5181 18.7766L22.5714 18.7387L25.2103 22.4707C25.2271 22.5973 24.9659 23.1224 24.2266 23.6486Z" fill="#0F0A0F"/>
</svg>
