<svg width="24" height="22" viewBox="0 0 24 22" fill="none" xmlns="http://www.w3.org/2000/svg">
<path d="M23.9289 19.1228L20.9853 14.96C20.9248 14.8742 20.833 14.8164 20.7303 14.799C20.628 14.7817 20.5219 14.8048 20.4369 14.8665L20.3819 14.9056L18.8163 12.6911C18.7557 12.6053 18.664 12.5475 18.5613 12.5301C18.4913 12.5188 18.4213 12.5331 18.355 12.5588L17.9416 11.9742C19.2793 11.045 20.5422 9.8026 21.6926 8.24477C21.6938 8.24316 21.6936 8.24107 21.6947 8.2394C21.7319 8.18752 21.7527 8.12672 21.7614 8.06177C21.7638 8.04387 21.7622 8.02763 21.7622 8.00957C21.7623 7.98538 21.7678 7.96205 21.7632 7.93732C21.7583 7.91011 21.7438 7.88845 21.7338 7.86404C21.7294 7.85307 21.7327 7.84098 21.7272 7.83028C21.6062 7.59223 18.7246 1.97923 15.0574 0.337804C13.9357 -0.164375 12.6031 -0.102174 11.4924 0.504086L11.3637 0.572524C11.2336 0.641445 11.0871 0.719021 10.9589 0.800469C10.9584 0.800469 10.812 0.800469 10.812 0.800953C10.6838 0.719505 10.5378 0.641445 10.4076 0.573007L10.2775 0.503118C9.16637 -0.102174 7.83382 -0.165289 6.71302 0.335385C3.04476 1.97353 0.158797 7.58459 0.0377871 7.8227C0.0323768 7.83329 0.035591 7.8456 0.0311985 7.85657C0.0212349 7.88098 0.00677159 7.90253 0.0017898 7.92968C-0.00276346 7.9542 0.00280743 7.97731 0.00280743 8.00135C0.00280743 8.01968 0.0011468 8.03597 0.00361092 8.05414C0.0122889 8.11844 0.0326982 8.17892 0.0694456 8.23058C0.0708384 8.23257 0.0704635 8.2352 0.0719098 8.23714C2.88202 12.0501 6.35144 14.0357 10.0484 13.9326C10.1627 13.9297 10.4172 13.9277 10.6977 13.9277C11.1029 13.9267 11.5553 13.9306 11.7219 13.9326C11.805 13.9355 11.8876 13.9364 11.9702 13.9364C13.0965 13.9364 14.2008 13.7388 15.2646 13.367L15.9254 14.3013C15.8961 14.3462 15.8748 14.3962 15.8655 14.4502C15.8482 14.5542 15.8722 14.6593 15.9328 14.7451L17.499 16.9596L17.4036 17.0275C17.2269 17.1528 17.1851 17.3986 17.309 17.5759L20.1637 21.6636C20.164 21.664 20.1644 21.6641 20.1647 21.6645C20.1649 21.6649 20.1649 21.6652 20.1652 21.6656C20.1681 21.6697 20.1732 21.6705 20.1762 21.6746C20.2162 21.7268 20.2653 21.7665 20.3212 21.7925C20.4793 21.9204 20.6682 22 20.8989 22C21.4357 22 22.1152 21.6964 22.6818 21.2926C23.1303 20.9726 23.5054 20.5957 23.7377 20.2304C23.9517 19.8945 24.0045 19.631 23.9923 19.427C24.0124 19.3243 23.994 19.2145 23.9289 19.1228ZM0.992846 7.7134C1.76369 6.33793 4.2031 2.3205 7.03282 1.05642C7.93222 0.655476 9.004 0.707517 9.90105 1.19669L10.0408 1.27136C10.1532 1.33114 10.2804 1.39764 10.3923 1.46893C10.546 1.56484 10.7145 1.61349 10.8696 1.60581C11.0483 1.61688 11.2264 1.56532 11.3776 1.46845C11.4895 1.39807 11.6173 1.33109 11.7301 1.27136L11.8684 1.1976C12.7649 0.708431 13.8377 0.65639 14.7366 1.05879C17.563 2.32383 20.002 6.34503 20.7725 7.72045L20.6435 7.74453C19.5963 7.9428 18.5214 7.87598 17.4835 7.58061C16.5083 7.22934 15.569 6.57669 15.067 6.14692C14.5349 5.69103 13.9251 5.44233 13.3042 5.42884C12.6943 5.40857 12.1003 5.57631 11.512 5.90693C11.4722 5.9286 11.4319 5.94935 11.3906 5.96811C10.8998 6.19219 10.3264 6.17246 9.84914 5.90693C9.25995 5.57539 8.65972 5.41395 8.05559 5.42647C7.43324 5.43997 6.82342 5.68818 6.29278 6.14359C5.59988 6.73636 4.08151 7.75609 2.78303 7.82264C2.76369 7.82361 2.74756 7.83281 2.72914 7.83646C2.16919 7.86227 1.59886 7.82797 1.03083 7.7205L0.992846 7.7134ZM14.8075 6.95022C14.149 6.90909 13.4717 6.97446 12.8441 7.24439L12.4426 7.41691C12.021 7.59717 11.7084 7.73211 11.4745 7.82657C11.0755 7.98656 10.5622 7.9557 10.3139 7.83619C10.1352 7.75039 9.90475 7.65405 9.61328 7.53352C9.41353 7.45062 9.18399 7.3552 8.92178 7.24246C8.14312 6.90844 7.28887 6.88377 6.48825 6.99505C6.64258 6.87629 6.7623 6.77904 6.80312 6.74415C7.19497 6.40825 7.63385 6.22557 8.07273 6.21595C8.52173 6.20149 8.99902 6.33304 9.47588 6.60195C10.1621 6.98414 10.9991 7.01494 11.7179 6.6863C11.7775 6.65932 11.836 6.62942 11.8946 6.59668C12.3599 6.33546 12.832 6.21256 13.2862 6.21837C13.7241 6.22799 14.1631 6.41116 14.5558 6.74802C14.5911 6.77791 14.687 6.85587 14.8075 6.95022ZM14.1843 11.84C14.1848 11.84 14.1848 11.841 14.1853 11.841L14.7878 12.6928C13.8035 13.0114 12.7855 13.1712 11.7392 13.1431C11.5937 13.1402 11.2364 13.1383 10.8816 13.1383C10.5271 13.1402 10.1699 13.1402 10.0287 13.1441C6.83114 13.1967 3.88652 11.6595 1.33723 8.55363C2.52826 8.70943 3.71907 8.62024 4.80274 8.25832C4.88872 8.23037 4.97319 8.20048 5.0558 8.16967C6.04498 7.80533 7.46495 7.47858 8.6121 7.96823C8.87764 8.0829 9.11055 8.17929 9.3132 8.26316C9.58789 8.37692 9.80586 8.46654 9.97299 8.5475C10.2169 8.66508 10.5319 8.72486 10.857 8.72486C11.1701 8.72486 11.4918 8.66991 11.767 8.55906C12.0056 8.46267 12.3235 8.32676 12.7519 8.14268L13.1528 7.97113C14.3005 7.47573 15.7199 7.8092 16.7375 8.18413C16.9007 8.24402 17.0697 8.28122 17.2361 8.32961C17.6552 8.47912 18.093 8.58847 18.53 8.6111C18.5367 8.6111 18.5434 8.61207 18.5506 8.61207C18.5663 8.61207 18.5799 8.60513 18.595 8.60336C19.2042 8.66545 19.8187 8.6476 20.4292 8.56352C19.5045 9.68739 18.5197 10.6156 17.4875 11.3323L16.1016 9.37257C15.9215 9.11715 15.6181 8.97737 15.3083 9.0256C14.9991 9.06608 14.7402 9.27429 14.6317 9.56729L14.0824 11.0632C13.9874 11.3224 14.0254 11.6135 14.1843 11.84ZM14.8268 11.3841L14.821 11.3359L15.4601 9.82943L17.032 12.0521C17.04 12.07 17.0421 12.0891 17.0529 12.106C17.07 12.1325 17.0943 12.1502 17.1161 12.1711L17.7025 13.0003L17.2547 13.3193L16.5501 13.8207L14.8268 11.3841ZM16.8019 14.6101L17.728 13.9503L18.4025 13.4701L19.7405 15.3626L19.101 15.8183L18.1402 16.5022L16.8019 14.6101ZM22.2266 20.6486C21.4824 21.1797 20.8954 21.2529 20.8068 21.2086L18.1776 17.4438L19.0993 16.7873L20.5166 15.7782C20.5172 15.7778 20.5175 15.777 20.5181 15.7766L20.5714 15.7387L23.2103 19.4707C23.2271 19.5973 22.9659 20.1224 22.2266 20.6486Z" fill="#0F0A0F"/>
</svg>
