<svg width="28" height="28" viewBox="0 0 28 28" fill="none" xmlns="http://www.w3.org/2000/svg">
<path d="M12.4385 12.3128C11.5824 11.9975 10.9657 11.4576 10.6643 11.1533C11.0387 9.8278 10.1652 7.99631 10.1271 7.91821L9.44479 8.25562C10.2448 9.91283 10.4238 11.7565 8.53505 11.7565C6.74185 11.7565 4.76248 12.4018 4.42944 14.1761L4.43964 14.178C4.32544 15.2997 5.34775 18.1399 6.96637 19.5979C7.20985 20.239 7.46884 21.4654 6.76175 22.9567L7.44689 23.2888C8.00745 22.1065 8.0458 21.0587 7.92283 20.267C8.37608 20.4964 8.84052 20.6143 9.31199 20.6143C9.79037 20.6143 10.2616 20.4928 10.7212 20.2566C10.4124 22.0316 11.1603 23.2669 11.1984 23.3278L11.8415 22.9188C11.8052 22.86 10.9791 21.472 11.695 19.5635C12.9959 18.3742 14.0189 16.253 14.1953 14.3579L14.1969 14.3358L14.1952 14.3178H14.1969C14.1732 14.2794 14.0528 12.9061 12.4385 12.3128ZM11.1183 19.0573C9.94222 20.0962 8.71051 20.1048 7.53536 19.0835C6.35891 18.0653 5.37405 16.075 5.19359 14.3508C5.16008 14.0281 5.52522 13.5102 5.89982 13.2221C7.41199 12.0755 9.31136 13.0036 10.2948 11.8592C11.9239 13.3648 13.0297 12.8583 13.4319 14.3557C13.2521 16.0651 12.287 18.0315 11.1183 19.0573Z" fill="#0F0A0F"/>
<path d="M16.0946 11.7368C16.0795 11.3499 16.0476 10.9786 15.9983 10.6239C18.2044 12.4453 21.2234 13.5745 24.4802 13.5745C24.9602 13.5745 25.4584 13.5512 25.9733 13.501L25.9006 12.737C24.3336 12.8902 22.9346 12.7723 21.7092 12.5062L22.2453 11.5646C22.9887 10.1774 22.6435 11.5751 22.3815 7.32531L23.9468 4.57533C24.0514 4.39126 23.9887 4.15657 23.807 4.05085C23.6252 3.94587 23.393 4.00848 23.288 4.19218L21.7227 6.94216C18.1156 8.65274 18.7914 8.07226 18.1659 9.19155C18.1657 9.19183 18.1655 9.19197 18.1655 9.19197L17.3626 10.6023C17.3527 10.6196 17.3515 10.6386 17.3446 10.6567C16.4417 10.0514 15.8908 9.50902 15.7176 9.32787C14.8226 6.3378 12.2453 4.98554 9.91532 5.23816C6.69646 5.49459 4.42406 6.73664 3.16155 8.92982C-0.0339463 14.4802 4.35691 24.0946 4.54535 24.501L5.23345 24.1756C5.18894 24.0796 0.822378 14.5174 3.81868 9.31485C4.94857 7.35336 7.01973 6.23915 9.98432 6.00296C10.0068 5.99921 12.2653 5.79002 13.8191 7.43471C14.653 8.31728 15.1441 9.56519 15.2946 11.1584C13.9964 10.1576 13.2696 9.29432 13.2507 9.27136L12.6666 9.76248C12.6889 9.78957 13.6475 10.9318 15.3433 12.1436C15.35 12.9326 15.2879 13.7907 15.1514 14.7217C14.8468 16.799 14.8767 18.78 15.24 20.6091C15.8183 23.5229 16.9212 25 18.5181 25V24.2322C17.0436 24.2322 16.3265 22.18 15.9849 20.4581C15.6388 18.7159 15.6112 16.8238 15.9029 14.8342C16.016 14.0627 16.0787 13.3373 16.0969 12.6532C18.0057 13.8706 20.6328 15.0107 23.7773 15.0107C24.4921 15.0107 25.2344 14.9515 26 14.8214L25.8739 14.0641C21.7189 14.7713 18.3166 13.2491 16.0946 11.7368ZM19.7748 10.5713L20.2566 10.8514L19.6698 11.8821C19.4915 11.8106 19.319 11.7369 19.1521 11.6612C19.1549 11.6566 19.159 11.6533 19.1616 11.6486L19.7748 10.5713ZM20.3958 12.1473L20.9154 11.2345L21.397 11.5144L20.9412 12.315C20.7546 12.2622 20.573 12.2061 20.3958 12.1473ZM19.1631 8.97856L21.6648 7.81449L21.9263 10.585L21.7761 10.8489C21.6054 10.7497 18.9213 9.18903 19.0133 9.24249L19.1631 8.97856ZM18.0214 10.9854L18.6346 9.90829L19.116 10.1882L18.5029 11.2655C18.4907 11.2869 18.4883 11.3103 18.4806 11.3328C18.3032 11.2394 18.1328 11.1451 17.9716 11.0505C17.9897 11.0305 18.0074 11.0099 18.0214 10.9854Z" fill="#0F0A0F"/>
</svg>
