<svg width="28" height="28" viewBox="0 0 28 28" fill="none" xmlns="http://www.w3.org/2000/svg">
<path d="M25.95 4.41074C25.4305 3.84125 24.7338 3.54317 24.3141 3.54317C23.9737 3.54317 23.8536 3.7179 23.8124 3.82229C23.6965 4.11487 23.9454 4.43327 24.1745 4.64893C24.1852 4.65909 24.1968 4.66843 24.2091 4.67695C24.8665 5.13518 24.6852 6.01814 24.6344 6.21649C24.1564 6.90879 23.2399 7.26702 22.3869 7.08735C21.1784 6.83351 20.7001 5.8143 20.1938 4.73546C19.6468 3.56982 19.0268 2.24896 17.3598 2.03303C16.0397 1.86106 14.9565 2.36709 14.3623 3.40004C13.7678 2.36682 12.6846 1.8616 11.3651 2.03303C9.69805 2.24896 9.07801 3.56982 8.53104 4.73546C8.02473 5.8143 7.54644 6.83351 6.33794 7.08735C5.48575 7.26647 4.56873 6.90906 4.09044 6.21676C4.03907 6.01622 3.85885 5.13463 4.51571 4.67695C4.5278 4.66843 4.53934 4.65909 4.55033 4.64893C4.77944 4.43327 5.02834 4.11487 4.91241 3.82229C4.8712 3.7179 4.75115 3.54317 4.41077 3.54317C3.99072 3.54317 3.29402 3.84125 2.7748 4.41074C2.36574 4.85936 1.90256 5.65633 2.01794 6.90494C2.15008 8.33486 3.01298 9.6321 4.28247 10.334C4.67505 17.0345 6.62612 18.385 6.70991 18.4394C6.77859 18.4842 6.8621 18.4993 6.94232 18.4814C7.02227 18.4633 7.09177 18.4141 7.13463 18.3443L8.12527 16.7372C10.659 23.1654 14.0304 25.8236 14.1766 25.9365C14.2312 25.9788 14.2969 26 14.3623 26C14.4279 26 14.4933 25.9788 14.548 25.9365C14.6944 25.8236 18.0655 23.1654 20.5993 16.7372L21.5899 18.3443C21.6328 18.4141 21.7023 18.4636 21.7822 18.4814C21.8622 18.4996 21.946 18.4842 22.0146 18.4394C22.0982 18.3847 24.0492 17.0345 24.4421 10.334C25.7118 9.6321 26.5745 8.33514 26.7066 6.90494C26.8223 5.65633 26.3588 4.85964 25.95 4.41074ZM21.9083 17.7023L20.7943 15.8952C20.7333 15.7966 20.6221 15.74 20.5059 15.7521C20.3905 15.7636 20.2913 15.8394 20.2507 15.9485C18.0902 21.7413 15.1276 24.6225 14.3623 25.2984C13.5969 24.6225 10.6343 21.7413 8.47362 15.9488C8.43296 15.84 8.33406 15.7639 8.2184 15.7523C8.10385 15.7408 7.99094 15.7966 7.92995 15.8955L6.8165 17.702C6.33299 17.1259 5.22751 15.3199 4.90856 10.6214C5.53657 10.8557 6.18547 10.9519 6.82145 10.9519C8.35027 10.9516 9.80382 10.4112 10.709 9.98704C12.5238 9.13623 13.7488 8.12195 14.3623 6.96455C14.976 8.12195 16.2007 9.13595 18.0155 9.98676C19.2971 10.5873 21.6778 11.4192 23.8157 10.6216C23.4965 15.3251 22.3891 17.1298 21.9083 17.7023ZM26.1014 6.84917C25.983 8.1302 25.1827 9.29007 24.0132 9.87578C21.9935 10.887 19.5501 10.0346 18.2738 9.43622C16.2644 8.49448 15.0463 7.36785 14.6529 6.08792C14.6136 5.96017 14.4958 5.87309 14.3625 5.87309C14.229 5.87309 14.1112 5.96017 14.0719 6.08792C13.6788 7.36785 12.4604 8.49448 10.4511 9.43622C9.17471 10.0348 6.73134 10.8876 4.71131 9.87578C3.54155 9.29007 2.74156 8.1302 2.62315 6.84917C2.54678 6.02363 2.74898 5.34123 3.22397 4.82035C3.52479 4.49069 3.86572 4.30498 4.11517 4.21652C3.08771 4.98821 3.50254 6.37528 3.52067 6.43489C3.52919 6.46209 3.54127 6.48791 3.55693 6.51154C4.16132 7.43295 5.35636 7.91536 6.46321 7.68185C7.96841 7.36592 8.55988 6.1055 9.08158 4.99343C9.60877 3.87009 10.1068 2.80884 11.4434 2.63549C12.6862 2.47396 13.6307 3.02065 14.0345 4.13437C14.0406 4.15113 14.0433 4.16899 14.0472 4.1863C14.0543 4.21954 14.0617 4.2525 14.0716 4.2852C14.1106 4.41294 14.2285 4.50003 14.362 4.50003H14.3623C14.4958 4.50003 14.6134 4.41294 14.6527 4.28547C14.6628 4.2525 14.6705 4.21926 14.6774 4.18547C14.681 4.16817 14.6837 4.15058 14.6897 4.1341C15.0933 3.02038 16.0394 2.47423 17.2809 2.63522C18.6174 2.80829 19.1155 3.86954 19.643 4.99315C20.1649 6.10523 20.7564 7.36565 22.2613 7.68158C23.3685 7.91482 24.5632 7.43295 25.1676 6.51126C25.1833 6.48764 25.1954 6.46154 25.2039 6.43462C25.2223 6.375 25.6368 4.98793 24.6094 4.21624C24.8588 4.30443 25.1998 4.49041 25.5006 4.82008C25.9756 5.3415 26.1778 6.02391 26.1014 6.84917Z" fill="#0F0A0F" stroke="#0F0A0F" stroke-width="0.2"/>
</svg>
