<svg width="28" height="28" viewBox="0 0 28 28" fill="none" xmlns="http://www.w3.org/2000/svg">
<path d="M3.04384 4.89333C2.73067 5.1832 2.39991 5.50081 2.06078 5.83711C1.97928 5.91789 1.97984 6.0484 2.0619 6.12863C2.14368 6.20831 2.27626 6.20858 2.35777 6.12726C2.69355 5.79425 3.02096 5.48021 3.3305 5.19336L3.59762 4.94581C5.06273 3.58605 6.44661 2.30184 7.20694 2.42081C8.0898 2.55901 9.65734 3.61023 10.4327 4.58341C11.2961 5.66787 16.0615 9.65868 17.518 10.5926C17.8395 10.7989 18.1588 11.0264 18.4672 11.2465C18.9669 11.6026 19.4832 11.971 20.039 12.271C20.1456 12.3285 20.2539 12.3856 20.3625 12.4428C20.9017 12.7269 21.4594 13.0209 21.8921 13.4204C22.0587 13.5739 22.217 13.7413 22.385 13.9185C22.8413 14.4007 23.3133 14.8991 23.9743 15.1326C24.0455 15.1579 24.1605 15.1873 24.2992 15.2225C24.6632 15.3145 25.4201 15.5063 25.5611 15.7739C25.5779 15.8055 25.5912 15.847 25.565 15.9157C25.5402 15.9808 25.4232 16.0899 25.1709 16.1998C24.5811 16.4561 23.7077 16.5418 23.3016 16.3833C23.1757 16.3341 22.917 16.1748 22.6435 16.0061C22.0802 15.6588 21.3793 15.2266 20.8811 15.1326C20.4242 15.0472 20.0203 15.2172 19.6289 15.3821C19.4422 15.461 19.2655 15.5354 19.0905 15.5788C18.7854 15.6547 18.5032 15.5893 18.2947 15.3945C18.1209 15.2315 18.0315 14.9892 18.0042 14.6084C17.9983 14.521 18.0022 14.4166 18.0061 14.3062C18.0181 13.9718 18.0332 13.5558 17.8077 13.2882C17.3496 12.7456 15.8343 12.171 14.08 11.5056C12.6529 10.9643 11.1769 10.4049 10.1478 9.81721C9.24508 9.30177 8.77978 8.68632 8.54197 8.14478C8.54114 8.14231 8.54197 8.14011 8.54114 8.13764C8.53974 8.13379 8.53667 8.13132 8.53527 8.12775C8.28267 7.54197 8.29523 7.04659 8.31254 6.86277C8.38539 6.81277 8.45907 6.76331 8.53723 6.71551C8.63548 6.65533 8.66534 6.5284 8.60422 6.43168C8.54337 6.33497 8.41497 6.30557 8.31589 6.36547C6.8946 7.23617 6.30454 8.43245 6.15716 8.77864C4.2396 9.53119 2.93359 10.2109 2.11437 10.6967C2.01528 10.7555 1.98318 10.8822 2.04292 10.9794C2.08227 11.0437 2.15149 11.0792 2.22267 11.0792C2.25951 11.0792 2.29664 11.0695 2.33041 11.0498C3.14237 10.5684 4.4428 9.89277 6.35869 9.14352C6.38269 9.13857 6.40558 9.13033 6.42651 9.11741C6.97722 8.9031 7.57873 8.6833 8.23326 8.4602C8.51769 9.03141 9.02597 9.65236 9.93842 10.1733C10.996 10.7772 12.4876 11.3427 13.9298 11.8897C14.2039 11.9935 14.4794 12.0982 14.7499 12.2024C15.285 13.1983 16.1173 15.0205 16.7894 16.4918C17.2399 17.4793 17.6296 18.3321 17.8135 18.6811C18.328 19.6556 18.9127 20.3395 19.4788 21.0008C19.6677 21.2215 19.8525 21.4374 20.0295 21.6591C20.4364 22.1688 20.6193 22.581 20.813 23.0178C20.9408 23.3063 21.0731 23.6044 21.2738 23.9407C21.6012 24.4883 22.2027 24.5062 22.6421 24.5191C23.0074 24.5298 23.1032 24.5509 23.1096 24.6221C23.1375 24.9411 22.5631 25.4291 21.781 25.5799C21.2498 25.6829 20.2927 24.934 19.6599 24.4386C19.4009 24.2355 19.1773 24.0602 19.0143 23.9652C18.6958 23.7794 18.3397 23.8017 17.995 23.8226C17.7281 23.8388 17.4761 23.8544 17.267 23.772C17.0856 23.7006 16.5332 23.4827 16.7861 22.4754C16.8148 22.3611 16.8665 22.2205 16.9212 22.0716C17.0635 21.6852 17.2249 21.2473 17.1392 20.8816C16.9684 20.1502 15.4899 18.6893 14.0599 17.2768C13.2226 16.4495 12.4315 15.6678 12.0447 15.1661C10.5288 13.1989 10.9793 11.4671 10.9848 11.4471C11.0153 11.3374 10.95 11.2242 10.8389 11.194C10.7258 11.1635 10.6119 11.2284 10.5812 11.3374C10.5757 11.3575 10.5391 11.4951 10.5154 11.7226C9.55351 12.232 8.7569 13.0002 7.98708 13.7462C7.54495 14.1748 7.08775 14.618 6.61269 14.9955C5.09204 16.2036 3.63698 16.9941 2.16461 17.412C2.0538 17.4436 1.9896 17.5579 2.02142 17.6672C2.04794 17.7576 2.13168 17.8162 2.22267 17.8162C2.24165 17.8162 2.26147 17.8137 2.28073 17.8082C3.80752 17.3746 5.31031 16.5597 6.87534 15.3164C7.36687 14.926 7.83161 14.4757 8.28072 14.0399C8.96903 13.3725 9.67911 12.6865 10.4961 12.2054C10.5087 12.9637 10.7267 14.1377 11.7108 15.4148C12.1147 15.9388 12.9152 16.7298 13.7632 17.5672C15.0212 18.8102 16.5868 20.3571 16.7314 20.9736C16.7892 21.2206 16.6502 21.5976 16.5276 21.9306C16.469 22.09 16.4135 22.2405 16.3794 22.376C16.1603 23.25 16.4202 23.8814 17.111 24.1539C17.4077 24.2707 17.7195 24.2515 18.0212 24.2333C18.3162 24.2155 18.5942 24.1987 18.8008 24.319C18.939 24.3996 19.1522 24.5669 19.3995 24.7603C20.0753 25.29 20.9813 26 21.6849 26C21.7455 26 21.8044 25.9948 21.8616 25.9835C22.8307 25.7964 23.5774 25.1697 23.5266 24.5861C23.487 24.1311 23.0256 24.1174 22.6546 24.1064C22.2563 24.0949 21.8449 24.0825 21.6347 23.7311C21.4466 23.4162 21.3196 23.1296 21.1968 22.8521C21.0011 22.4112 20.7987 21.9548 20.3588 21.4039C20.1788 21.1789 19.9912 20.9591 19.7992 20.7349C19.2479 20.0908 18.678 19.4246 18.1856 18.4907C18.0067 18.1519 17.6198 17.304 17.1716 16.3223C16.5835 15.0345 15.8731 13.4789 15.3414 12.4332C16.3604 12.8401 17.2176 13.2313 17.4867 13.5503C17.6101 13.6968 17.5983 14.0259 17.5888 14.2902C17.5844 14.4166 17.5808 14.5356 17.5877 14.6356C17.6112 14.9664 17.6801 15.3854 18.0072 15.6915C18.3182 15.983 18.7505 16.0868 19.1941 15.9769C19.4009 15.9256 19.601 15.8412 19.7945 15.7596C20.1431 15.6129 20.4708 15.4728 20.8035 15.5362C21.2247 15.6156 21.9169 16.0423 22.4224 16.3539C22.7378 16.5484 22.9868 16.702 23.1487 16.7652C23.3432 16.841 23.5888 16.874 23.8523 16.874C24.3626 16.874 24.9398 16.7501 25.3417 16.5754C25.6753 16.43 25.8829 16.2566 25.9586 16.0599C26.0211 15.8962 26.0127 15.7313 25.9343 15.5827C25.7068 15.1519 24.9233 14.9535 24.405 14.8221C24.2824 14.7911 24.1803 14.7658 24.1172 14.7433C23.552 14.5435 23.1152 14.0822 22.6926 13.636C22.5273 13.4616 22.3568 13.2813 22.1798 13.1181C21.707 12.6818 21.1248 12.3749 20.5615 12.0782C20.4537 12.0213 20.3468 11.965 20.2416 11.9081C19.709 11.6207 19.2033 11.2602 18.7143 10.9116C18.4016 10.6885 18.0784 10.4579 17.7477 10.2461C16.1857 9.24463 11.5515 5.31755 10.7635 4.32789C9.92111 3.27036 8.25811 2.16694 7.27448 2.0128C6.30733 1.86031 4.98709 3.08984 3.31208 4.64495L3.04384 4.89333ZM6.73885 8.55581C6.94652 8.19479 7.31272 7.67385 7.8905 7.18479C7.90223 7.42163 7.94633 7.73265 8.0683 8.07994C7.5991 8.2404 7.1553 8.3992 6.73885 8.55581Z" fill="#0F0A0F" stroke="#0F0A0F" stroke-width="0.5"/>
</svg>
