<svg width="22" height="28" viewBox="0 0 22 28" fill="none" xmlns="http://www.w3.org/2000/svg">
<path d="M20.7053 3.7951L18.2027 1.29413C17.9879 1.0795 17.693 0.974364 17.3905 1.00532C17.0908 1.03587 16.8244 1.19772 16.6596 1.44927C15.6243 3.02708 13.3623 5.42454 11.7204 6.68454C11.4961 6.85671 11.3568 7.11777 11.3381 7.40105C11.3195 7.6875 11.4255 7.96838 11.6291 8.17191L11.8868 8.42939L8.89269 11.4216C8.54199 10.0808 7.32426 9.0872 5.87409 9.0872C4.15042 9.0872 2.7479 10.4889 2.7479 12.2114V15.5486C1.68338 16.4425 1 17.7751 1 19.2701V26.6953C1 26.8635 1.13655 27 1.30488 27H10.439C10.6073 27 10.7438 26.8635 10.7438 26.6953V19.266C10.7438 17.772 10.0634 16.4371 8.99992 15.5436V14.6698L13.5654 10.1069L13.8236 10.365C14.0114 10.553 14.2659 10.6574 14.5295 10.6574C14.5509 10.6574 14.5727 10.6566 14.5946 10.6554C14.878 10.6367 15.1392 10.4975 15.3115 10.2733C16.5743 8.63086 18.9733 6.37071 20.5505 5.3376C20.8021 5.17295 20.9637 4.90677 20.9947 4.6072C21.0256 4.30609 20.92 4.00973 20.7053 3.7951ZM3.3577 12.2114C3.3577 10.8248 4.48669 9.6965 5.87413 9.6965C7.17068 9.6965 8.23528 10.6834 8.3698 11.9441L6.65133 13.6615C4.41872 14.676 4.24733 14.6035 4.02855 15.0131C3.41148 16.1644 5.79088 18.6026 6.98288 17.9581C7.3963 17.7343 7.31873 17.5675 8.32821 15.3413L8.39016 15.2794V18.8071C8.39016 19.6874 7.67361 20.4035 6.79272 20.4035H4.9551C4.0742 20.4035 3.35766 19.6874 3.35766 18.8071V12.2114H3.3577ZM6.75467 14.2811L7.70939 15.2352C6.94109 16.7239 6.92723 17.5751 6.49385 17.4438C6.49267 17.4438 6.49186 17.4434 6.49109 17.443C4.96681 16.9955 4.41104 15.5886 4.56612 15.3007C4.63742 15.1666 4.56071 15.25 6.75467 14.2811ZM10.1341 19.266V26.3905H1.6098V19.27C1.6098 18.1548 2.0433 17.141 2.74794 16.3812V18.807C2.74794 20.0234 3.73798 21.0128 4.95514 21.0128H6.79276C8.00988 21.0128 8.99996 20.0234 8.99996 18.807V16.3855C9.70094 17.1445 10.1341 18.154 10.1341 19.266ZM8.0726 14.735L7.25601 13.9189L12.3171 8.86096L13.1337 9.67663L8.0726 14.735ZM20.2162 4.82816C18.5644 5.91006 16.1472 8.18609 14.828 9.90198C14.7617 9.98847 14.6645 10.04 14.5549 10.0472C14.4386 10.0559 14.3341 10.0131 14.2547 9.93412L12.0603 7.741C11.9809 7.66166 11.9396 7.55217 11.9467 7.44066C11.9539 7.33117 12.0055 7.23395 12.092 7.16769C13.8073 5.85135 16.0848 3.43565 17.1694 1.78326C17.2333 1.68604 17.3365 1.62335 17.4528 1.61145C17.4663 1.60987 17.4798 1.60946 17.4933 1.60946C17.5973 1.60946 17.697 1.65033 17.7716 1.72492L20.2742 4.22589C20.3587 4.31039 20.4004 4.42662 20.3881 4.54488C20.3762 4.66115 20.3135 4.7643 20.2162 4.82816Z" fill="#0F0A0F" stroke="#0F0A0F" stroke-width="0.2"/>
</svg>
