<svg width="9" height="9" viewBox="0 0 9 9" fill="none" xmlns="http://www.w3.org/2000/svg">
<path d="M1 6.9229H0.95V6.9729V7.28399V7.33399H1H1.66391V7.99949V8.04949H1.71391H2.02431H2.07431V7.99949V7.12844H2.075L2.07363 7.12024C2.05536 7.01034 1.97809 6.9229 1.86911 6.9229H1Z" fill="#0F0A0F" stroke="#0F0A0F" stroke-width="0.1"/>
<path d="M6.43242 0.95H6.38242V1V1.31109V1.36109H6.43242H7.33621L6.59074 2.10821C6.43772 2.05146 6.27192 2.02325 6.1065 2.02325C5.72162 2.02325 5.33614 2.16792 5.0468 2.4579L4.80283 2.70241L4.55887 2.4579C4.26953 2.16792 3.88404 2.02325 3.49916 2.02325C3.11428 2.02325 2.72879 2.16792 2.43946 2.4579C1.8461 3.05258 1.84531 4.00209 2.4397 4.58195C2.43978 4.58203 2.43986 4.58211 2.43994 4.58219L3.27333 5.41744L2.56275 6.1296H1.24878H1.19878V6.1796V6.49069V6.54069H1.24878H2.40755L2.45589 6.58914V7.73504V7.78504H2.50589H2.81629H2.86629V7.73504V6.41804L3.57676 5.70599L3.75864 5.88828C4.04798 6.17826 4.43347 6.32293 4.81835 6.32293C5.20323 6.32293 5.58872 6.17826 5.87806 5.88828L7.18173 4.58171C7.77508 3.98704 7.77587 3.03754 7.1815 2.45767C7.11909 2.39515 7.05614 2.34185 6.99261 2.2981L7.63953 1.64975V2.55544V2.60544H7.68953H7.99993H8.04993V2.55544V1.15554H8.05061L8.04925 1.14734C8.02996 1.03137 7.93272 0.95 7.82921 0.95H6.43242ZM4.5812 4.12222L3.56124 5.14444L2.72752 4.30887C2.29657 3.87696 2.29748 3.178 2.7269 2.76247L2.72752 2.76185C2.93606 2.55285 3.20293 2.43434 3.49916 2.43434C3.7954 2.43434 4.06226 2.55285 4.2708 2.76185L4.55016 3.04183C4.62131 3.11314 4.71152 3.14984 4.80283 3.14984C4.89415 3.14984 4.98436 3.11314 5.0555 3.04183L5.33486 2.76185C5.54341 2.55285 5.81027 2.43434 6.1065 2.43434C6.40274 2.43434 6.6696 2.55285 6.87814 2.76185L6.87812 2.76188L6.87947 2.76314C7.085 2.95441 7.18945 3.23583 7.18945 3.51981C7.18945 3.8168 7.07116 4.08431 6.86262 4.29332L5.55895 5.59989C5.35041 5.80889 5.08354 5.9274 4.78731 5.9274C4.49108 5.9274 4.22421 5.80889 4.01567 5.59989L3.84915 5.43299L4.86927 4.41061L4.9045 4.3753L4.86927 4.33998L4.65199 4.12222L4.61659 4.08675L4.5812 4.12222Z" fill="#0F0A0F" stroke="#0F0A0F" stroke-width="0.1"/>
</svg>
