<svg width="26" height="24" viewBox="0 0 26 24" fill="none" xmlns="http://www.w3.org/2000/svg">
<path d="M12.7998 4.39686L11.6526 3.21767C8.9598 0.449676 4.02222 1.40487 2.23982 4.88486C1.40303 6.52166 1.21423 8.88485 2.74222 11.9008C4.21422 14.8048 7.27661 18.2832 12.7998 22.072C18.323 18.2832 21.3838 14.8048 22.8574 11.9008C24.3854 8.88325 24.1982 6.52166 23.3598 4.88486C21.5774 1.40487 16.6398 0.448076 13.947 3.21607L12.7998 4.39686ZM12.7998 24C-11.7329 7.78885 5.24621 -4.86391 12.5182 1.82887C12.6142 1.91687 12.7086 2.00807 12.7998 2.10247C12.8901 2.00816 12.984 1.91742 13.0814 1.83047C20.3518 -4.86711 37.3325 7.78725 12.7998 24Z" fill="#0F0A0F"/>
</svg>
