<svg width="26" height="26" viewBox="0 0 26 26" fill="none" xmlns="http://www.w3.org/2000/svg">
<path d="M24.95 3.41074C24.4305 2.84125 23.7338 2.54317 23.3141 2.54317C22.9737 2.54317 22.8536 2.7179 22.8124 2.82229C22.6965 3.11487 22.9454 3.43327 23.1745 3.64893C23.1852 3.65909 23.1968 3.66843 23.2091 3.67695C23.8665 4.13518 23.6852 5.01814 23.6344 5.21649C23.1564 5.90879 22.2399 6.26702 21.3869 6.08735C20.1784 5.83351 19.7001 4.8143 19.1938 3.73546C18.6468 2.56982 18.0268 1.24896 16.3598 1.03303C15.0397 0.861055 13.9565 1.36709 13.3623 2.40004C12.7678 1.36682 11.6846 0.861605 10.3651 1.03303C8.69805 1.24896 8.07801 2.56982 7.53104 3.73546C7.02473 4.8143 6.54644 5.83351 5.33794 6.08735C4.48575 6.26647 3.56873 5.90906 3.09044 5.21676C3.03907 5.01622 2.85885 4.13463 3.51571 3.67695C3.5278 3.66843 3.53934 3.65909 3.55033 3.64893C3.77944 3.43327 4.02834 3.11487 3.91241 2.82229C3.8712 2.7179 3.75115 2.54317 3.41077 2.54317C2.99072 2.54317 2.29402 2.84125 1.7748 3.41074C1.36574 3.85936 0.90256 4.65633 1.01794 5.90494C1.15008 7.33486 2.01298 8.6321 3.28247 9.33401C3.67505 16.0345 5.62612 17.385 5.70991 17.4394C5.77859 17.4842 5.8621 17.4993 5.94232 17.4814C6.02227 17.4633 6.09177 17.4141 6.13463 17.3443L7.12527 15.7372C9.65903 22.1654 13.0304 24.8236 13.1766 24.9365C13.2312 24.9788 13.2969 25 13.3623 25C13.4279 25 13.4933 24.9788 13.548 24.9365C13.6944 24.8236 17.0655 22.1654 19.5993 15.7372L20.5899 17.3443C20.6328 17.4141 20.7023 17.4636 20.7822 17.4814C20.8622 17.4996 20.946 17.4842 21.0146 17.4394C21.0982 17.3847 23.0492 16.0345 23.4421 9.33401C24.7118 8.6321 25.5745 7.33514 25.7066 5.90494C25.8223 4.65633 25.3588 3.85964 24.95 3.41074ZM20.9083 16.7023L19.7943 14.8952C19.7333 14.7966 19.6221 14.74 19.5059 14.7521C19.3905 14.7636 19.2913 14.8394 19.2507 14.9485C17.0902 20.7413 14.1276 23.6225 13.3623 24.2984C12.5969 23.6225 9.63431 20.7413 7.47362 14.9488C7.43296 14.84 7.33406 14.7639 7.2184 14.7523C7.10385 14.7408 6.99094 14.7966 6.92995 14.8955L5.8165 16.702C5.33299 16.1259 4.22751 14.3199 3.90856 9.62137C4.53657 9.85571 5.18547 9.95186 5.82145 9.95186C7.35027 9.95158 8.80382 9.41121 9.70903 8.98704C11.5238 8.13623 12.7488 7.12195 13.3623 5.96455C13.976 7.12195 15.2007 8.13595 17.0155 8.98676C18.2971 9.58731 20.6778 10.4192 22.8157 9.62164C22.4965 14.3251 21.3891 16.1298 20.9083 16.7023ZM25.1014 5.84917C24.983 7.1302 24.1827 8.29007 23.0132 8.87578C20.9935 9.88703 18.5501 9.03457 17.2738 8.43622C15.2644 7.49448 14.0463 6.36785 13.6529 5.08792C13.6136 4.96017 13.4958 4.87309 13.3625 4.87309C13.229 4.87309 13.1112 4.96017 13.0719 5.08792C12.6788 6.36785 11.4604 7.49448 9.45107 8.43622C8.17471 9.03484 5.73134 9.88758 3.71131 8.87578C2.54155 8.29007 1.74156 7.1302 1.62315 5.84917C1.54678 5.02363 1.74898 4.34123 2.22397 3.82035C2.52479 3.49069 2.86572 3.30498 3.11517 3.21652C2.08771 3.98821 2.50254 5.37528 2.52067 5.43489C2.52919 5.46209 2.54127 5.48791 2.55693 5.51154C3.16132 6.43295 4.35636 6.91536 5.46321 6.68185C6.96841 6.36592 7.55988 5.1055 8.08158 3.99343C8.60877 2.87009 9.10684 1.80884 10.4434 1.63549C11.6862 1.47396 12.6307 2.02065 13.0345 3.13437C13.0406 3.15113 13.0433 3.16899 13.0472 3.1863C13.0543 3.21954 13.0617 3.2525 13.0716 3.2852C13.1106 3.41294 13.2285 3.50003 13.362 3.50003H13.3623C13.4958 3.50003 13.6134 3.41294 13.6527 3.28547C13.6628 3.2525 13.6705 3.21926 13.6774 3.18547C13.681 3.16817 13.6837 3.15058 13.6897 3.1341C14.0933 2.02038 15.0394 1.47423 16.2809 1.63522C17.6174 1.80829 18.1155 2.86954 18.643 3.99315C19.1649 5.10523 19.7564 6.36565 21.2613 6.68158C22.3685 6.91482 23.5632 6.43295 24.1676 5.51126C24.1833 5.48764 24.1954 5.46154 24.2039 5.43462C24.2223 5.375 24.6368 3.98793 23.6094 3.21624C23.8588 3.30443 24.1998 3.49041 24.5006 3.82008C24.9756 4.3415 25.1778 5.02391 25.1014 5.84917Z" fill="#0F0A0F" stroke="#0F0A0F" stroke-width="0.2"/>
</svg>
