<svg width="28" height="24" viewBox="0 0 28 24" fill="none" xmlns="http://www.w3.org/2000/svg">
<path d="M27.9225 5.19771C27.982 5.10835 28.0085 5.00143 27.9976 4.89498C27.9866 4.78854 27.9389 4.68909 27.8624 4.61343L26.1862 2.95539C25.0225 1.80479 23.5946 0.94953 22.0244 0.46253C20.4542 -0.0244699 18.7882 -0.128771 17.1685 0.158519L1.56782 2.92796C1.19404 2.99429 0.848848 3.16963 0.576606 3.43145C0.304364 3.69327 0.117506 4.02961 0.0400397 4.39725C-0.0374264 4.7649 -0.0019613 5.14705 0.141878 5.49461C0.285718 5.84217 0.531361 6.13925 0.847245 6.3477L0.91211 6.39046C1.12437 6.52965 1.36257 6.62555 1.61277 6.67256C1.86298 6.71958 2.12015 6.71675 2.36924 6.66424L17.0585 3.52341C19.4353 3.01525 21.9114 3.22082 24.1693 4.11374L27.3542 5.37388C27.455 5.41393 27.5666 5.41827 27.6702 5.38616C27.7738 5.35404 27.8629 5.28746 27.9225 5.19771ZM24.5218 3.25055C22.0891 2.28783 19.421 2.06638 16.8601 2.61467L2.17229 5.75551C2.04604 5.78239 1.91561 5.78389 1.78875 5.75994C1.6619 5.73598 1.54121 5.68705 1.43386 5.61606L1.36946 5.57329C1.20945 5.46789 1.08498 5.31756 1.01207 5.14163C0.93915 4.96571 0.921118 4.77223 0.96029 4.58609C0.999462 4.39995 1.09405 4.22966 1.23188 4.0971C1.36971 3.96455 1.54449 3.8758 1.73374 3.84228L17.3349 1.07376C18.8053 0.812879 20.3178 0.907512 21.7433 1.34959C23.1688 1.79167 24.4651 2.56809 25.5216 3.61265L25.5789 3.66983L24.5218 3.25055Z" fill="#0F0A0F"/>
<path d="M22.3596 24H25.1798C25.3045 24 25.4241 23.951 25.5122 23.8639C25.6004 23.7767 25.6499 23.6585 25.6499 23.5352V6.33658C25.6499 6.2502 25.6256 6.16552 25.5797 6.09203C25.5338 6.01855 25.4681 5.95917 25.3899 5.92056L22.5697 4.52607C22.498 4.49065 22.4184 4.47394 22.3383 4.47753C22.2583 4.48111 22.1805 4.50487 22.1123 4.54656C22.0442 4.58824 21.9879 4.64646 21.949 4.71569C21.91 4.78492 21.8895 4.86285 21.8896 4.94209V10.348L20.4174 12.047C19.6438 12.9409 18.6966 13.6721 17.6319 14.1973L17.552 14.2368C16.3122 14.8472 14.9463 15.1654 13.5614 15.1664H12.1329C10.7475 15.1662 9.38109 14.8471 8.14193 14.2344C6.90277 13.6216 5.82484 12.7321 4.99347 11.6361L4.78007 11.3567C4.47271 10.9535 4.07511 10.6262 3.61844 10.4004C3.16176 10.1746 2.65842 10.0565 2.14784 10.0552V10.9849C2.51254 10.9857 2.87207 11.0701 3.19827 11.2314C3.52446 11.3927 3.80846 11.6265 4.02801 11.9145L4.2414 12.1934C4.29922 12.2701 4.36314 12.3408 4.42331 12.4151L4.27243 12.7135C4.09034 13.0765 3.8372 13.4001 3.52769 13.6656C3.21817 13.931 2.85844 14.1331 2.46935 14.26L2.76642 15.1432C3.77421 14.8138 4.60995 14.1046 5.09218 13.1695C5.48157 13.5659 5.90459 13.9286 6.35659 14.2535C6.0591 15.339 5.48 16.3287 4.67666 17.1248L4.63671 17.1638L5.29947 17.8229L5.34036 17.783C6.18988 16.9418 6.82149 15.9103 7.18151 14.776C7.66951 15.0548 8.18074 15.2918 8.70961 15.4844C8.66738 16.5264 8.4041 17.5481 7.93686 18.483L7.83769 18.6791L8.67906 19.0947L8.77777 18.8985C9.26843 17.9235 9.56235 16.8634 9.64311 15.7772C10.3991 15.9725 11.1759 16.0778 11.9571 16.091L11.5524 19.2941L12.485 19.4094L12.9038 16.098H13.5618C13.8481 16.098 14.1343 16.0812 14.4192 16.0566L14.8422 19.4094L15.7748 19.2941L15.3518 15.9329C15.8713 15.838 16.3824 15.7025 16.8803 15.5276C17.1129 16.6535 17.5642 17.7242 18.2091 18.6801L18.9913 18.1641C18.4038 17.2945 17.9951 16.319 17.7884 15.2933L17.7626 15.165C17.8326 15.1325 17.9036 15.1023 17.9736 15.0684L18.0536 15.0289C18.4544 14.8262 18.8409 14.5968 19.2103 14.3423C19.5331 15.4092 20.2221 16.3312 21.1586 16.9495L21.6804 16.176C20.8697 15.6423 20.2898 14.8283 20.0545 13.8937L20.0141 13.7352C20.4148 13.4038 20.7884 13.0415 21.1314 12.6517L21.8896 11.7751V23.5352C21.8896 23.6585 21.9391 23.7767 22.0272 23.8639C22.1154 23.951 22.2349 24 22.3596 24ZM22.8296 23.0704V10.0552H24.7098V23.0704H22.8296ZM22.8296 8.19589H24.7098V9.12554H22.8296V8.19589ZM24.7098 6.62384V7.26623H22.8296V5.69419L24.7098 6.62384Z" fill="#0F0A0F"/>
</svg>
