<svg width="26" height="20" viewBox="0 0 26 20" fill="none" xmlns="http://www.w3.org/2000/svg">
<path d="M22.0793 18.5206C21.5801 18.5071 21.0949 18.3518 20.6801 18.0727C18.9713 17.0033 17.3681 14.1082 16.6001 10.6953C15.4937 5.81327 16.3601 1.57908 18.5849 1.06124C18.904 0.995785 19.2331 0.996193 19.552 1.06244C19.871 1.1287 20.1731 1.2594 20.4401 1.44661C22.1489 2.51599 23.7522 5.41104 24.5202 8.82392C25.6266 13.7036 24.7602 17.9402 22.5329 18.458C22.3847 18.4964 22.2325 18.5174 22.0793 18.5206ZM18.6953 1.52127C16.8017 1.96926 16.0553 6.12156 17.0681 10.5894C17.8145 13.8818 19.3361 16.6589 20.9417 17.6632C21.1546 17.8165 21.3961 17.9252 21.6518 17.9827C21.9074 18.0403 22.172 18.0454 22.4297 17.998C24.3234 17.5476 25.0698 13.3953 24.057 8.9299C23.3202 5.63744 21.7889 2.86041 20.1833 1.85606C19.9705 1.70273 19.729 1.59406 19.4733 1.53654C19.2176 1.47902 18.953 1.47382 18.6953 1.52127Z" fill="#0F0A0F" stroke="#0F0A0F" stroke-width="0.3"/>
<path d="M20.0393 18.9973C19.5428 18.9832 19.0603 18.8287 18.6473 18.5518C16.9385 17.4824 15.3353 14.5849 14.5673 11.1744C13.4609 6.29236 14.3273 2.05817 16.5521 1.54034L18.5945 1.05863C18.626 1.05152 18.6587 1.0507 18.6905 1.05623C18.7223 1.06176 18.7528 1.07353 18.7801 1.09086C18.8074 1.10819 18.831 1.13075 18.8496 1.15725C18.8682 1.18375 18.8814 1.21367 18.8885 1.24529C18.8956 1.27692 18.8964 1.30964 18.8909 1.34159C18.8854 1.37353 18.8737 1.40408 18.8564 1.43148C18.8391 1.45887 18.8167 1.48259 18.7903 1.50127C18.7639 1.51995 18.734 1.53322 18.7025 1.54034L16.6625 2.02204C14.7689 2.47003 14.0225 6.62233 15.0353 11.0877C15.7817 14.3826 17.3033 17.1596 18.9089 18.164C19.1216 18.3176 19.3631 18.4263 19.6189 18.4835C19.8747 18.5406 20.1394 18.545 20.3969 18.4964L22.437 18.0147C22.4686 18.0041 22.5022 18.0003 22.5354 18.0035C22.5686 18.0067 22.6008 18.0168 22.6299 18.0332C22.659 18.0496 22.6844 18.0719 22.7045 18.0987C22.7245 18.1255 22.7387 18.1562 22.7463 18.1889C22.7538 18.2215 22.7545 18.2553 22.7483 18.2882C22.742 18.3212 22.729 18.3524 22.7101 18.38C22.6911 18.4076 22.6667 18.4309 22.6382 18.4484C22.6098 18.466 22.578 18.4774 22.545 18.4819L20.5049 18.9636C20.3516 18.9933 20.1953 19.0046 20.0393 18.9973Z" fill="#0F0A0F" stroke="#0F0A0F" stroke-width="0.3"/>
<path d="M9.61126 8.95889C7.86811 8.97066 6.12627 8.86041 4.39842 8.62892H4.38162C1.9312 8.26041 1.6456 7.7763 1.6456 7.44392C1.6456 7.11155 1.9144 6.65152 4.22562 6.28542C4.25683 6.28027 4.28875 6.28136 4.31954 6.28863C4.35033 6.2959 4.37939 6.3092 4.40504 6.32778C4.43069 6.34636 4.45243 6.36984 4.469 6.39688C4.48558 6.42392 4.49666 6.45398 4.50162 6.48533C4.5113 6.54822 4.49578 6.6124 4.45845 6.66385C4.42113 6.7153 4.36503 6.74983 4.30242 6.7599C2.2864 7.08024 2.128 7.44633 2.1256 7.44874C2.1592 7.54508 2.63681 7.87987 4.44162 8.14962H4.45602C6.1646 8.38046 7.8873 8.48992 9.61126 8.47718C11.196 8.48599 12.7799 8.3967 14.3537 8.20983C14.3851 8.20579 14.4169 8.20801 14.4474 8.21636C14.478 8.22471 14.5065 8.23904 14.5315 8.25851C14.5565 8.27799 14.5774 8.30222 14.593 8.32983C14.6086 8.35744 14.6186 8.38787 14.6225 8.41938C14.6299 8.48258 14.6122 8.54618 14.573 8.59628C14.5339 8.64637 14.4766 8.67889 14.4137 8.68672C12.82 8.87643 11.2161 8.96733 9.61126 8.95889Z" fill="#0F0A0F" stroke="#0F0A0F" stroke-width="0.3"/>
<path d="M9.61126 11.0977C6.19604 11.0977 3.13121 10.7557 1.79921 10.2282C1.456 10.0957 1 9.86933 1 9.47433C1 9.07934 1.4584 8.85293 1.80161 8.71806C1.83122 8.70488 1.86318 8.69786 1.89557 8.69741C1.92796 8.69696 1.9601 8.7031 1.99007 8.71545C2.02003 8.7278 2.04719 8.74611 2.06992 8.76928C2.09264 8.79244 2.11046 8.81999 2.12229 8.85025C2.13413 8.88051 2.13973 8.91286 2.13878 8.94535C2.13782 8.97784 2.13032 9.00981 2.11673 9.03931C2.10313 9.06882 2.08373 9.09526 2.05968 9.11704C2.03564 9.13882 2.00744 9.15549 1.97681 9.16604C1.5112 9.34909 1.48 9.47433 1.48 9.47433C1.48 9.47433 1.5136 9.59958 1.97681 9.78022C3.25602 10.2884 6.25364 10.616 9.61366 10.616C11.2979 10.6274 12.9812 10.5333 14.6537 10.3342C14.7173 10.3262 14.7816 10.3439 14.8322 10.3834C14.8828 10.423 14.9157 10.481 14.9237 10.5449C14.9317 10.6088 14.914 10.6732 14.8746 10.7241C14.8352 10.7749 14.7773 10.8079 14.7137 10.8159C13.0204 11.0164 11.3163 11.1105 9.61126 11.0977Z" fill="#0F0A0F" stroke="#0F0A0F" stroke-width="0.3"/>
<path d="M9.61126 19C6.18884 19 3.11441 18.5737 1.78001 17.9162C1.2544 17.6657 1 17.3791 1 17.0443C1 16.9804 1.02529 16.9192 1.07029 16.874C1.1153 16.8288 1.17635 16.8035 1.24 16.8035C1.30365 16.8035 1.3647 16.8288 1.40971 16.874C1.45472 16.9192 1.48 16.9804 1.48 17.0443C1.48 17.0901 1.516 17.2563 1.99361 17.4827C3.26802 18.1113 6.25844 18.5183 9.61366 18.5183C13.8713 18.5183 16.8473 17.8897 17.5889 17.2683C17.6132 17.2481 17.6412 17.2328 17.6713 17.2234C17.7015 17.2141 17.7332 17.2107 17.7646 17.2136C17.796 17.2165 17.8265 17.2256 17.8545 17.2404C17.8824 17.2551 17.9071 17.2753 17.9273 17.2996C17.9475 17.324 17.9627 17.3521 17.972 17.3823C17.9814 17.4126 17.9847 17.4444 17.9818 17.4759C17.9789 17.5074 17.9699 17.5381 17.9551 17.5661C17.9404 17.5941 17.9204 17.619 17.8961 17.6392C16.9217 18.4533 13.5929 19 9.61126 19Z" fill="#0F0A0F" stroke="#0F0A0F" stroke-width="0.3"/>
<path d="M4.42244 8.62892C4.35878 8.62892 4.29774 8.60355 4.25273 8.55838C4.20772 8.51321 4.18243 8.45195 4.18243 8.38807C4.18243 8.32419 4.20772 8.26293 4.25273 8.21776C4.29774 8.17259 4.35878 8.14722 4.42244 8.14722C4.48609 8.14722 4.54713 8.17259 4.59214 8.21776C4.63715 8.26293 4.66244 8.32419 4.66244 8.38807C4.66244 8.45195 4.63715 8.51321 4.59214 8.55838C4.54713 8.60355 4.48609 8.62892 4.42244 8.62892Z" fill="#0F0A0F" stroke="#0F0A0F" stroke-width="0.3"/>
<path d="M1.8856 10.2401C1.82195 10.2401 1.7609 10.2147 1.71589 10.1696C1.67089 10.1244 1.6456 10.0631 1.6456 9.99927V7.44141C1.6456 7.37754 1.67089 7.31627 1.71589 7.27111C1.7609 7.22594 1.82195 7.20056 1.8856 7.20056C1.94925 7.20056 2.0103 7.22594 2.05531 7.27111C2.10032 7.31627 2.1256 7.37754 2.1256 7.44141V9.99927C2.1256 10.0631 2.10032 10.1244 2.05531 10.1696C2.0103 10.2147 1.94925 10.2401 1.8856 10.2401Z" fill="#0F0A0F" stroke="#0F0A0F" stroke-width="0.3"/>
<path d="M1.24 17.025C1.17635 17.025 1.1153 16.9996 1.07029 16.9544C1.02529 16.9093 1 16.848 1 16.7841V9.47425C1 9.41037 1.02529 9.34911 1.07029 9.30394C1.1153 9.25877 1.17635 9.2334 1.24 9.2334C1.30365 9.2334 1.3647 9.25877 1.40971 9.30394C1.45472 9.34911 1.48 9.41037 1.48 9.47425V16.7841C1.48 16.848 1.45472 16.9093 1.40971 16.9544C1.3647 16.9996 1.30365 17.025 1.24 17.025Z" fill="#0F0A0F" stroke="#0F0A0F" stroke-width="0.3"/>
<path d="M5.02243 8.71079C4.98101 8.71103 4.94024 8.70051 4.90407 8.68026C4.8679 8.66 4.83757 8.63069 4.81603 8.59518C2.51202 4.83788 5.46164 1.12875 5.49284 1.08781C5.52223 1.05196 5.56132 1.02541 5.6054 1.01133C5.64948 0.997261 5.69668 0.996272 5.7413 1.00849C5.78593 1.0207 5.82609 1.0456 5.85695 1.08018C5.88781 1.11476 5.90805 1.15756 5.91524 1.20342C6.13844 2.64853 6.69765 3.63844 7.57605 4.14423C8.90086 4.90773 10.5713 4.33932 10.7897 4.25984C13.0001 2.74728 14.8241 3.58786 14.9009 3.62398C14.9585 3.65145 15.0029 3.70076 15.0243 3.76106C15.0456 3.82136 15.0423 3.88771 15.0149 3.94552C14.9875 4.00333 14.9384 4.04786 14.8783 4.06932C14.8182 4.09077 14.7521 4.0874 14.6945 4.05993C14.6225 4.02621 13.0145 3.30365 11.0369 4.6741L10.9889 4.7006C10.9073 4.73191 8.95606 5.49059 7.34085 4.56331C6.45284 4.05511 5.85284 3.14228 5.55044 1.8489C4.89043 2.89902 3.55362 5.61824 5.22644 8.35192C5.24916 8.38841 5.26173 8.43035 5.26284 8.47337C5.26394 8.51639 5.25354 8.55892 5.23271 8.59654C5.21189 8.63416 5.1814 8.66549 5.14442 8.68728C5.10744 8.70907 5.06532 8.72051 5.02243 8.72042V8.71079Z" fill="#0F0A0F" stroke="#0F0A0F" stroke-width="0.3"/>
</svg>
