<svg width="34" height="34" viewBox="0 0 34 34" fill="none" xmlns="http://www.w3.org/2000/svg">
<path d="M29.6704 5.13562L5.3868 15.1266C5.23137 15.1905 5.21935 15.406 5.36671 15.4869L11.8419 19.039C11.9052 19.0737 11.9824 19.0716 12.0438 19.0334L23.2413 12.0607C23.4442 11.9343 23.6578 12.206 23.487 12.3733L15.1295 20.5602C15.0911 20.5978 15.0694 20.6493 15.0694 20.7031V28.3664C15.0694 28.5618 15.321 28.6412 15.4332 28.4812L18.4309 24.2055C18.4927 24.1174 18.6132 24.094 18.7035 24.1525L25.9226 28.8327C26.0439 28.9114 26.2061 28.8392 26.2289 28.6964L29.944 5.35201C29.9685 5.1978 29.8148 5.07621 29.6704 5.13562Z" stroke="#5D4382"/>
</svg>
