<svg width="28" height="28" viewBox="0 0 28 28" fill="none" xmlns="http://www.w3.org/2000/svg">
<path d="M23.0794 22.5206C22.5801 22.5071 22.095 22.3518 21.6802 22.0727C19.9714 21.0033 18.3681 18.1082 17.6001 14.6953C16.4937 9.81327 17.3601 5.57908 19.585 5.06124C19.9041 4.99578 20.2331 4.99619 20.5521 5.06244C20.871 5.1287 21.1732 5.2594 21.4402 5.44661C23.149 6.51599 24.7522 9.41104 25.5202 12.8239C26.6266 17.7036 25.7602 21.9402 23.533 22.458C23.3847 22.4964 23.2325 22.5174 23.0794 22.5206ZM19.6954 5.52127C17.8017 5.96926 17.0553 10.1216 18.0681 14.5894C18.8145 17.8818 20.3362 20.6589 21.9418 21.6632C22.1546 21.8165 22.3961 21.9252 22.6518 21.9827C22.9075 22.0403 23.1721 22.0454 23.4298 21.998C25.3234 21.5476 26.0698 17.3953 25.057 12.9299C24.3202 9.63744 22.789 6.86041 21.1834 5.85606C20.9705 5.70273 20.729 5.59406 20.4733 5.53654C20.2177 5.47902 19.9531 5.47382 19.6954 5.52127Z" fill="#0F0A0F" stroke="#0F0A0F" stroke-width="0.3"/>
<path d="M21.0393 22.9973C20.5428 22.9832 20.0603 22.8287 19.6473 22.5518C17.9385 21.4824 16.3353 18.5849 15.5673 15.1744C14.4609 10.2924 15.3273 6.05817 17.5521 5.54034L19.5945 5.05863C19.626 5.05152 19.6587 5.0507 19.6905 5.05623C19.7223 5.06176 19.7528 5.07353 19.7801 5.09086C19.8074 5.10819 19.831 5.13075 19.8496 5.15725C19.8682 5.18375 19.8814 5.21367 19.8885 5.24529C19.8956 5.27692 19.8964 5.30964 19.8909 5.34159C19.8854 5.37353 19.8737 5.40408 19.8564 5.43148C19.8391 5.45887 19.8167 5.48259 19.7903 5.50127C19.7639 5.51995 19.734 5.53322 19.7025 5.54034L17.6625 6.02204C15.7689 6.47003 15.0225 10.6223 16.0353 15.0877C16.7817 18.3826 18.3033 21.1596 19.9089 22.164C20.1216 22.3176 20.3631 22.4263 20.6189 22.4835C20.8747 22.5406 21.1394 22.545 21.3969 22.4964L23.437 22.0147C23.4686 22.0041 23.5022 22.0003 23.5354 22.0035C23.5686 22.0067 23.6008 22.0168 23.6299 22.0332C23.659 22.0496 23.6844 22.0719 23.7045 22.0987C23.7245 22.1255 23.7387 22.1562 23.7463 22.1889C23.7538 22.2215 23.7545 22.2553 23.7483 22.2882C23.742 22.3212 23.729 22.3524 23.7101 22.38C23.6911 22.4076 23.6667 22.4309 23.6382 22.4484C23.6098 22.466 23.578 22.4774 23.545 22.4819L21.5049 22.9636C21.3516 22.9933 21.1953 23.0046 21.0393 22.9973Z" fill="#0F0A0F" stroke="#0F0A0F" stroke-width="0.3"/>
<path d="M10.6113 12.9589C8.86814 12.9707 7.1263 12.8604 5.39845 12.6289H5.38165C2.93123 12.2604 2.64563 11.7763 2.64563 11.4439C2.64563 11.1115 2.91443 10.6515 5.22565 10.2854C5.25686 10.2803 5.28878 10.2814 5.31957 10.2886C5.35036 10.2959 5.37942 10.3092 5.40507 10.3278C5.43072 10.3464 5.45246 10.3698 5.46903 10.3969C5.48561 10.4239 5.49669 10.454 5.50165 10.4853C5.51133 10.5482 5.49581 10.6124 5.45848 10.6638C5.42116 10.7153 5.36506 10.7498 5.30245 10.7599C3.28643 11.0802 3.12803 11.4463 3.12563 11.4487C3.15923 11.5451 3.63684 11.8799 5.44165 12.1496H5.45605C7.16463 12.3805 8.88733 12.4899 10.6113 12.4772C12.1961 12.486 13.7799 12.3967 15.3537 12.2098C15.3851 12.2058 15.417 12.208 15.4475 12.2164C15.478 12.2247 15.5066 12.239 15.5315 12.2585C15.5565 12.278 15.5774 12.3022 15.593 12.3298C15.6086 12.3574 15.6187 12.3879 15.6225 12.4194C15.63 12.4826 15.6122 12.5462 15.5731 12.5963C15.534 12.6464 15.4767 12.6789 15.4137 12.6867C13.82 12.8764 12.2162 12.9673 10.6113 12.9589Z" fill="#0F0A0F" stroke="#0F0A0F" stroke-width="0.3"/>
<path d="M10.6113 15.0977C7.19604 15.0977 4.13121 14.7557 2.79921 14.2282C2.456 14.0957 2 13.8693 2 13.4743C2 13.0793 2.4584 12.8529 2.80161 12.7181C2.83122 12.7049 2.86318 12.6979 2.89557 12.6974C2.92796 12.697 2.9601 12.7031 2.99007 12.7154C3.02003 12.7278 3.04719 12.7461 3.06992 12.7693C3.09264 12.7924 3.11046 12.82 3.12229 12.8502C3.13413 12.8805 3.13973 12.9129 3.13878 12.9454C3.13782 12.9778 3.13032 13.0098 3.11673 13.0393C3.10313 13.0688 3.08373 13.0953 3.05968 13.117C3.03564 13.1388 3.00744 13.1555 2.97681 13.166C2.5112 13.3491 2.48 13.4743 2.48 13.4743C2.48 13.4743 2.5136 13.5996 2.97681 13.7802C4.25602 14.2884 7.25364 14.616 10.6137 14.616C12.2979 14.6274 13.9812 14.5333 15.6537 14.3342C15.7173 14.3262 15.7816 14.3439 15.8322 14.3834C15.8828 14.423 15.9157 14.481 15.9237 14.5449C15.9317 14.6088 15.914 14.6732 15.8746 14.7241C15.8352 14.7749 15.7773 14.8079 15.7137 14.8159C14.0204 15.0164 12.3163 15.1105 10.6113 15.0977Z" fill="#0F0A0F" stroke="#0F0A0F" stroke-width="0.3"/>
<path d="M10.6113 23C7.18884 23 4.11441 22.5737 2.78001 21.9162C2.2544 21.6657 2 21.3791 2 21.0443C2 20.9804 2.02529 20.9192 2.07029 20.874C2.1153 20.8288 2.17635 20.8035 2.24 20.8035C2.30365 20.8035 2.3647 20.8288 2.40971 20.874C2.45472 20.9192 2.48 20.9804 2.48 21.0443C2.48 21.0901 2.516 21.2563 2.99361 21.4827C4.26802 22.1113 7.25844 22.5183 10.6137 22.5183C14.8713 22.5183 17.8473 21.8897 18.5889 21.2683C18.6132 21.2481 18.6412 21.2328 18.6713 21.2234C18.7015 21.2141 18.7332 21.2107 18.7646 21.2136C18.796 21.2165 18.8265 21.2256 18.8545 21.2404C18.8824 21.2551 18.9071 21.2753 18.9273 21.2996C18.9475 21.324 18.9627 21.3521 18.972 21.3823C18.9814 21.4126 18.9847 21.4444 18.9818 21.4759C18.9789 21.5074 18.9699 21.5381 18.9551 21.5661C18.9404 21.5941 18.9204 21.619 18.8961 21.6392C17.9217 22.4533 14.5929 23 10.6113 23Z" fill="#0F0A0F" stroke="#0F0A0F" stroke-width="0.3"/>
<path d="M5.42237 12.6289C5.35872 12.6289 5.29768 12.6035 5.25267 12.5584C5.20766 12.5132 5.18237 12.4519 5.18237 12.3881C5.18237 12.3242 5.20766 12.2629 5.25267 12.2178C5.29768 12.1726 5.35872 12.1472 5.42237 12.1472C5.48603 12.1472 5.54707 12.1726 5.59208 12.2178C5.63709 12.2629 5.66238 12.3242 5.66238 12.3881C5.66238 12.4519 5.63709 12.5132 5.59208 12.5584C5.54707 12.6035 5.48603 12.6289 5.42237 12.6289Z" fill="#0F0A0F" stroke="#0F0A0F" stroke-width="0.3"/>
<path d="M2.88563 14.2401C2.82198 14.2401 2.76093 14.2147 2.71592 14.1696C2.67092 14.1244 2.64563 14.0631 2.64563 13.9993V11.4414C2.64563 11.3775 2.67092 11.3163 2.71592 11.2711C2.76093 11.2259 2.82198 11.2006 2.88563 11.2006C2.94928 11.2006 3.01033 11.2259 3.05534 11.2711C3.10035 11.3163 3.12563 11.3775 3.12563 11.4414V13.9993C3.12563 14.0631 3.10035 14.1244 3.05534 14.1696C3.01033 14.2147 2.94928 14.2401 2.88563 14.2401Z" fill="#0F0A0F" stroke="#0F0A0F" stroke-width="0.3"/>
<path d="M2.24 21.025C2.17635 21.025 2.1153 20.9996 2.07029 20.9544C2.02529 20.9093 2 20.848 2 20.7841V13.4743C2 13.4104 2.02529 13.3491 2.07029 13.3039C2.1153 13.2588 2.17635 13.2334 2.24 13.2334C2.30365 13.2334 2.3647 13.2588 2.40971 13.3039C2.45472 13.3491 2.48 13.4104 2.48 13.4743V20.7841C2.48 20.848 2.45472 20.9093 2.40971 20.9544C2.3647 20.9996 2.30365 21.025 2.24 21.025Z" fill="#0F0A0F" stroke="#0F0A0F" stroke-width="0.3"/>
<path d="M6.0224 12.7108C5.98098 12.711 5.94021 12.7005 5.90404 12.6803C5.86787 12.66 5.83754 12.6307 5.816 12.5952C3.51199 8.83788 6.46161 5.12875 6.49281 5.08781C6.5222 5.05196 6.56129 5.02541 6.60537 5.01133C6.64945 4.99726 6.69665 4.99627 6.74127 5.00849C6.7859 5.0207 6.82606 5.0456 6.85692 5.08018C6.88778 5.11476 6.90802 5.15756 6.91521 5.20342C7.13841 6.64853 7.69762 7.63844 8.57602 8.14423C9.90083 8.90773 11.5712 8.33932 11.7896 8.25984C14.0001 6.74728 15.8241 7.58786 15.9009 7.62398C15.9585 7.65145 16.0029 7.70076 16.0242 7.76106C16.0456 7.82136 16.0422 7.88771 16.0149 7.94552C15.9875 8.00333 15.9384 8.04786 15.8783 8.06932C15.8182 8.09077 15.7521 8.0874 15.6945 8.05993C15.6225 8.02621 14.0145 7.30365 12.0368 8.6741L11.9888 8.7006C11.9072 8.73191 9.95603 9.49059 8.34082 8.56331C7.45281 8.05511 6.85281 7.14228 6.55041 5.8489C5.8904 6.89902 4.55359 9.61824 6.22641 12.3519C6.24913 12.3884 6.2617 12.4304 6.26281 12.4734C6.26391 12.5164 6.25351 12.5589 6.23268 12.5965C6.21186 12.6342 6.18137 12.6655 6.14439 12.6873C6.10741 12.7091 6.06529 12.7205 6.0224 12.7204V12.7108Z" fill="#0F0A0F" stroke="#0F0A0F" stroke-width="0.3"/>
</svg>
