<svg width="24" height="21" viewBox="0 0 24 21" fill="none" xmlns="http://www.w3.org/2000/svg">
<path d="M10.4385 8.31282C9.58235 7.9975 8.96573 7.45762 8.66431 7.15334C9.03866 5.8278 8.16523 3.99631 8.12714 3.91821L7.44479 4.25562C8.24481 5.91283 8.4238 7.75646 6.53505 7.75646C4.74185 7.75646 2.76248 8.40182 2.42944 10.1761L2.43964 10.178C2.32544 11.2997 3.34775 14.1399 4.96637 15.5979C5.20985 16.239 5.46884 17.4654 4.76175 18.9567L5.44689 19.2888C6.00745 18.1065 6.0458 17.0587 5.92283 16.267C6.37608 16.4964 6.84052 16.6143 7.31199 16.6143C7.79037 16.6143 8.26158 16.4928 8.72121 16.2566C8.4124 18.0316 9.16033 19.2669 9.19842 19.3278L9.84146 18.9188C9.80522 18.86 8.9791 17.472 9.695 15.5635C10.9959 14.3742 12.0189 12.253 12.1953 10.3579L12.1969 10.3358L12.1952 10.3178H12.1969C12.1732 10.2794 12.0528 8.90609 10.4385 8.31282ZM9.1183 15.0573C7.94222 16.0962 6.71051 16.1048 5.53536 15.0835C4.35891 14.0653 3.37405 12.075 3.19359 10.3508C3.16008 10.0281 3.52522 9.51015 3.89982 9.22207C5.41199 8.07554 7.31136 9.00356 8.29481 7.85918C9.92389 9.36485 11.0297 8.85828 11.4319 10.3557C11.2521 12.0651 10.287 14.0315 9.1183 15.0573Z" fill="#0F0A0F"/>
<path d="M14.0946 7.73678C14.0795 7.34986 14.0476 6.97864 13.9983 6.62391C16.2044 8.44534 19.2234 9.57448 22.4802 9.57448C22.9602 9.57448 23.4584 9.55124 23.9733 9.501L23.9006 8.73695C22.3336 8.89017 20.9346 8.77226 19.7092 8.50625L20.2453 7.56463C20.9887 6.17743 20.6435 7.57508 20.3815 3.32531L21.9468 0.575334C22.0514 0.391257 21.9887 0.156569 21.807 0.0508463C21.6252 -0.0541263 21.393 0.00848233 21.288 0.192184L19.7227 2.94216C16.1156 4.65274 16.7914 4.07226 16.1659 5.19155C16.1657 5.19183 16.1655 5.19197 16.1655 5.19197L15.3626 6.60226C15.3527 6.61958 15.3515 6.63865 15.3446 6.65671C14.4417 6.05139 13.8908 5.50902 13.7176 5.32787C12.8226 2.3378 10.2453 0.985537 7.91532 1.23816C4.69646 1.49459 2.42406 2.73664 1.16155 4.92982C-2.03395 10.4802 2.35691 20.0946 2.54535 20.501L3.23345 20.1756C3.18894 20.0796 -1.17762 10.5174 1.81868 5.31485C2.94857 3.35336 5.01973 2.23915 7.98432 2.00296C8.00676 1.99921 10.2653 1.79002 11.8191 3.43471C12.653 4.31728 13.1441 5.56519 13.2946 7.15836C11.9964 6.15758 11.2696 5.29432 11.2507 5.27136L10.6666 5.76248C10.6889 5.78957 11.6475 6.93178 13.3433 8.14358C13.35 8.9326 13.2879 9.79066 13.1514 10.7217C12.8468 12.799 12.8767 14.78 13.24 16.6091C13.8183 19.5229 14.9212 21 16.5181 21V20.2322C15.0436 20.2322 14.3265 18.18 13.9849 16.4581C13.6388 14.7159 13.6112 12.8238 13.9029 10.8342C14.016 10.0627 14.0787 9.33731 14.0969 8.65316C16.0057 9.87063 18.6328 11.0107 21.7773 11.0107C22.4921 11.0107 23.2344 10.9515 24 10.8214L23.8739 10.0641C19.7189 10.7713 16.3166 9.24914 14.0946 7.73678ZM17.7748 6.57126L18.2566 6.85138L17.6698 7.88211C17.4915 7.81062 17.319 7.73685 17.1521 7.66117C17.1549 7.65663 17.159 7.65332 17.1616 7.64861L17.7748 6.57126ZM18.3958 8.14725L18.9154 7.23446L19.397 7.51444L18.9412 8.315C18.7546 8.26221 18.573 8.20609 18.3958 8.14725ZM17.1631 4.97856L19.6648 3.81449L19.9263 6.58501L19.7761 6.84895C19.6054 6.74972 16.9213 5.18903 17.0133 5.24249L17.1631 4.97856ZM16.0214 6.98541L16.6346 5.90829L17.116 6.1882L16.5029 7.26546C16.4907 7.28685 16.4883 7.31026 16.4806 7.33276C16.3032 7.23936 16.1328 7.14514 15.9716 7.05053C15.9897 7.03047 16.0074 7.00987 16.0214 6.98541Z" fill="#0F0A0F"/>
</svg>
