<svg width="26" height="24" viewBox="0 0 26 24" fill="none" xmlns="http://www.w3.org/2000/svg">
<path d="M25.9823 21.7536C25.9353 21.5171 25.7992 21.3135 25.5988 21.1794C25.1715 20.8935 24.8163 20.6046 24.5399 20.3176C24.8661 19.9872 25.1144 19.5852 25.2656 19.1389C25.5288 18.3585 25.4736 17.522 25.1097 16.7837C24.5864 15.7222 23.531 15.0624 22.3562 15.0624C21.9853 15.0624 21.6191 15.1295 21.2678 15.2621C21.1706 15.2989 21.0757 15.3401 20.9872 15.3845C20.8002 15.4767 20.6241 15.5878 20.4604 15.7155L16.9373 10.5966L16.8631 9.93174C16.8615 9.91856 16.8592 9.90509 16.8561 9.89219L14.654 0.737762C14.575 0.309692 14.2049 0 13.7696 0C13.7181 0 13.6665 0.00448825 13.6156 0.0134648C13.1296 0.0976202 12.8009 0.559634 12.8793 1.04661L13.3919 5.4457L10.882 1.7998C10.716 1.53471 10.4316 1.3765 10.118 1.3765C9.9523 1.3765 9.78992 1.42223 9.64854 1.50919C9.44333 1.63514 9.29915 1.83319 9.24316 2.0677C9.18773 2.298 9.22356 2.53644 9.34422 2.73982L13.7125 11.0777C13.7186 11.0894 13.7256 11.1009 13.7332 11.1119L14.115 11.6609L14.834 17.8367C14.6268 17.8488 14.421 17.8819 14.2214 17.9358C14.1229 17.9619 14.0243 17.9935 13.9286 18.03C12.442 18.5902 11.6309 20.1732 12.0414 21.7115C12.2539 22.5071 12.7625 23.1725 13.4742 23.5851C13.9426 23.8564 14.4734 24 15.0095 24C15.0451 24 15.0806 23.9994 15.1162 23.998C15.1184 23.998 15.1207 23.998 15.1226 23.998C15.1988 23.998 15.5081 23.9647 15.8214 23.8819C16.0042 23.8337 16.1509 23.7792 16.2416 23.7419C16.2948 23.7203 16.3525 23.6968 16.4048 23.6659L16.4054 23.6667C17.6913 23.0185 18.3466 21.5903 18.0048 20.1872L17.6165 16.6933L19.6224 19.5771C20.1555 20.6004 21.1961 21.2355 22.3436 21.2355C22.5312 21.2355 22.7191 21.2178 22.9039 21.1833C23.3165 21.7006 23.8857 22.2036 24.5987 22.6804C24.7474 22.7797 24.9198 22.8325 25.0982 22.8325C25.4003 22.8325 25.6805 22.6824 25.8482 22.4308C25.9817 22.2308 26.0293 21.9898 25.9823 21.7536ZM15.9418 23.3534C15.9435 23.3341 15.9468 23.3153 15.9513 23.2973C15.9465 23.3155 15.9435 23.3341 15.9418 23.3534ZM16.0286 23.1579C16.0487 23.1363 16.0711 23.1181 16.0938 23.1051C16.0697 23.12 16.0479 23.1377 16.0286 23.1579ZM25.314 22.074C25.2659 22.1463 25.1853 22.1895 25.0982 22.1895C25.0472 22.1895 24.998 22.1744 24.9548 22.1461C24.2275 21.6594 23.6687 21.1513 23.2936 20.636C23.216 20.5292 23.0811 20.4809 22.9537 20.514C22.7538 20.5662 22.5486 20.5923 22.3434 20.5923C21.4304 20.5923 20.6026 20.0834 20.1832 19.2637C20.1768 19.2508 20.1692 19.2385 20.1608 19.2267L17.4208 15.2874C17.3368 15.1665 17.1817 15.1182 17.0443 15.1701C16.9071 15.222 16.8223 15.3606 16.8385 15.5068L17.3696 20.2789C17.3713 20.2935 17.3738 20.3078 17.3771 20.3216C17.6571 21.4375 17.1389 22.5764 16.117 23.0917C16.1109 23.0948 16.105 23.0979 16.0994 23.1012C16.0725 23.1144 15.9096 23.1929 15.6582 23.2592C15.411 23.3242 15.178 23.3498 15.1235 23.3537C15.1179 23.3537 15.112 23.3537 15.1061 23.354C14.6506 23.3716 14.1943 23.2589 13.7956 23.0277C13.232 22.7012 12.8295 22.1747 12.6612 21.5449C12.3364 20.3272 12.9784 19.0744 14.1551 18.6309C14.2309 18.602 14.3082 18.5773 14.386 18.5565C14.5899 18.5018 14.8001 18.4741 15.0109 18.4741C15.0644 18.4741 15.1193 18.4758 15.173 18.4797C15.2679 18.4859 15.3611 18.4497 15.4269 18.3804C15.4924 18.3111 15.5244 18.2163 15.5134 18.1212L14.7438 11.506C14.7377 11.4533 14.7184 11.4028 14.6884 11.3596L14.2718 10.7607L9.90862 2.43265C9.90527 2.42648 9.9019 2.42031 9.89799 2.41442C9.86215 2.35523 9.85123 2.28566 9.86747 2.21862C9.88371 2.15129 9.92486 2.09435 9.98393 2.05816C10.0248 2.03319 10.0713 2.01973 10.1183 2.01973C10.2096 2.01973 10.2922 2.0663 10.3398 2.14372C10.3428 2.14877 10.3459 2.15382 10.3493 2.15859L13.596 6.87466C13.6797 6.9964 13.8351 7.04493 13.9734 6.99303C14.1111 6.94086 14.1962 6.80144 14.1789 6.65501L13.5162 0.96414C13.5156 0.95825 13.5148 0.952359 13.5137 0.946468C13.4893 0.805648 13.5842 0.67128 13.7248 0.646875C13.8662 0.62247 13.9997 0.718968 14.0238 0.858105C14.0249 0.865117 14.0263 0.872131 14.028 0.878863L16.2276 10.0232L16.3085 10.7483C16.3144 10.8011 16.3332 10.8513 16.3631 10.895L20.137 16.378C20.191 16.4566 20.2773 16.5071 20.3722 16.5158C20.4674 16.5242 20.5609 16.4903 20.628 16.4229C20.817 16.2339 21.0332 16.0782 21.2717 15.9604C21.3422 15.9253 21.4173 15.8927 21.4942 15.8633C21.7725 15.7584 22.0623 15.7054 22.356 15.7054C23.2849 15.7054 24.1197 16.2274 24.5341 17.0681C24.8219 17.6524 24.8658 18.3145 24.657 18.9322C24.5086 19.3706 24.2421 19.7552 23.886 20.0436C23.8196 20.0974 23.777 20.176 23.7684 20.261C23.76 20.3463 23.7857 20.4312 23.84 20.4977C24.1771 20.9084 24.6488 21.318 25.2421 21.7143C25.2998 21.753 25.339 21.8117 25.3527 21.8796C25.3664 21.9475 25.3527 22.0165 25.314 22.074Z" fill="black"/>
<path d="M15.0153 19.3125C14.8767 19.3125 14.7378 19.3307 14.6023 19.3672C14.5497 19.3815 14.4979 19.3978 14.4503 19.4163C13.6788 19.7072 13.2574 20.5294 13.4707 21.3286C13.5813 21.7421 13.8456 22.0877 14.2149 22.302C14.4587 22.4431 14.7345 22.5177 15.0136 22.5177C15.153 22.5177 15.2924 22.4995 15.4296 22.4627C15.4839 22.4479 15.5338 22.4319 15.5805 22.4139C16.3524 22.1227 16.7734 21.3005 16.5601 20.5013C16.3737 19.8017 15.7384 19.3125 15.0153 19.3125ZM15.3538 21.8122C15.326 21.8226 15.2952 21.8327 15.2628 21.8414C15.0178 21.907 14.7558 21.8719 14.5363 21.7449C14.3154 21.6167 14.1572 21.4099 14.0909 21.1622C13.9632 20.684 14.2152 20.1919 14.6777 20.0174C14.7065 20.0065 14.737 19.9967 14.7686 19.9883C14.8495 19.9667 14.9324 19.9557 15.0153 19.9557C15.4481 19.9557 15.8283 20.2483 15.9403 20.6674C16.0679 21.1457 15.8163 21.6377 15.3538 21.8122Z" fill="black"/>
<path d="M16.0597 10.9394C15.9766 10.7178 15.7621 10.5688 15.5253 10.5688C15.4612 10.5688 15.3973 10.5798 15.3363 10.6008C15.3315 10.6025 15.3273 10.6045 15.3226 10.6062C15.0365 10.7212 14.892 11.0499 15.0009 11.338C15.0841 11.5599 15.2985 11.7089 15.5351 11.7089C15.5997 11.7089 15.6639 11.6979 15.7252 11.6763C15.7294 11.6749 15.7336 11.6732 15.738 11.6716C16.0236 11.5566 16.1678 11.2281 16.0597 10.9394Z" fill="black"/>
<path d="M23.7841 17.4401C23.5123 16.8883 22.9641 16.5458 22.3538 16.5458C22.1612 16.5458 21.9711 16.5806 21.79 16.649C21.7385 16.6681 21.6886 16.69 21.6424 16.713C20.8521 17.1046 20.5265 18.067 20.9168 18.8586C21.1889 19.4104 21.7368 19.7529 22.3471 19.7529C22.5397 19.7529 22.7295 19.7182 22.9112 19.6497C22.961 19.6312 23.0106 19.6093 23.0582 19.5855C23.4409 19.3961 23.7276 19.0688 23.8648 18.6634C24.0017 18.2581 23.9728 17.8235 23.7841 17.4401ZM23.257 18.4569C23.1747 18.6996 23.0033 18.8957 22.7738 19.0093C22.7446 19.0236 22.7152 19.0365 22.6856 19.0477C22.5761 19.089 22.4622 19.11 22.3471 19.11C21.9826 19.11 21.655 18.9049 21.4921 18.5742C21.2586 18.1004 21.4532 17.5239 21.9277 17.2891C21.9549 17.2757 21.984 17.2631 22.0153 17.2513C22.1248 17.21 22.2387 17.189 22.3538 17.189C22.7183 17.189 23.0459 17.3941 23.2088 17.7248C23.3216 17.9543 23.339 18.2143 23.257 18.4569Z" fill="black"/>
<path d="M7.26023 1.26734C7.43744 1.26734 7.58106 1.12343 7.58106 0.945863C7.58106 0.768295 7.43716 0.62439 7.26023 0.62439H1.18815C0.533046 0.62439 0 1.15822 0 1.81491V22.8033C0 23.4597 0.533046 23.9935 1.18815 23.9935H1.40288C2.05323 23.9935 2.58264 23.4633 2.58264 22.8117V11.7565H7.26051C7.43772 11.7565 7.58134 11.6123 7.58134 11.435C7.58134 11.2577 7.43744 11.1135 7.26051 11.1135H2.58236V10.0086H7.26023C7.43744 10.0086 7.58106 9.86465 7.58106 9.68709C7.58106 9.50952 7.43716 9.36561 7.26023 9.36561H2.58236V8.26037H7.26023C7.43744 8.26037 7.58106 8.11646 7.58106 7.9389C7.58106 7.76105 7.43716 7.61742 7.26023 7.61742H2.58236V6.51246H7.26023C7.43744 6.51246 7.58106 6.36856 7.58106 6.19099C7.58106 6.01342 7.43716 5.86951 7.26023 5.86951H2.58236V4.76455H7.26023C7.43744 4.76455 7.58106 4.62037 7.58106 4.44308C7.58106 4.26579 7.43716 4.12161 7.26023 4.12161H2.58236V3.01665H7.26023C7.43744 3.01665 7.58106 2.87274 7.58106 2.69517C7.58106 2.51761 7.43716 2.3737 7.26023 2.3737H2.58236V1.26846H7.26023V1.26734ZM1.94041 22.812C1.94041 23.109 1.69936 23.3508 1.4026 23.3508H1.18815C0.886916 23.3508 0.64195 23.1054 0.64195 22.8035V1.81519C0.64195 1.51335 0.886916 1.26762 1.18815 1.26762H1.94069V22.812H1.94041Z" fill="black"/>
</svg>
