<svg width="34" height="34" viewBox="0 0 34 34" fill="none" xmlns="http://www.w3.org/2000/svg">
<path d="M22.3846 8.00495H25V3.00304H20.247C19.8505 2.98576 15.0173 2.88899 13.7645 7.89319C13.7464 7.94562 13.346 9.13575 13.346 11.9158L9 11.9296V17.1758L13.3515 17.1625V31H19.9985V17.1746H24.3978V11.9146H19.9985V10.2596C19.9985 9.2308 20.4125 8.00495 22.3846 8.00495ZM23.298 13.0662V16.0219H18.8986V29.8473H14.4514V16.007L10.0998 16.0202V13.0783L14.4629 13.065L14.4514 12.4792C14.3942 9.53438 14.7951 8.29586 14.8132 8.23652C15.8944 3.92646 20.0227 4.14306 20.1997 4.15458L23.9002 4.15573V6.85341H22.3846C19.8148 6.85341 18.8992 8.61269 18.8992 10.2591V13.0662H23.298Z" fill="#5D4382"/>
</svg>
