<svg width="22" height="26" viewBox="0 0 22 26" fill="none" xmlns="http://www.w3.org/2000/svg">
<path d="M21 24.4C21 24.7314 20.7366 25 20.4118 25C20.0869 25 19.8235 24.7314 19.8235 24.4C19.8235 19.4294 15.8731 15.4 11 15.4C6.1269 15.4 2.17647 19.4294 2.17647 24.4C2.17647 24.7314 1.91311 25 1.58824 25C1.26336 25 1 24.7314 1 24.4C1 18.7667 5.47715 14.2 11 14.2C16.5228 14.2 21 18.7667 21 24.4ZM11 13C7.75127 13 5.11765 10.3137 5.11765 7C5.11765 3.68629 7.75127 1 11 1C14.2487 1 16.8824 3.68629 16.8824 7C16.8824 10.3137 14.2487 13 11 13ZM11 11.8C13.599 11.8 15.7059 9.65097 15.7059 7C15.7059 4.34903 13.599 2.2 11 2.2C8.40101 2.2 6.29412 4.34903 6.29412 7C6.29412 9.65097 8.40101 11.8 11 11.8Z" fill="#0F0A0F" stroke="#0F0A0F" stroke-width="0.5"/>
</svg>
