<svg width="28" height="28" viewBox="0 0 28 28" fill="none" xmlns="http://www.w3.org/2000/svg">
<path d="M13.283 17.1346C11.6115 17.1346 10.2596 15.8124 10.2596 14.1954C10.2596 14.0759 10.2678 13.9644 10.276 13.8608C10.448 12.3792 11.7426 11.2561 13.283 11.2561C14.8234 11.2561 16.118 12.3792 16.2901 13.8608C16.3065 13.9644 16.3065 14.0759 16.3065 14.1954C16.3147 15.8124 14.9545 17.1346 13.283 17.1346ZM13.283 12.0447C12.1605 12.0447 11.2182 12.8651 11.0871 13.9405C11.0789 14.0201 11.0708 14.0998 11.0708 14.1874C11.0708 15.3743 12.0622 16.3301 13.2748 16.3301C14.4957 16.3301 15.4789 15.3663 15.4789 14.1874C15.4789 14.0998 15.4707 14.0201 15.4626 13.9484C15.356 12.8651 14.4056 12.0447 13.283 12.0447Z" fill="#0F0A0F"/>
<path d="M13.2831 18.3611C11.5624 18.3611 9.62048 18.3292 8.23575 18.0823C7.64581 17.9787 5.8432 17.6521 5.8432 16.3378C5.8432 15.0315 7.67039 13.9482 10.6201 13.5101L11.1527 13.4304L11.0871 13.9482C11.079 14.0278 11.0708 14.1075 11.0708 14.1871C11.0708 15.374 12.0622 16.3299 13.2749 16.3299C14.4957 16.3299 15.479 15.366 15.479 14.1871C15.479 14.0995 15.4708 14.0199 15.4626 13.9482L15.397 13.4304L15.9296 13.5101C18.8793 13.9482 20.7065 15.0315 20.7065 16.3378C20.7065 17.6601 18.9039 17.9787 18.314 18.0823C16.9456 18.3292 15.0037 18.3611 13.2831 18.3611ZM10.2678 14.3704C8.40782 14.7208 6.67076 15.4616 6.67076 16.3299C6.67076 17.5566 11.1445 17.5566 13.2912 17.5566C15.438 17.5566 19.9117 17.5566 19.9117 16.3299C19.9117 15.4616 18.1747 14.7208 16.3147 14.3704C16.2164 15.9077 14.8972 17.1264 13.2912 17.1264C11.6771 17.1344 10.3661 15.9077 10.2678 14.3704Z" fill="#0F0A0F"/>
<path d="M18.9122 26.0001H7.66224V23.2599L4.54865 20.1135H22.0258L18.9122 23.2599V26.0001ZM8.48161 25.2035H18.0928V22.9413L20.1002 20.9101H6.47416L8.48161 22.9413V25.2035Z" fill="#0F0A0F"/>
<path d="M21.8454 20.91H4.72067C3.7702 20.91 3 20.1612 3 19.2372C3 18.7912 3.18026 18.369 3.50801 18.0504C3.82756 17.7318 4.26182 17.5565 4.72067 17.5565H21.8454C21.87 17.5565 21.9028 17.5565 21.9274 17.5565H21.9356C22.8533 17.6043 23.5661 18.3371 23.5661 19.2293C23.5661 19.3806 23.5415 19.532 23.5006 19.6753C23.5006 19.6833 23.5006 19.6833 23.4924 19.6913C23.4104 19.9621 23.2629 20.209 23.0581 20.4161C23.0499 20.4241 23.0335 20.44 23.0253 20.448C22.7385 20.7108 22.3616 20.8702 21.9683 20.902C21.9356 20.91 21.8946 20.91 21.8454 20.91ZM4.72067 18.361C4.48305 18.361 4.25363 18.4487 4.08156 18.6159C3.9095 18.7832 3.81937 18.9983 3.81937 19.2372C3.81937 19.7231 4.22086 20.1134 4.72067 20.1134H21.8454C21.87 20.1134 21.8864 20.1134 21.911 20.1134C22.124 20.0975 22.3207 20.0179 22.4682 19.8745L22.4764 19.8665L22.4845 19.8585C22.5993 19.747 22.673 19.6196 22.714 19.4762C22.714 19.4682 22.714 19.4682 22.7222 19.4603C22.7385 19.3886 22.7549 19.3169 22.7549 19.2372C22.7549 18.7673 22.378 18.3849 21.9028 18.361C21.8864 18.361 21.87 18.361 21.8536 18.361H4.72067Z" fill="#0F0A0F"/>
<path d="M23.1155 19.9701C23.0663 19.9701 23.009 19.9621 22.9598 19.9382C22.7713 19.8586 22.6648 19.6595 22.7222 19.4603C22.7468 19.3886 22.755 19.309 22.755 19.2293C22.755 18.7594 22.3781 18.377 21.9028 18.3531C21.7717 18.3452 21.6488 18.2735 21.5751 18.162C21.5013 18.0504 21.4931 17.915 21.5505 17.7955C22.0995 16.5848 22.378 15.3023 22.378 13.9721C22.378 8.78659 18.0354 4.55692 12.6931 4.55692C10.4317 4.55692 8.23577 5.32957 6.5069 6.73149C5.94973 7.17756 5.12217 7.10587 4.65513 6.56422C4.18809 6.02257 4.27003 5.21805 4.8272 4.76402C7.0313 2.97975 9.82534 2 12.6931 2C19.4775 2 25 7.36873 25 13.9641C25 15.9874 24.4674 17.9867 23.4678 19.755C23.3941 19.8984 23.2548 19.9701 23.1155 19.9701ZM22.4846 17.684C22.8123 17.8115 23.0909 18.0345 23.2875 18.3213C23.8775 16.9512 24.1889 15.4776 24.1889 13.988C24.1889 7.83073 19.035 2.82044 12.7013 2.82044C10.022 2.82044 7.4164 3.73647 5.35979 5.40126C5.14675 5.56853 5.12217 5.87122 5.29424 6.07832C5.4663 6.27746 5.78586 6.30932 5.9907 6.14205C7.86705 4.62064 10.2514 3.78427 12.7013 3.78427C18.4942 3.78427 23.2056 8.36441 23.2056 13.996C23.1974 15.2625 22.9516 16.5051 22.4846 17.684Z" fill="#0F0A0F"/>
</svg>
