<svg width="28" height="28" viewBox="0 0 28 28" fill="none" xmlns="http://www.w3.org/2000/svg">
<path d="M10.9977 9.01847L10.9977 9.01849C10.2692 9.88872 9.17769 9.90903 8.34333 9.92456L8.32944 9.92482L8.32101 9.92497C8.16291 9.92792 8.01275 9.93072 7.87186 9.93901L7.87179 9.93901C6.1443 10.0393 4.81546 10.6753 3.90973 11.8218L3.90972 11.8218C2.9196 13.075 2.58075 14.7482 2.49326 16.1243C2.44962 16.8107 2.46874 17.4195 2.49922 17.8593C2.51445 18.0791 2.53251 18.2565 2.54694 18.38C2.55415 18.4417 2.56045 18.49 2.56504 18.5233L2.57052 18.5619L2.5721 18.5724L2.57256 18.5754L2.57269 18.5762L2.57273 18.5765L2.57276 18.5767C2.58831 18.6733 2.55707 18.7721 2.48832 18.8418C2.44888 18.8818 2.40311 18.9527 2.35348 19.0572C2.30462 19.1601 2.25506 19.289 2.20555 19.4392C2.10656 19.7394 2.00996 20.118 1.92023 20.5298C1.74083 21.3532 1.59059 22.3016 1.50391 23.005L1.50391 23.005C1.48488 23.1588 1.35531 23.2733 1.20333 23.2733C1.19036 23.2733 1.17787 23.2724 1.1663 23.271L1.16533 23.2709C0.99804 23.2496 0.881913 23.0956 0.902327 22.9293L0.902332 22.9293C0.925453 22.7416 1.03919 21.8491 1.22298 20.9004C1.31484 20.4261 1.42455 19.936 1.54966 19.5122C1.66758 19.1127 1.80227 18.7609 1.95467 18.5382C1.90371 18.1553 1.78488 17.0414 1.90902 15.7121C2.03761 14.3352 2.42792 12.7157 3.43579 11.44L3.51426 11.5019L3.43579 11.4399C4.45814 10.1459 5.94308 9.4376 7.83714 9.3278C7.83716 9.3278 7.83717 9.3278 7.83719 9.32779L10.9977 9.01847ZM10.9977 9.01847C11.3754 8.56703 11.6077 7.93985 11.7045 7.1357C11.8012 6.33146 11.7633 5.34358 11.5947 4.16305L10.9977 9.01847ZM10.9948 4.25076C11.1508 5.34411 11.1876 6.25854 11.1083 6.99084C11.0288 7.72427 10.8337 8.26574 10.5347 8.62305L10.5347 8.62306C9.98851 9.27571 9.13067 9.29736 8.31845 9.3127C8.31842 9.3127 8.31838 9.31271 8.31835 9.31271L8.32024 9.41269L10.9948 4.25076Z" fill="#0F0A0F" stroke="#0F0A0F" stroke-width="0.2"/>
<path d="M6.5769 18.8363V18.8363H6.57691H6.57692H6.57692H6.57693H6.57694H6.57695H6.57695H6.57696H6.57697H6.57697H6.57698H6.57699H6.57699H6.577H6.57701H6.57701H6.57702H6.57703H6.57703H6.57704H6.57705H6.57706H6.57706H6.57707H6.57708H6.57708H6.57709H6.5771H6.5771H6.57711H6.57712H6.57712H6.57713H6.57714H6.57715H6.57715H6.57716H6.57717H6.57717H6.57718H6.57719H6.57719H6.5772H6.57721H6.57721H6.57722H6.57723H6.57724H6.57724H6.57725H6.57726H6.57726H6.57727H6.57728H6.57728H6.57729H6.5773H6.5773H6.57731H6.57732H6.57733H6.57733H6.57734H6.57735H6.57735H6.57736H6.57737H6.57737H6.57738H6.57739H6.57739H6.5774H6.57741H6.57742H6.57742H6.57743H6.57744H6.57744H6.57745H6.57746H6.57746H6.57747H6.57748H6.57748H6.57749H6.5775H6.5775H6.57751H6.57752H6.57753H6.57753H6.57754H6.57755H6.57755H6.57756H6.57757H6.57757H6.57758H6.57759H6.57759H6.5776H6.57761H6.57762H6.57762H6.57763H6.57764H6.57764H6.57765H6.57766H6.57766H6.57767H6.57768H6.57768H6.57769H6.5777H6.57771H6.57771H6.57772H6.57773H6.57773H6.57774H6.57775H6.57775H6.57776H6.57777H6.57777H6.57778H6.57779H6.57779H6.5778H6.57781H6.57782H6.57782H6.57783H6.57784H6.57784H6.57785H6.57786H6.57786H6.57787H6.57788H6.57788H6.57789H6.5779H6.5779H6.57791H6.57792H6.57793H6.57793H6.57794H6.57795H6.57795H6.57796H6.57797H6.57797H6.57798H6.57799H6.57799H6.578H6.57801H6.57801H6.57802H6.57803H6.57803H6.57804H6.57805H6.57806H6.57806H6.57807H6.57808H6.57808H6.57809H6.5781H6.5781H6.57811H6.57812H6.57812H6.57813H6.57814H6.57814H6.57815H6.57816H6.57816H6.57817H6.57818H6.57819H6.57819H6.5782H6.57821H6.57821H6.57822H6.57823H6.57823H6.57824H6.57825H6.57825H6.57826H6.57827H6.57827H6.57828H6.57829H6.57829H6.5783H6.57831H6.57831H6.57832H6.57833H6.57833H6.57834H6.57835H6.57836H6.57836H6.57837H6.57838H6.57838H6.57839H6.5784H6.5784H6.57841H6.57842H6.57842H6.57843H6.57844H6.57844H6.57845H6.57846H6.57846H6.57847H6.57848H6.57848H6.57849H6.5785H6.5785H6.57851H6.57852H6.57852H6.57853H6.57854H6.57854H6.57855H6.57856H6.57856H6.57857H6.57858H6.57858H6.57859H6.5786H6.5786H6.57861H6.57862H6.57862H6.57863H6.57864H6.57864H6.57865H6.57866H6.57866H6.57867H6.57868H6.57869H6.57869H6.5787H6.57871H6.57871H6.57872H6.57873H6.57873H6.57874H6.57875H6.57875H6.57876H6.57877H6.57877H6.57878H6.57879H6.57879H6.5788H6.5788H6.57881H6.57882H6.57882H6.57883H6.57884H6.57884H6.57885H6.57886H6.57886H6.57887H6.57888H6.57888H6.57889H6.5789H6.5789H6.57891H6.57892H6.57892H6.57893H6.57894H6.57894H6.57895H6.57896H6.57896H6.57897H6.57898H6.57898H6.57899H6.579H6.579H6.57901H6.57902H6.57902H6.57903H6.57904H6.57904H6.57905H6.57906H6.57906H6.57907H6.57908H6.57908H6.57909H6.5791H6.5791H6.57911H6.57911H6.57912H6.57913H6.57913H6.57914H6.57915H6.57915H6.57916H6.57917H6.57917H6.57918H6.57919H6.57919H6.5792H6.57921H6.57921H6.57922H6.57923H6.57923H6.57924H6.57924H6.57925H6.57926H6.57926H6.57927H6.57928H6.57928H6.57929H6.5793H6.5793H6.57931H6.57932H6.57932H6.57933H6.57933H6.57934H6.57935H6.57935H6.57936H6.57937H6.57937H6.57938H6.57939H6.57939H6.5794H6.57941H6.57941H6.57942H6.57942H6.57943H6.57944H6.57944H6.57945H6.57946H6.57946H6.57947H6.57948H6.57948H6.57949H6.57949H6.5795H6.57951H6.57951H6.57952H6.57953H6.57953H6.57954H6.57955H6.57955H6.57956H6.57956H6.57957H6.57958H6.57958H6.57959H6.5796H6.5796H6.57961H6.57961H6.57962H6.57963H6.57963H6.57964H6.57965H6.57965H6.57966H6.57966H6.57967H6.57968H6.57968H6.57969H6.5797H6.5797H6.57971H6.57971H6.57972H6.57973H6.57973H6.57974H6.57975H6.57975H6.57976H6.57976H6.57977H6.57978H6.57978H6.57979H6.5798H6.5798H6.57981H6.57981H6.57982H6.57983H6.57983H6.57984H6.57984H6.57985H6.57986H6.57986H6.57987H6.57987H6.57988H6.57989H6.57989H6.5799H6.57991H6.57991H6.57992H6.57992H6.57993H6.57994H6.57994H6.57995H6.57995H6.57996H6.57997H6.57997H6.57998H6.57998H6.57999H6.58H6.58H6.58001H6.58001H6.58002H6.58003H6.58003H6.58004H6.58004H6.58005H6.58006H6.58006H6.58007H6.58007H6.58008H6.58009H6.58009H6.5801H6.5801H6.58011H6.58012H6.58012H6.58013H6.58013H6.58014H6.58015H6.58015H6.58016H6.58016H6.58017H6.58018H6.58018H6.58019H6.58019H6.5802H6.58021H6.58021H6.58022H6.58022H6.58023H6.58023H6.58024H6.58025H6.58025H6.58026H6.58026H6.58027H6.58028C6.74478 18.8363 6.87784 18.9684 6.88314 19.1325L6.5769 18.8363ZM6.5769 18.8363L6.57528 18.8363M6.5769 18.8363L6.57528 18.8363M6.57528 18.8363C6.40829 18.839 6.27715 18.9769 6.27715 19.1425C6.27715 20.2082 5.96655 21.3076 5.65163 22.1472C5.49447 22.5662 5.3369 22.9187 5.21792 23.1678C5.15844 23.2923 5.10865 23.3908 5.07342 23.4588C5.0558 23.4927 5.04183 23.5191 5.03212 23.5372L5.02083 23.558L5.01774 23.5637L5.01687 23.5653L5.01655 23.5658L5.01654 23.5659M6.57528 18.8363L5.01654 23.5659M5.01654 23.5659C4.93485 23.7121 4.98492 23.8987 5.13051 23.9825L5.13115 23.9829M5.01654 23.5659L5.13115 23.9829M5.13115 23.9829C5.27754 24.0658 5.46196 24.0146 5.5446 23.867L5.54474 23.8667M5.13115 23.9829L5.54474 23.8667M5.54474 23.8667C5.5768 23.809 6.00564 23.0329 6.36941 21.9515M5.54474 23.8667L6.36941 21.9515M5.18042 23.8958C5.08282 23.8396 5.04851 23.7137 5.10384 23.6146C5.11654 23.5919 6.37715 21.3085 6.37715 19.1425L5.18042 23.8958ZM5.18042 23.8958C5.27861 23.9514 5.40178 23.9174 5.45734 23.8181L5.18042 23.8958ZM6.36941 21.9515L6.43034 23.804L6.43034 23.8041L6.53029 23.8008L6.36941 21.9515ZM7.03608 23.7837L6.88315 19.1326L6.74316 24.0998C6.74389 24.0998 6.74463 24.0998 6.74537 24.0997C6.91316 24.0932 7.04159 23.9505 7.03608 23.7837C7.03608 23.7837 7.03608 23.7837 7.03608 23.7837Z" fill="#0F0A0F" stroke="#0F0A0F" stroke-width="0.2"/>
<path d="M17.4654 8.62286L17.4654 8.62286C18.0115 9.27552 18.8694 9.29717 19.6816 9.31251C19.6816 9.31251 19.6816 9.31251 19.6817 9.31251L19.6798 9.41249C19.8462 9.41547 20.0065 9.41847 20.1571 9.42743L17.4654 8.62286ZM17.4654 8.62286C17.1663 8.26554 16.9713 7.72407 16.8918 6.99064C16.8124 6.25833 16.8492 5.34388 17.0052 4.25049M17.4654 8.62286L25.5117 18.8416C25.443 18.7719 25.4117 18.6731 25.4273 18.5765L25.4273 18.5763L25.4275 18.5752L25.4279 18.5723L25.4295 18.5618L25.435 18.5231C25.4395 18.4897 25.4458 18.4414 25.453 18.3796C25.4674 18.256 25.4853 18.0785 25.5005 17.8585C25.5308 17.4184 25.5497 16.8091 25.5058 16.1224C25.4179 14.7456 25.0788 13.0721 24.0893 11.8205L24.1678 11.7584L24.0893 11.8205C23.1836 10.6747 21.8552 10.0391 20.1282 9.93882L20.1282 9.93881C19.9873 9.93053 19.8371 9.92773 19.679 9.92478L19.6706 9.92462L19.6567 9.92436C18.8223 9.90883 17.7308 9.88852 17.0024 9.01829L17.0023 9.01828C16.6246 8.56684 16.3923 7.93965 16.2956 7.1355C16.1988 6.33124 16.2368 5.34333 16.4054 4.16276L16.5044 4.1769L16.4054 4.16295C16.4285 3.99891 16.5796 3.87592 16.75 3.90392C16.9164 3.92872 17.0291 4.08486 17.0052 4.25049M17.0052 4.25049C17.0052 4.25052 17.0052 4.25054 17.0052 4.25057L16.9063 4.23629M17.0052 4.25049C17.0052 4.25047 17.0053 4.25044 17.0053 4.25042L16.9063 4.23629M16.9063 4.23629C16.9225 4.12349 16.8456 4.01886 16.7345 4.00272L16.9063 4.23629ZM24.5642 11.4398C23.5419 10.1458 22.057 9.43743 20.163 9.32761L25.6466 19.057C25.6954 19.1599 25.745 19.2888 25.7945 19.439C25.8935 19.7392 25.9901 20.1178 26.0798 20.5296C26.2592 21.353 26.4094 22.3014 26.4961 23.0048L26.4961 23.0048C26.5152 23.1586 26.6447 23.2731 26.7967 23.2731C26.8097 23.2731 26.8222 23.2722 26.8337 23.2708L26.8347 23.2707C27.002 23.2494 27.1181 23.0954 27.0977 22.9291L27.0977 22.9291C27.0746 22.7414 26.9608 21.8489 26.7771 20.9002C26.6852 20.4259 26.5755 19.9358 26.4504 19.512C26.3324 19.1125 26.1978 18.7607 26.0454 18.538C26.0963 18.1551 26.2152 17.0412 26.091 15.7119C25.9624 14.335 25.5721 12.7155 24.5642 11.4398L24.4858 11.5017L24.5642 11.4398Z" fill="#0F0A0F" stroke="#0F0A0F" stroke-width="0.2"/>
<path d="M21.4248 18.8363L21.4248 18.8363C21.5918 18.839 21.7229 18.9769 21.7229 19.1425C21.7229 20.2082 22.0335 21.3076 22.3485 22.1472C22.5056 22.5662 22.6632 22.9187 22.7822 23.1678C22.8416 23.2923 22.8914 23.3908 22.9267 23.4588C22.9443 23.4927 22.9583 23.5191 22.968 23.5372L22.9793 23.558L22.9823 23.5637L22.9832 23.5653L22.9835 23.5658L22.9836 23.5659C23.0652 23.7121 23.0152 23.8987 22.8696 23.9825L22.869 23.9828C22.7229 24.0657 22.5379 24.0147 22.4554 23.8668L22.4553 23.8667C22.4233 23.809 21.9945 23.0329 21.6307 21.9515L21.5698 23.804L21.5697 23.8041L21.4698 23.8008C21.4662 23.9122 21.376 24.0001 21.2671 24.0001C21.2647 24.0001 21.2625 24.0001 21.2601 23.9999L21.4248 18.8363ZM21.4248 18.8363H21.4232H21.4232H21.4232H21.4232H21.4232H21.4232H21.4231H21.4231H21.4231H21.4231H21.4231H21.4231H21.4231H21.4231H21.4231H21.4231H21.4231H21.4231H21.4231H21.4231H21.423H21.423H21.423H21.423H21.423H21.423H21.423H21.423H21.423H21.423H21.423H21.423H21.423H21.423H21.423H21.4229H21.4229H21.4229H21.4229H21.4229H21.4229H21.4229H21.4229H21.4229H21.4229H21.4229H21.4229H21.4229H21.4229H21.4228H21.4228H21.4228H21.4228H21.4228H21.4228H21.4228H21.4228H21.4228H21.4228H21.4228H21.4228H21.4228H21.4228H21.4228H21.4227H21.4227H21.4227H21.4227H21.4227H21.4227H21.4227H21.4227H21.4227H21.4227H21.4227H21.4227H21.4227H21.4227H21.4226H21.4226H21.4226H21.4226H21.4226H21.4226H21.4226H21.4226H21.4226H21.4226H21.4226H21.4226H21.4226H21.4226H21.4226H21.4225H21.4225H21.4225H21.4225H21.4225H21.4225H21.4225H21.4225H21.4225H21.4225H21.4225H21.4225H21.4225H21.4225H21.4224H21.4224H21.4224H21.4224H21.4224H21.4224H21.4224H21.4224H21.4224H21.4224H21.4224H21.4224H21.4224H21.4224H21.4224H21.4223H21.4223H21.4223H21.4223H21.4223H21.4223H21.4223H21.4223H21.4223H21.4223H21.4223H21.4223H21.4223H21.4223H21.4222H21.4222H21.4222H21.4222H21.4222H21.4222H21.4222H21.4222H21.4222H21.4222H21.4222H21.4222H21.4222H21.4222H21.4222H21.4221H21.4221H21.4221H21.4221H21.4221H21.4221H21.4221H21.4221H21.4221H21.4221H21.4221H21.4221H21.4221H21.4221H21.422H21.422H21.422H21.422H21.422H21.422H21.422H21.422H21.422H21.422H21.422H21.422H21.422H21.422H21.422H21.4219H21.4219H21.4219H21.4219H21.4219H21.4219H21.4219H21.4219H21.4219H21.4219H21.4219H21.4219H21.4219H21.4219H21.4219H21.4218H21.4218H21.4218H21.4218H21.4218H21.4218H21.4218H21.4218H21.4218H21.4218H21.4218H21.4218H21.4218H21.4218H21.4217H21.4217H21.4217H21.4217H21.4217H21.4217H21.4217H21.4217H21.4217H21.4217H21.4217H21.4217H21.4217H21.4217H21.4217H21.4216H21.4216H21.4216H21.4216H21.4216H21.4216H21.4216H21.4216H21.4216H21.4216H21.4216H21.4216H21.4216H21.4216H21.4216H21.4215H21.4215H21.4215H21.4215H21.4215H21.4215H21.4215H21.4215H21.4215H21.4215H21.4215H21.4215H21.4215H21.4215H21.4215H21.4214H21.4214H21.4214H21.4214H21.4214H21.4214H21.4214H21.4214H21.4214H21.4214H21.4214H21.4214H21.4214H21.4214H21.4214H21.4213H21.4213H21.4213H21.4213H21.4213H21.4213H21.4213H21.4213H21.4213H21.4213H21.4213H21.4213H21.4213H21.4213H21.4213H21.4212H21.4212H21.4212H21.4212H21.4212H21.4212H21.4212H21.4212H21.4212H21.4212H21.4212H21.4212H21.4212H21.4212H21.4212H21.4211H21.4211H21.4211H21.4211H21.4211H21.4211H21.4211H21.4211H21.4211H21.4211H21.4211H21.4211H21.4211H21.4211H21.4211H21.421H21.421H21.421H21.421H21.421H21.421H21.421H21.421H21.421H21.421H21.421H21.421H21.421H21.421H21.421H21.4209H21.4209H21.4209H21.4209H21.4209H21.4209H21.4209H21.4209H21.4209H21.4209H21.4209H21.4209H21.4209H21.4209H21.4209H21.4209H21.4208H21.4208H21.4208H21.4208H21.4208H21.4208H21.4208H21.4208H21.4208H21.4208H21.4208H21.4208H21.4208H21.4208H21.4208H21.4207H21.4207H21.4207H21.4207H21.4207H21.4207H21.4207H21.4207H21.4207H21.4207H21.4207H21.4207H21.4207H21.4207H21.4207H21.4207H21.4206H21.4206H21.4206H21.4206H21.4206H21.4206H21.4206H21.4206H21.4206H21.4206H21.4206H21.4206H21.4206H21.4206H21.4206H21.4206H21.4205H21.4205H21.4205H21.4205H21.4205H21.4205H21.4205H21.4205H21.4205H21.4205H21.4205H21.4205H21.4205H21.4205H21.4205H21.4205H21.4204H21.4204H21.4204H21.4204H21.4204H21.4204H21.4204H21.4204H21.4204H21.4204H21.4204H21.4204H21.4204H21.4204H21.4204H21.4204H21.4203H21.4203H21.4203H21.4203H21.4203H21.4203H21.4203H21.4203H21.4203H21.4203H21.4203H21.4203H21.4203H21.4203H21.4203H21.4203H21.4202H21.4202H21.4202H21.4202H21.4202H21.4202H21.4202H21.4202H21.4202H21.4202H21.4202H21.4202H21.4202H21.4202H21.4202H21.4202H21.4201H21.4201H21.4201H21.4201H21.4201H21.4201H21.4201H21.4201H21.4201H21.4201H21.4201H21.4201H21.4201H21.4201H21.4201H21.4201H21.4201H21.42H21.42H21.42H21.42H21.42H21.42H21.42H21.42H21.42H21.42H21.42H21.42H21.42H21.42H21.42H21.42H21.42H21.4199H21.4199H21.4199H21.4199H21.4199H21.4199H21.4199H21.4199H21.4199H21.4199H21.4199H21.4199H21.4199H21.4199H21.4199H21.4199H21.4198H21.4198H21.4198H21.4198H21.4198H21.4198H21.4198C21.2553 18.8363 21.1223 18.9684 21.1169 19.1325C21.1169 19.1325 21.1169 19.1325 21.1169 19.1325C21.1169 19.1325 21.1169 19.1325 21.1169 19.1326L20.964 23.7837C20.964 23.7837 20.964 23.7837 20.964 23.7837C20.9585 23.9505 21.0869 24.0931 21.2547 24.0997L21.4248 18.8363Z" fill="#0F0A0F" stroke="#0F0A0F" stroke-width="0.2"/>
<path d="M14 17.9229H13.95V17.9729V18.284V18.334H14H14.6639V18.9995V19.0495H14.7139H15.0243H15.0743V18.9995V18.1284H15.075L15.0736 18.1202C15.0554 18.0103 14.9781 17.9229 14.8691 17.9229H14Z" fill="#0F0A0F" stroke="#0F0A0F" stroke-width="0.1"/>
<path d="M19.4324 11.95H19.3824V12V12.3111V12.3611H19.4324H20.3362L19.5907 13.1082C19.4377 13.0515 19.2719 13.0233 19.1065 13.0233C18.7216 13.0233 18.3361 13.1679 18.0468 13.4579L17.8028 13.7024L17.5589 13.4579C17.2695 13.1679 16.884 13.0233 16.4992 13.0233C16.1143 13.0233 15.7288 13.1679 15.4395 13.4579C14.8461 14.0526 14.8453 15.0021 15.4397 15.582C15.4398 15.582 15.4399 15.5821 15.4399 15.5822L16.2733 16.4174L15.5627 17.1296H14.2488H14.1988V17.1796V17.4907V17.5407H14.2488H15.4075L15.4559 17.5891V18.735V18.785H15.5059H15.8163H15.8663V18.735V17.418L16.5768 16.706L16.7586 16.8883C17.048 17.1783 17.4335 17.3229 17.8184 17.3229C18.2032 17.3229 18.5887 17.1783 18.8781 16.8883L20.1817 15.5817C20.7751 14.987 20.7759 14.0375 20.1815 13.4577C20.1191 13.3951 20.0561 13.3419 19.9926 13.2981L20.6395 12.6497V13.5554V13.6054H20.6895H20.9999H21.0499V13.5554V12.1555H21.0506L21.0492 12.1473C21.03 12.0314 20.9327 11.95 20.8292 11.95H19.4324ZM17.5812 15.1222L16.5612 16.1444L15.7275 15.3089C15.2966 14.877 15.2975 14.178 15.7269 13.7625L15.7275 13.7619C15.9361 13.5528 16.2029 13.4343 16.4992 13.4343C16.7954 13.4343 17.0623 13.5528 17.2708 13.7619L17.5502 14.0418C17.6213 14.1131 17.7115 14.1498 17.8028 14.1498C17.8941 14.1498 17.9844 14.1131 18.0555 14.0418L18.3349 13.7619C18.5434 13.5528 18.8103 13.4343 19.1065 13.4343C19.4027 13.4343 19.6696 13.5528 19.8781 13.7619L19.8781 13.7619L19.8795 13.7631C20.085 13.9544 20.1895 14.2358 20.1895 14.5198C20.1895 14.8168 20.0712 15.0843 19.8626 15.2933L18.559 16.5999C18.3504 16.8089 18.0835 16.9274 17.7873 16.9274C17.4911 16.9274 17.2242 16.8089 17.0157 16.5999L16.8492 16.433L17.8693 15.4106L17.9045 15.3753L17.8693 15.34L17.652 15.1222L17.6166 15.0867L17.5812 15.1222Z" fill="#0F0A0F" stroke="#0F0A0F" stroke-width="0.1"/>
</svg>
