<svg width="30" height="24" viewBox="0 0 30 24" fill="none" xmlns="http://www.w3.org/2000/svg">
<path d="M11.7615 6.51305L11.7615 6.51307C10.9792 7.46758 9.80625 7.48989 8.90672 7.50699L8.89313 7.50725L8.88406 7.50742C8.71382 7.51067 8.55199 7.51375 8.40013 7.52287L8.40006 7.52287C6.53861 7.63328 5.10543 8.33334 4.12814 9.59695L4.04904 9.53577L4.12814 9.59695C3.05996 10.9779 2.69474 12.8212 2.60046 14.3358C2.55342 15.0916 2.57403 15.7618 2.60688 16.2459C2.6233 16.4879 2.64276 16.6832 2.65832 16.8193C2.6661 16.8873 2.67289 16.9404 2.67784 16.9772L2.68376 17.0198L2.68547 17.0314L2.68597 17.0347L2.68612 17.0357L2.68617 17.036L2.6862 17.0362C2.70232 17.1385 2.67004 17.2436 2.59807 17.3181L11.7615 6.51305ZM11.7615 6.51305C12.1667 6.01846 12.4162 5.33084 12.5203 4.44779C12.6243 3.56455 12.5835 2.47903 12.402 1.18103M11.7615 6.51305L12.402 1.18103M12.402 1.18103C12.378 1.00722 12.2193 0.874311 12.0394 0.904427C11.8629 0.93125 11.7466 1.09916 11.7712 1.27395L12.402 1.18103ZM11.2733 6.09254L11.2733 6.09253C11.5972 5.69735 11.8077 5.09929 11.8934 4.29118C11.979 3.4843 11.9393 2.47735 11.7712 1.27409L11.2733 6.09254ZM11.2733 6.09254C10.6824 6.81377 9.75511 6.83707 8.8814 6.85393L8.88333 6.95391L8.8815 6.85393C8.70272 6.8572 8.52801 6.86052 8.36344 6.87052C6.32476 6.99122 4.72769 7.76989 3.62856 9.1909L3.70766 9.25208M11.2733 6.09254L3.70766 9.25208M3.70766 9.25208L3.62856 9.1909C2.54488 10.592 2.12495 12.371 1.98658 13.8844C1.85252 15.3506 1.98181 16.5785 2.03628 16.9949C1.8722 17.2381 1.72674 17.6253 1.59916 18.0667C1.46456 18.5324 1.34651 19.0711 1.24761 19.5926C1.04976 20.6358 0.92731 21.6172 0.902422 21.8236L0.902418 21.8236M3.70766 9.25208L0.902418 21.8236M0.902418 21.8236C0.881326 21.9991 1.00126 22.1649 1.17875 22.1879L1.17973 22.1881M0.902418 21.8236L1.17973 22.1881M1.17973 22.1881C1.19202 22.1895 1.20526 22.1905 1.21897 22.1905C1.38045 22.1905 1.51536 22.0666 1.53506 21.9039L1.53507 21.9039M1.17973 22.1881L1.53507 21.9039M1.53507 21.9039C1.62845 21.1298 1.79031 20.0863 1.98359 19.1802M1.53507 21.9039L1.98359 19.1802M1.98359 19.1802C2.08026 18.7269 2.18439 18.3101 2.29117 17.9793M1.98359 19.1802L2.29117 17.9793M2.29117 17.9793C2.34458 17.8138 2.39811 17.6716 2.45099 17.5578M2.29117 17.9793L2.45099 17.5578M2.45099 17.5578C2.50464 17.4424 2.5545 17.3632 2.59805 17.3181L2.45099 17.5578Z" fill="#0F0A0F" stroke="#0F0A0F" stroke-width="0.2"/>
<path d="M7.00585 17.3298V17.3298H7.00585H7.00586H7.00587H7.00588H7.00588H7.00589H7.0059H7.00591H7.00591H7.00592H7.00593H7.00594H7.00594H7.00595H7.00596H7.00597H7.00597H7.00598H7.00599H7.006H7.006H7.00601H7.00602H7.00603H7.00603H7.00604H7.00605H7.00606H7.00606H7.00607H7.00608H7.00609H7.00609H7.0061H7.00611H7.00612H7.00612H7.00613H7.00614H7.00615H7.00615H7.00616H7.00617H7.00618H7.00618H7.00619H7.0062H7.0062H7.00621H7.00622H7.00623H7.00623H7.00624H7.00625H7.00626H7.00626H7.00627H7.00628H7.00629H7.00629H7.0063H7.00631H7.00632H7.00632H7.00633H7.00634H7.00635H7.00635H7.00636H7.00637H7.00638H7.00638H7.00639H7.0064H7.00641H7.00641H7.00642H7.00643H7.00644H7.00644H7.00645H7.00646H7.00647H7.00647H7.00648H7.00649H7.00649H7.0065H7.00651H7.00652H7.00652H7.00653H7.00654H7.00655H7.00655H7.00656H7.00657H7.00658H7.00658H7.00659H7.0066H7.00661H7.00661H7.00662H7.00663H7.00664H7.00664H7.00665H7.00666H7.00667H7.00667H7.00668H7.00669H7.0067H7.0067H7.00671H7.00672H7.00673H7.00673H7.00674H7.00675H7.00675H7.00676H7.00677H7.00678H7.00678H7.00679H7.0068H7.00681H7.00681H7.00682H7.00683H7.00684H7.00684H7.00685H7.00686H7.00687H7.00687H7.00688H7.00689H7.0069H7.0069H7.00691H7.00692H7.00693H7.00693H7.00694H7.00695H7.00695H7.00696H7.00697H7.00698H7.00698H7.00699H7.007H7.00701H7.00701H7.00702H7.00703H7.00704H7.00704H7.00705H7.00706H7.00707H7.00707H7.00708H7.00709H7.0071H7.0071H7.00711H7.00712H7.00712H7.00713H7.00714H7.00715H7.00715H7.00716H7.00717H7.00718H7.00718H7.00719H7.0072H7.00721H7.00721H7.00722H7.00723H7.00723H7.00724H7.00725H7.00726H7.00726H7.00727H7.00728H7.00729H7.00729H7.0073H7.00731H7.00732H7.00732H7.00733H7.00734H7.00734H7.00735H7.00736H7.00737H7.00737H7.00738H7.00739H7.0074H7.0074H7.00741H7.00742H7.00743H7.00743H7.00744H7.00745H7.00745H7.00746H7.00747H7.00748H7.00748H7.00749H7.0075H7.00751H7.00751H7.00752H7.00753H7.00753H7.00754H7.00755H7.00756H7.00756H7.00757H7.00758H7.00759H7.00759H7.0076H7.00761H7.00761H7.00762H7.00763H7.00764H7.00764H7.00765H7.00766H7.00766H7.00767H7.00768H7.00769H7.00769H7.0077H7.00771H7.00772H7.00772H7.00773H7.00774H7.00774H7.00775H7.00776H7.00777H7.00777H7.00778H7.00779H7.00779H7.0078H7.00781H7.00782H7.00782H7.00783H7.00784H7.00784H7.00785H7.00786H7.00787H7.00787H7.00788H7.00789H7.00789H7.0079H7.00791H7.00792H7.00792H7.00793H7.00794H7.00795H7.00795H7.00796H7.00797H7.00797H7.00798H7.00799H7.008H7.008H7.00801H7.00802H7.00802H7.00803H7.00804H7.00804H7.00805H7.00806H7.00807H7.00807H7.00808H7.00809H7.00809H7.0081H7.00811H7.00812H7.00812H7.00813H7.00814H7.00814H7.00815H7.00816H7.00817H7.00817H7.00818H7.00819H7.00819H7.0082H7.00821H7.00821H7.00822H7.00823H7.00824H7.00824H7.00825H7.00826H7.00826H7.00827H7.00828H7.00828H7.00829H7.0083H7.00831H7.00831H7.00832H7.00833H7.00833H7.00834H7.00835H7.00835H7.00836H7.00837H7.00838H7.00838H7.00839H7.0084H7.0084H7.00841H7.00842H7.00842H7.00843H7.00844H7.00844H7.00845H7.00846H7.00847H7.00847H7.00848H7.00849H7.00849H7.0085H7.00851H7.00851H7.00852H7.00853H7.00853H7.00854H7.00855H7.00856H7.00856H7.00857H7.00858H7.00858H7.00859H7.0086H7.0086H7.00861H7.00862H7.00862H7.00863H7.00864H7.00864H7.00865H7.00866H7.00866H7.00867H7.00868H7.00869H7.00869H7.0087H7.00871H7.00871H7.00872H7.00873H7.00873H7.00874H7.00875H7.00875H7.00876H7.00877H7.00877H7.00878H7.00879H7.00879H7.0088H7.00881H7.00881H7.00882H7.00883H7.00883H7.00884H7.00885H7.00885H7.00886H7.00887H7.00887H7.00888H7.00889H7.00889H7.0089H7.00891H7.00891H7.00892H7.00893H7.00893H7.00894H7.00895H7.00895H7.00896H7.00897H7.00897H7.00898H7.00899H7.00899H7.009H7.00901H7.00901H7.00902H7.00903H7.00903H7.00904H7.00905H7.00905H7.00906H7.00907H7.00907H7.00908H7.00909H7.00909H7.0091H7.00911H7.00911H7.00912H7.00913H7.00913H7.00914H7.00915H7.00915H7.00916H7.00917H7.00917H7.00918H7.00918H7.00919H7.0092H7.0092H7.00921H7.00922H7.00922H7.00923H7.00924H7.00924H7.00925H7.00926H7.00926H7.00927H7.00928H7.00928H7.00929H7.00929H7.0093H7.00931H7.00931H7.00932H7.00933H7.00933H7.00934H7.00935H7.00935H7.00936H7.00936H7.00937H7.00938H7.00938H7.00939H7.0094H7.0094H7.00941H7.00942H7.00942H7.00943H7.00943H7.00944H7.00945H7.00945H7.00946H7.00947H7.00947H7.00948C7.1843 17.3298 7.32247 17.4727 7.32796 17.646L7.00585 17.3298ZM7.00585 17.3298L7.00419 17.3298C6.82677 17.3328 6.69073 17.4818 6.69073 17.6567C6.69073 18.831 6.3557 20.0419 6.01636 20.966C5.84697 21.4272 5.67716 21.8153 5.54892 22.0895C5.48481 22.2265 5.43113 22.335 5.39315 22.4099C5.37415 22.4473 5.35909 22.4763 5.34861 22.4963L5.33641 22.5193L5.33306 22.5255L5.33212 22.5273L5.33185 22.5278L5.33175 22.528L5.33174 22.528C5.24702 22.6829 5.29818 22.8815 5.45124 22.9715L5.45188 22.9719C5.60712 23.0617 5.80156 23.0053 5.88786 22.8479L5.888 22.8476C5.92278 22.7837 6.39444 21.9118 6.78866 20.7019M7.00585 17.3298L6.77891 20.3992L6.78866 20.7019M6.85569 22.7839C6.86114 22.9573 6.99967 23.1 7.17396 23.1C7.17518 23.1 7.1806 23.1 7.18698 23.0996L6.87939 20.4124C6.84978 20.5108 6.81945 20.6074 6.78866 20.7019M6.85569 22.7839L6.95564 22.7807L6.8557 22.7839L6.85569 22.7839ZM6.85569 22.7839L6.78866 20.7019M7.49265 22.7624L7.32796 17.6461L7.49265 22.7624Z" fill="#0F0A0F" stroke="#0F0A0F" stroke-width="0.2"/>
<path d="M18.7267 6.09234L18.7267 6.09235C19.3176 6.81358 20.2449 6.83688 21.1186 6.85374L21.1167 6.95372L21.1185 6.85374C21.2973 6.85701 21.472 6.86033 21.6366 6.87033L18.7267 6.09234ZM18.7267 6.09234C18.4028 5.69716 18.1923 5.0991 18.1066 4.29099C18.021 3.4841 18.0607 2.47711 18.2288 1.27383M18.7267 6.09234L18.2385 6.51288M18.2385 6.51288L18.2385 6.51286C17.8333 6.01827 17.5838 5.33065 17.4798 4.4476C17.3757 3.56434 17.4165 2.47878 17.598 1.18074L17.697 1.19459L17.5979 1.18093C17.6219 1.00743 17.7795 0.873814 17.9606 0.904241C18.1372 0.931083 18.2535 1.09902 18.2288 1.27383M18.2385 6.51288C19.0208 7.46739 20.1938 7.4897 21.0933 7.5068L21.1069 7.50706L21.116 7.50723C21.2862 7.51048 21.448 7.51356 21.5999 7.52268L21.5999 7.52268C23.4608 7.63309 24.8935 8.33271 25.8708 9.59546C26.9383 10.9748 27.3038 12.8183 27.3985 14.3338C27.4458 15.0899 27.4254 15.7606 27.3928 16.2451C27.3765 16.4873 27.3571 16.6828 27.3416 16.8189C27.3338 16.887 27.3271 16.9402 27.3221 16.977L27.3162 17.0196L27.3145 17.0313L27.314 17.0346L27.3139 17.0355L27.3138 17.0358L27.3138 17.036C27.2977 17.1383 27.33 17.2434 27.4019 17.3179C27.4455 17.363 27.4954 17.4422 27.549 17.5576C27.6019 17.6714 27.6554 17.8136 27.7088 17.9791C27.8156 18.3099 27.9197 18.7268 28.0164 19.18C28.2097 20.0861 28.3715 21.1297 28.4649 21.9037L28.4649 21.9037C28.4846 22.0664 28.6196 22.1903 28.781 22.1903C28.7947 22.1903 28.808 22.1893 28.8203 22.1879L28.8213 22.1877C28.9987 22.1647 29.1187 21.9989 29.0976 21.8234L29.0976 21.8234C29.0727 21.617 28.9502 20.6356 28.7524 19.5924C28.6535 19.0709 28.5354 18.5322 28.4008 18.0665C28.2733 17.6251 28.1278 17.2379 27.9637 16.9947C28.0182 16.5783 28.1475 15.3504 28.0134 13.8842C27.8751 12.3708 27.4551 10.5918 26.3714 9.19071L26.2923 9.25189M18.2385 6.51288L26.2923 9.25189M18.2288 1.27383C18.2288 1.27385 18.2288 1.27388 18.2288 1.2739L18.1298 1.25992L18.2288 1.27375C18.2288 1.27378 18.2288 1.2738 18.2288 1.27383ZM26.2923 9.25189L26.3714 9.19071C25.2723 7.76974 23.6753 6.99107 21.6367 6.87034L26.2923 9.25189Z" fill="#0F0A0F" stroke="#0F0A0F" stroke-width="0.2"/>
<path d="M22.9958 17.3298L22.9958 17.3298C23.1732 17.3328 23.3093 17.4818 23.3093 17.6567C23.3093 18.831 23.6443 20.0419 23.9837 20.966C24.153 21.4272 24.3229 21.8153 24.4511 22.0895C24.5152 22.2265 24.5689 22.335 24.6069 22.4099C24.6259 22.4473 24.6409 22.4763 24.6514 22.4963L24.6636 22.5193L24.6669 22.5255L24.6679 22.5273L24.6682 22.5278L24.6683 22.528L24.6683 22.528C24.753 22.6829 24.7018 22.8815 24.5488 22.9715L24.5482 22.9718C24.3932 23.0616 24.1982 23.0054 24.1121 22.8477L24.112 22.8476C24.0772 22.7837 23.6056 21.9118 23.2114 20.7019L23.1443 22.7839L23.1443 22.7839L23.0444 22.7807C23.0405 22.9033 22.9433 23 22.8261 23C22.8235 23 22.8211 23 22.8186 22.9997L22.9958 17.3298ZM22.9958 17.3298H22.9942H22.9942H22.9941H22.9941H22.9941H22.9941H22.9941H22.9941H22.9941H22.9941H22.9941H22.9941H22.9941H22.9941H22.9941H22.9941H22.994H22.994H22.994H22.994H22.994H22.994H22.994H22.994H22.994H22.994H22.994H22.994H22.994H22.9939H22.9939H22.9939H22.9939H22.9939H22.9939H22.9939H22.9939H22.9939H22.9939H22.9939H22.9939H22.9939H22.9938H22.9938H22.9938H22.9938H22.9938H22.9938H22.9938H22.9938H22.9938H22.9938H22.9938H22.9938H22.9938H22.9938H22.9937H22.9937H22.9937H22.9937H22.9937H22.9937H22.9937H22.9937H22.9937H22.9937H22.9937H22.9937H22.9937H22.9936H22.9936H22.9936H22.9936H22.9936H22.9936H22.9936H22.9936H22.9936H22.9936H22.9936H22.9936H22.9936H22.9936H22.9935H22.9935H22.9935H22.9935H22.9935H22.9935H22.9935H22.9935H22.9935H22.9935H22.9935H22.9935H22.9935H22.9934H22.9934H22.9934H22.9934H22.9934H22.9934H22.9934H22.9934H22.9934H22.9934H22.9934H22.9934H22.9934H22.9934H22.9933H22.9933H22.9933H22.9933H22.9933H22.9933H22.9933H22.9933H22.9933H22.9933H22.9933H22.9933H22.9933H22.9932H22.9932H22.9932H22.9932H22.9932H22.9932H22.9932H22.9932H22.9932H22.9932H22.9932H22.9932H22.9932H22.9932H22.9931H22.9931H22.9931H22.9931H22.9931H22.9931H22.9931H22.9931H22.9931H22.9931H22.9931H22.9931H22.9931H22.993H22.993H22.993H22.993H22.993H22.993H22.993H22.993H22.993H22.993H22.993H22.993H22.993H22.993H22.9929H22.9929H22.9929H22.9929H22.9929H22.9929H22.9929H22.9929H22.9929H22.9929H22.9929H22.9929H22.9929H22.9928H22.9928H22.9928H22.9928H22.9928H22.9928H22.9928H22.9928H22.9928H22.9928H22.9928H22.9928H22.9928H22.9928H22.9927H22.9927H22.9927H22.9927H22.9927H22.9927H22.9927H22.9927H22.9927H22.9927H22.9927H22.9927H22.9927H22.9927H22.9926H22.9926H22.9926H22.9926H22.9926H22.9926H22.9926H22.9926H22.9926H22.9926H22.9926H22.9926H22.9926H22.9925H22.9925H22.9925H22.9925H22.9925H22.9925H22.9925H22.9925H22.9925H22.9925H22.9925H22.9925H22.9925H22.9925H22.9924H22.9924H22.9924H22.9924H22.9924H22.9924H22.9924H22.9924H22.9924H22.9924H22.9924H22.9924H22.9924H22.9924H22.9923H22.9923H22.9923H22.9923H22.9923H22.9923H22.9923H22.9923H22.9923H22.9923H22.9923H22.9923H22.9923H22.9923H22.9922H22.9922H22.9922H22.9922H22.9922H22.9922H22.9922H22.9922H22.9922H22.9922H22.9922H22.9922H22.9922H22.9922H22.9921H22.9921H22.9921H22.9921H22.9921H22.9921H22.9921H22.9921H22.9921H22.9921H22.9921H22.9921H22.9921H22.9921H22.992H22.992H22.992H22.992H22.992H22.992H22.992H22.992H22.992H22.992H22.992H22.992H22.992H22.992H22.9919H22.9919H22.9919H22.9919H22.9919H22.9919H22.9919H22.9919H22.9919H22.9919H22.9919H22.9919H22.9919H22.9919H22.9918H22.9918H22.9918H22.9918H22.9918H22.9918H22.9918H22.9918H22.9918H22.9918H22.9918H22.9918H22.9918H22.9918H22.9917H22.9917H22.9917H22.9917H22.9917H22.9917H22.9917H22.9917H22.9917H22.9917H22.9917H22.9917H22.9917H22.9917H22.9916H22.9916H22.9916H22.9916H22.9916H22.9916H22.9916H22.9916H22.9916H22.9916H22.9916H22.9916H22.9916H22.9916H22.9916H22.9915H22.9915H22.9915H22.9915H22.9915H22.9915H22.9915H22.9915H22.9915H22.9915H22.9915H22.9915H22.9915H22.9915H22.9914H22.9914H22.9914H22.9914H22.9914H22.9914H22.9914H22.9914H22.9914H22.9914H22.9914H22.9914H22.9914H22.9914H22.9914H22.9913H22.9913H22.9913H22.9913H22.9913H22.9913H22.9913H22.9913H22.9913H22.9913H22.9913H22.9913H22.9913H22.9913H22.9913H22.9912H22.9912H22.9912H22.9912H22.9912H22.9912H22.9912H22.9912H22.9912H22.9912H22.9912H22.9912H22.9912H22.9912H22.9911H22.9911H22.9911H22.9911H22.9911H22.9911H22.9911H22.9911H22.9911H22.9911H22.9911H22.9911H22.9911H22.9911H22.9911H22.991H22.991H22.991H22.991H22.991H22.991H22.991H22.991H22.991H22.991H22.991H22.991H22.991H22.991H22.991H22.991H22.9909H22.9909H22.9909H22.9909H22.9909H22.9909H22.9909H22.9909H22.9909H22.9909H22.9909H22.9909H22.9909H22.9909H22.9909H22.9908H22.9908H22.9908H22.9908H22.9908H22.9908H22.9908H22.9908H22.9908H22.9908H22.9908H22.9908H22.9908H22.9908H22.9908H22.9907H22.9907H22.9907H22.9907H22.9907H22.9907H22.9907H22.9907H22.9907H22.9907H22.9907H22.9907H22.9907H22.9907H22.9907H22.9907H22.9906H22.9906H22.9906H22.9906H22.9906H22.9906H22.9906H22.9906H22.9906H22.9906H22.9906H22.9906H22.9906H22.9906H22.9906H22.9906H22.9905H22.9905H22.9905C22.8157 17.3298 22.6775 17.4727 22.6721 17.646C22.6721 17.6461 22.6721 17.6461 22.6721 17.6461L22.5074 22.7624C22.5074 22.7624 22.5074 22.7624 22.5074 22.7624C22.5016 22.9385 22.6348 23.0926 22.8131 23.0996L22.9958 17.3298Z" fill="#0F0A0F" stroke="#0F0A0F" stroke-width="0.2"/>
</svg>
