<svg width="28" height="28" viewBox="0 0 28 28" fill="none" xmlns="http://www.w3.org/2000/svg">
<path d="M27.9225 7.19771C27.982 7.10835 28.0085 7.00143 27.9976 6.89498C27.9866 6.78854 27.9389 6.68909 27.8624 6.61343L26.1862 4.95539C25.0225 3.80479 23.5946 2.94953 22.0244 2.46253C20.4542 1.97553 18.7882 1.87123 17.1685 2.15852L1.56782 4.92796C1.19404 4.99429 0.848848 5.16963 0.576606 5.43145C0.304364 5.69327 0.117506 6.02961 0.0400397 6.39725C-0.0374264 6.7649 -0.0019613 7.14705 0.141878 7.49461C0.285718 7.84217 0.531361 8.13925 0.847245 8.3477L0.91211 8.39046C1.12437 8.52965 1.36257 8.62555 1.61277 8.67256C1.86298 8.71958 2.12015 8.71675 2.36924 8.66424L17.0585 5.52341C19.4353 5.01525 21.9114 5.22082 24.1693 6.11374L27.3542 7.37388C27.455 7.41393 27.5666 7.41827 27.6702 7.38616C27.7738 7.35404 27.8629 7.28746 27.9225 7.19771ZM24.5218 5.25055C22.0891 4.28783 19.421 4.06638 16.8601 4.61467L2.17229 7.75551C2.04604 7.78239 1.91561 7.78389 1.78875 7.75994C1.6619 7.73598 1.54121 7.68705 1.43386 7.61606L1.36946 7.57329C1.20945 7.46789 1.08498 7.31756 1.01207 7.14163C0.93915 6.96571 0.921118 6.77223 0.96029 6.58609C0.999462 6.39995 1.09405 6.22966 1.23188 6.0971C1.36971 5.96455 1.54449 5.8758 1.73374 5.84228L17.3349 3.07376C18.8053 2.81288 20.3178 2.90751 21.7433 3.34959C23.1688 3.79167 24.4651 4.56809 25.5216 5.61265L25.5789 5.66983L24.5218 5.25055Z" fill="#0F0A0F"/>
<path d="M22.3596 26H25.1798C25.3045 26 25.424 25.951 25.5122 25.8639C25.6003 25.7767 25.6499 25.6585 25.6499 25.5352V8.33658C25.6499 8.2502 25.6256 8.16552 25.5797 8.09203C25.5338 8.01855 25.4681 7.95917 25.3899 7.92056L22.5697 6.52607C22.498 6.49065 22.4184 6.47394 22.3383 6.47753C22.2583 6.48111 22.1805 6.50487 22.1123 6.54656C22.0442 6.58824 21.9879 6.64646 21.9489 6.71569C21.9099 6.78492 21.8895 6.86285 21.8895 6.94209V12.348L20.4174 14.047C19.6437 14.9409 18.6966 15.6721 17.6319 16.1973L17.552 16.2368C16.3122 16.8472 14.9463 17.1654 13.5614 17.1664H12.1329C10.7475 17.1662 9.38108 16.8471 8.14191 16.2344C6.90275 15.6216 5.82482 14.7321 4.99345 13.6361L4.78006 13.3567C4.47269 12.9535 4.0751 12.6262 3.61842 12.4004C3.16175 12.1746 2.6584 12.0565 2.14783 12.0552V12.9849C2.51252 12.9857 2.87206 13.0701 3.19825 13.2314C3.52445 13.3927 3.80845 13.6265 4.02799 13.9145L4.24139 14.1934C4.2992 14.2701 4.36313 14.3408 4.42329 14.4151L4.27241 14.7135C4.09033 15.0765 3.83719 15.4001 3.52767 15.6656C3.21815 15.931 2.85842 16.1331 2.46933 16.26L2.7664 17.1432C3.7742 16.8138 4.60993 16.1046 5.09216 15.1695C5.48156 15.5659 5.90457 15.9286 6.35657 16.2535C6.05908 17.339 5.47998 18.3287 4.67665 19.1248L4.63669 19.1638L5.29945 19.8229L5.34034 19.783C6.18987 18.9418 6.82148 17.9103 7.18149 16.776C7.66949 17.0548 8.18073 17.2918 8.7096 17.4844C8.66736 18.5264 8.40409 19.5481 7.93685 20.483L7.83767 20.6791L8.67904 21.0947L8.77775 20.8985C9.26842 19.9235 9.56234 18.8634 9.6431 17.7772C10.3991 17.9725 11.1759 18.0778 11.9571 18.091L11.5524 21.2941L12.485 21.4094L12.9038 18.098H13.5618C13.8481 18.098 14.1343 18.0812 14.4192 18.0566L14.8422 21.4094L15.7748 21.2941L15.3517 17.9329C15.8713 17.838 16.3824 17.7025 16.8803 17.5276C17.1129 18.6535 17.5641 19.7242 18.2091 20.6801L18.9913 20.1641C18.4038 19.2945 17.9951 18.319 17.7884 17.2933L17.7626 17.165C17.8326 17.1325 17.9036 17.1023 17.9736 17.0684L18.0535 17.0289C18.4544 16.8262 18.8409 16.5968 19.2103 16.3423C19.533 17.4092 20.2221 18.3312 21.1586 18.9495L21.6804 18.176C20.8697 17.6423 20.2898 16.8283 20.0545 15.8937L20.0141 15.7352C20.4148 15.4038 20.7884 15.0415 21.1314 14.6517L21.8895 13.7751V25.5352C21.8895 25.6585 21.9391 25.7767 22.0272 25.8639C22.1154 25.951 22.2349 26 22.3596 26ZM22.8296 25.0704V12.0552H24.7098V25.0704H22.8296ZM22.8296 10.1959H24.7098V11.1255H22.8296V10.1959ZM24.7098 8.62384V9.26623H22.8296V7.69419L24.7098 8.62384Z" fill="#0F0A0F"/>
</svg>
