<svg width="28" height="28" viewBox="0 0 28 28" fill="none" xmlns="http://www.w3.org/2000/svg">
<path d="M14.0342 4C14.0308 4.0001 14.0274 4.00026 14.0239 4.00047C14.0194 4.00038 14.0148 4.00038 14.0102 4.00047C13.9639 4.00254 13.9187 4.01451 13.8777 4.03552C13.8368 4.05653 13.8012 4.08605 13.7734 4.12197C11.5659 6.09929 10.1 8.04569 9.22864 9.92506C8.03032 9.27416 7.02411 9.0833 5.15081 8.78031C5.11187 8.76675 5.07054 8.76078 5.02921 8.76275C4.98096 8.76532 4.93398 8.77864 4.89192 8.80167C4.83942 8.82857 4.79588 8.86934 4.76637 8.91925C4.73686 8.96916 4.72259 9.02615 4.72522 9.08359C4.50145 10.4085 4.44315 11.6059 4.52566 12.6868C3.8504 12.6114 3.13575 12.5687 2.37567 12.5667C2.35514 12.563 2.33428 12.5612 2.3134 12.5615C2.23248 12.5627 2.15519 12.5942 2.09766 12.6493C2.06066 12.6833 2.03279 12.7256 2.01647 12.7724C2.00015 12.8192 1.99588 12.8692 2.00401 12.9179V14.5971C2.00401 19.7949 6.17523 24 11.3596 24H16.6402C21.8243 24 25.9958 19.7946 25.9958 14.5971V12.9189C26.0041 12.8703 26.0001 12.8204 25.984 12.7736C25.9679 12.7268 25.9403 12.6844 25.9036 12.6503C25.9034 12.6501 25.9033 12.65 25.9031 12.6498C25.9026 12.6493 25.9021 12.6488 25.9016 12.6484C25.901 12.6477 25.9003 12.6471 25.8997 12.6465C25.8638 12.6131 25.8202 12.5885 25.7726 12.5746C25.7249 12.5607 25.6745 12.558 25.6256 12.5667C24.8653 12.5687 24.1503 12.611 23.4742 12.6863C23.5567 11.6048 23.4982 10.4066 23.2741 9.08071C23.2763 9.0242 23.2621 8.96822 23.2331 8.91908C23.2042 8.86995 23.1617 8.82961 23.1103 8.8026C23.0647 8.77741 23.0133 8.7637 22.9608 8.76273C22.9241 8.76213 22.8876 8.76775 22.8529 8.77935C20.9905 9.08074 20.0285 9.27256 18.8497 9.91129C17.9759 8.03637 16.5029 6.09449 14.2821 4.12157C14.2538 4.08525 14.2176 4.05552 14.1759 4.03458C14.1342 4.01363 14.0882 4.002 14.0413 4.00055C14.039 4.00036 14.0367 4.00021 14.0345 4.00007L14.0342 4ZM14.0284 4.72567C17.6144 7.96656 19.0797 11.0381 19.2261 13.8192C17.9993 14.3934 17.0058 15.1378 16.2229 16.0034C15.0305 17.3217 14.326 18.9021 13.9729 20.5453C13.6256 18.9028 12.9312 17.3226 11.7484 16.0041C10.9906 15.1593 10.0311 14.4307 8.85018 13.8622C8.99418 11.0691 10.4564 7.98085 14.0283 4.72538L14.0284 4.72567ZM5.30635 9.42334C7.01352 9.7018 7.89454 9.88232 8.98353 10.4874C8.55561 11.5474 8.31773 12.5841 8.24024 13.5913C7.33661 13.2226 6.31379 12.9433 5.16253 12.7702C5.0749 11.7753 5.11403 10.663 5.3062 9.42334H5.30635ZM22.6936 9.42334C22.8858 10.6629 22.9249 11.775 22.8373 12.7697C21.7211 12.9371 20.723 13.2035 19.8376 13.5547C19.7601 12.5543 19.5225 11.5253 19.0958 10.473C20.1698 9.87829 21.0078 9.69888 22.6937 9.42315L22.6936 9.42334ZM2.63181 13.1789C6.89265 13.2405 9.60259 14.5384 11.275 16.4025C12.9885 18.3126 13.6265 20.8487 13.6265 23.3186C13.6263 23.3435 13.6293 23.3684 13.6353 23.3926H11.3598C6.52585 23.3926 2.63178 19.4813 2.63178 14.5972V13.1791L2.63181 13.1789ZM25.3682 13.1789V14.597C25.3682 19.4811 21.4743 23.3924 16.6401 23.3924H14.3058C14.3119 23.3682 14.3148 23.3433 14.3146 23.3184C14.3146 20.8497 14.967 18.314 16.6951 16.4033C18.3815 14.5387 21.1065 13.2404 25.3681 13.1787L25.3682 13.1789Z" fill="#0F0A0F" stroke="#0F0A0F" stroke-width="0.2"/>
</svg>
