<svg width="19" height="24" viewBox="0 0 19 24" fill="none" xmlns="http://www.w3.org/2000/svg">
<path d="M18.8853 23.2928L13.4574 17.9007C13.3181 17.7602 13.1443 17.6587 12.9534 17.6065L10.9838 17.0491L6.92836 12.9885C6.84908 12.9095 6.78659 12.8152 6.74462 12.7115C6.70265 12.6077 6.68207 12.4966 6.68411 12.3847C6.68613 12.1646 6.7746 11.9541 6.93049 11.7984C7.08638 11.6428 7.29723 11.5545 7.51768 11.5524C7.73739 11.5535 7.94779 11.6412 8.10312 11.7963L10.7667 14.4634C10.8393 14.5354 10.9376 14.5759 11.04 14.5759C11.1424 14.5759 11.2407 14.5354 11.3134 14.4634C11.3598 14.4156 11.3932 14.3566 11.4102 14.2922C11.4271 14.2278 11.4272 14.1601 11.4103 14.0956C11.4413 12.8191 11.5396 11.5451 11.7049 10.2789L12.7091 11.2815C13.3023 11.8737 14.0932 13.9292 14.1979 14.7421C14.2086 14.8218 14.2438 14.8962 14.2987 14.955L18.327 19.2749C18.3632 19.3138 18.4069 19.3449 18.4556 19.3662C18.5043 19.3875 18.5569 19.3986 18.61 19.3987C18.708 19.3984 18.8022 19.3611 18.8737 19.2942C18.9459 19.2217 18.9864 19.1236 18.9864 19.0213C18.9864 18.9191 18.9459 18.821 18.8737 18.7484L14.9501 14.5292C14.7717 13.5189 13.9614 11.4557 13.2558 10.7512L11.8523 9.34604C11.9531 8.76928 12.0694 8.22349 12.2051 7.7164C12.3348 7.25119 12.4026 6.77094 12.4067 6.28804V4.25583C12.4065 4.06595 12.3597 3.87902 12.2703 3.7114C12.181 3.54379 12.0518 3.40061 11.8941 3.2944C11.7365 3.1882 11.5552 3.12221 11.366 3.10221C11.1769 3.08222 10.9858 3.10883 10.8093 3.17972C10.7663 3.02209 10.6904 2.87529 10.5867 2.74893C10.483 2.62256 10.3537 2.51948 10.2073 2.44641C10.0609 2.37334 9.90076 2.33193 9.73727 2.32489C9.57377 2.31785 9.41063 2.34533 9.2585 2.40554C9.19228 2.16001 9.04718 1.94296 8.84546 1.78772C8.64375 1.63248 8.39658 1.54763 8.14189 1.54621C7.95629 1.54643 7.7737 1.59301 7.61073 1.68169C7.48812 1.41135 7.29029 1.18189 7.04077 1.02062C6.79126 0.859343 6.50058 0.773057 6.20335 0.772031C5.98196 0.774236 5.76362 0.82374 5.56299 0.917215C5.36237 1.01069 5.18412 1.14597 5.04022 1.31395C4.73468 0.806322 4.27098 0.412611 3.72005 0.193063C3.16913 -0.0264844 2.56134 -0.0597773 1.98966 0.0982786C1.41799 0.256334 0.913928 0.597034 0.5546 1.06825C0.195272 1.53946 0.000470111 2.11524 0 2.70747C0 3.75261 0.36057 4.56937 0.965396 4.89452C1.02449 4.92404 1.08534 4.9499 1.14762 4.97194C0.934379 5.47903 0.75991 6.32675 0.75991 7.73963C0.75991 9.50862 1.4733 10.6854 2.10526 11.7266C2.64805 12.5976 3.10167 13.3485 3.10167 14.3201V19.8052C3.10102 20.8362 3.48094 21.8313 4.16882 22.6003C4.85669 23.3693 5.80428 23.8582 6.83045 23.9736C7.85663 24.0891 8.88942 23.8229 9.73144 23.226C10.5735 22.6291 11.1656 21.7434 11.3948 20.7381C11.4681 20.3935 11.4968 20.0409 11.4801 19.6891V19.2787C11.4801 18.8413 11.4568 18.4117 11.4491 17.9781L12.7673 18.3652C12.8315 18.3823 12.8902 18.4157 12.9379 18.462L18.3348 23.8425C18.3708 23.8788 18.4137 23.9076 18.4609 23.9272C18.5082 23.9469 18.5589 23.957 18.61 23.957C18.6612 23.957 18.7119 23.9469 18.7591 23.9272C18.8064 23.9076 18.8493 23.8788 18.8853 23.8425C18.9217 23.8065 18.9505 23.7637 18.9702 23.7165C18.9899 23.6694 19 23.6188 19 23.5677C19 23.5166 18.9899 23.466 18.9702 23.4188C18.9505 23.3716 18.9217 23.3288 18.8853 23.2928ZM10.6387 20.5832C10.4517 21.4041 9.96787 22.1272 9.27988 22.614C8.5919 23.1007 7.7482 23.3168 6.91048 23.2209C6.07277 23.125 5.29997 22.7238 4.74022 22.0942C4.18046 21.4646 3.87311 20.6509 3.87709 19.809V14.3201C3.87709 13.1356 3.34593 12.257 2.78375 11.3279C2.17893 10.3254 1.55084 9.28798 1.55084 7.73963C1.55084 5.52548 1.93855 5.08033 2.02384 5.03001C2.07374 5.01605 2.12092 4.9938 2.16342 4.9642C2.43917 4.87302 2.70033 4.74265 2.93884 4.57711C2.98637 4.55165 3.02807 4.51657 3.06125 4.4741C3.09443 4.43164 3.11838 4.38273 3.13155 4.3305C3.14472 4.27827 3.14682 4.22387 3.13773 4.17078C3.12864 4.11769 3.10856 4.06708 3.07876 4.02218C3.04896 3.97728 3.0101 3.93909 2.96468 3.91004C2.91925 3.88099 2.86825 3.86173 2.81494 3.85348C2.76163 3.84523 2.70719 3.84818 2.65508 3.86214C2.60298 3.8761 2.55437 3.90076 2.51236 3.93454C2.16729 4.15906 1.68654 4.39518 1.34923 4.20938C1.01192 4.02358 0.775418 3.43907 0.775418 2.70747C0.775418 2.19416 0.979658 1.70187 1.34321 1.33891C1.70675 0.975943 2.19983 0.772031 2.71396 0.772031C3.2281 0.772031 3.72118 0.975943 4.08472 1.33891C4.44827 1.70187 4.65251 2.19416 4.65251 2.70747V3.86874C4.65251 3.9714 4.69336 4.06986 4.76607 4.14245C4.83878 4.21505 4.93739 4.25583 5.04022 4.25583C5.14305 4.25583 5.24166 4.21505 5.31437 4.14245C5.38708 4.06986 5.42793 3.9714 5.42793 3.86874V2.32039C5.42793 2.11506 5.50962 1.91815 5.65504 1.77296C5.80046 1.62777 5.99769 1.54621 6.20335 1.54621C6.409 1.54621 6.60623 1.62777 6.75165 1.77296C6.89707 1.91815 6.97877 2.11506 6.97877 2.32039V3.86874C6.97877 3.9714 7.01961 4.06986 7.09232 4.14245C7.16503 4.21505 7.26365 4.25583 7.36648 4.25583C7.4693 4.25583 7.56792 4.21505 7.64063 4.14245C7.71334 4.06986 7.75418 3.9714 7.75418 3.86874V2.70747C7.75418 2.60481 7.79503 2.50635 7.86774 2.43376C7.94045 2.36117 8.03907 2.32039 8.14189 2.32039C8.24472 2.32039 8.34334 2.36117 8.41605 2.43376C8.48876 2.50635 8.5296 2.60481 8.5296 2.70747V4.25583C8.5296 4.35849 8.57045 4.45695 8.64316 4.52954C8.71587 4.60213 8.81449 4.64292 8.91731 4.64292C9.02014 4.64292 9.11875 4.60213 9.19146 4.52954C9.26417 4.45695 9.30502 4.35849 9.30502 4.25583V3.48165C9.30502 3.37899 9.34587 3.28053 9.41858 3.20794C9.49129 3.13534 9.5899 3.09456 9.69273 3.09456C9.79556 3.09456 9.89417 3.13534 9.96688 3.20794C10.0396 3.28053 10.0804 3.37899 10.0804 3.48165V5.03001C10.0804 5.13267 10.1213 5.23113 10.194 5.30372C10.2667 5.37631 10.3653 5.41709 10.4681 5.41709C10.571 5.41709 10.6696 5.37631 10.7423 5.30372C10.815 5.23113 10.8559 5.13267 10.8559 5.03001V4.25583C10.8559 4.15317 10.8967 4.05471 10.9694 3.98212C11.0421 3.90952 11.1407 3.86874 11.2436 3.86874C11.3464 3.86874 11.445 3.90952 11.5177 3.98212C11.5904 4.05471 11.6313 4.15317 11.6313 4.25583V6.28804C11.6267 6.70417 11.5681 7.11794 11.4568 7.51899C10.9949 9.40745 10.735 11.3395 10.6814 13.2827L8.6653 11.266C8.51761 11.116 8.34138 10.9969 8.14697 10.9158C7.95256 10.8347 7.74389 10.7932 7.53319 10.7938C7.32189 10.7917 7.11226 10.8312 6.91626 10.9101C6.72027 10.9889 6.54175 11.1056 6.3909 11.2533C6.24005 11.401 6.11982 11.577 6.03708 11.7711C5.95434 11.9652 5.91072 12.1737 5.90869 12.3847C5.90569 12.5997 5.94563 12.8131 6.02618 13.0125C6.10673 13.2119 6.22627 13.3932 6.37782 13.546L10.5263 17.6801C10.5655 17.7162 10.6117 17.7439 10.662 17.7614C10.662 18.2878 10.662 18.791 10.6969 19.3097V19.7161C10.7139 20.0013 10.6944 20.2875 10.6387 20.5677V20.5832Z" fill="#0F0A0F"/>
<path d="M5.86602 10.937C6.08207 10.7211 6.33863 10.5498 6.62103 10.4329C6.90343 10.316 7.20614 10.2558 7.51185 10.2558C7.81755 10.2558 8.12026 10.316 8.40267 10.4329C8.68507 10.5498 8.94163 10.7211 9.15767 10.937C9.23032 11.0091 9.32858 11.0496 9.43101 11.0496C9.53344 11.0496 9.6317 11.0091 9.70434 10.937C9.74068 10.901 9.76953 10.8582 9.78921 10.811C9.80889 10.7639 9.81903 10.7133 9.81903 10.6622C9.81903 10.6111 9.80889 10.5605 9.78921 10.5133C9.76953 10.4661 9.74068 10.4233 9.70434 10.3873C9.12234 9.80679 8.33319 9.48084 7.51048 9.4812C6.68777 9.48156 5.8989 9.80821 5.31741 10.3893C4.73593 10.9703 4.40946 11.7582 4.40982 12.5796C4.41018 13.401 4.73735 14.1886 5.31935 14.7692C5.39236 14.8416 5.49117 14.882 5.59406 14.8817C5.69694 14.8813 5.79547 14.8401 5.86796 14.7673C5.94045 14.6944 5.98098 14.5957 5.98061 14.493C5.98025 14.3903 5.93903 14.2919 5.86602 14.2195C5.43039 13.784 5.1857 13.1937 5.1857 12.5783C5.1857 11.9628 5.43039 11.3725 5.86602 10.937Z" fill="#0F0A0F"/>
</svg>
