<svg width="124" height="16" viewBox="0 0 124 16" fill="none" xmlns="http://www.w3.org/2000/svg">
<path fill-rule="evenodd" clip-rule="evenodd" d="M103.431 0.0244438H108.917L113.709 6.51986L118.538 0.0244438H124L116.043 10.5433V15.6976H111.388V10.5433L103.431 0.0244438ZM19.8618 12.0423C20.1445 12.0462 20.4269 12.0242 20.706 11.9765C20.9161 11.932 21.1049 11.8111 21.2398 11.6347C21.4011 11.3841 21.4756 11.0821 21.4508 10.78C21.4727 10.4823 21.3983 10.1855 21.2398 9.93849C21.1074 9.76145 20.9167 9.64402 20.706 9.60978C20.4251 9.58514 20.1427 9.58514 19.8618 9.60978H12.4137V12.0423H19.8618ZM12.4137 5.84928H18.8936C19.1745 5.87344 19.4568 5.87344 19.7377 5.84928C19.9472 5.81146 20.1368 5.69472 20.2715 5.52056C20.43 5.27358 20.5045 4.9768 20.4825 4.67905C20.5073 4.37691 20.4328 4.07497 20.2715 3.82439C20.1368 3.65023 19.9472 3.53349 19.7377 3.49568C19.4568 3.47151 19.1745 3.47151 18.8936 3.49568H12.3392L12.4137 5.84928ZM23.9708 7.05895C24.6225 7.49626 25.1671 8.09108 25.5597 8.79457C25.9247 9.4979 26.1007 10.2937 26.0687 11.0956C26.0971 11.7215 26.0013 12.3468 25.7874 12.9311C25.5736 13.5154 25.2466 14.0457 24.8273 14.4879C24.3354 14.9504 23.7617 15.3049 23.1395 15.5306C22.5172 15.7563 21.8588 15.8488 21.2025 15.8028H7.68405V0.0244438H20.6563C21.8779 -0.104145 23.0985 0.278057 24.0577 1.08948C24.4077 1.4914 24.6772 1.96423 24.85 2.47946C25.0228 2.99469 25.0953 3.54165 25.0632 4.08736C25.0629 4.61756 24.9572 5.14174 24.7528 5.62575C24.5455 6.15111 24.2559 6.63564 23.8963 7.05895H23.9708ZM33.4796 3.85069V6.19114H44.4781V9.55718H33.4051V11.8582H44.4036V15.6844H28.75V0.0244438H44.4036V3.85069H33.4796ZM59.5483 9.11013L57.2021 3.48253L54.8435 9.09698L59.5483 9.11013ZM61.0255 12.6603H53.3787L52.1374 15.7239H46.9484L53.8504 0.0244438H60.5166L67.3937 15.7107H62.2793L61.0255 12.6603ZM86.8956 7.91361C86.9824 9.0464 86.8253 10.1853 86.4361 11.2444C86.0469 12.3035 85.4357 13.2552 84.6487 14.0277C83.1591 15.3426 80.8046 16 77.5854 16C74.3661 16 72.0075 15.3426 70.5096 14.0277C69.7248 13.2539 69.116 12.3017 68.729 11.2427C68.3419 10.1836 68.1867 9.04537 68.2751 7.91361V0.0244438H72.9302V7.91361C72.9105 8.56912 73.016 9.2221 73.2406 9.8333C73.5301 10.451 74.0126 10.9435 74.6061 11.2271C75.5373 11.634 76.5419 11.8181 77.5481 11.7661C78.8733 11.9425 80.2109 11.5599 81.2722 10.7011C81.9098 9.93276 82.2472 8.93602 82.2156 7.91361V0.0244438H86.8956V7.91361ZM4.67995 15.8028H0V0.0244438H4.65512L4.67995 15.8028ZM101.084 15.8028H96.4045V4.19255H89.6266V0.0244438H101.06L101.084 15.8028Z" fill="white"/>
</svg>
