<svg width="293" height="34" viewBox="0 0 293 34" fill="none" xmlns="http://www.w3.org/2000/svg">
<path fill-rule="evenodd" clip-rule="evenodd" d="M244.396 0.051943H257.361L268.684 13.8547L280.094 0.051943H293L274.198 22.4046V33.3574H263.198V22.4046L244.396 0.051943ZM46.9316 25.5898C47.5995 25.5982 48.2668 25.5515 48.9262 25.4501C49.4227 25.3555 49.8689 25.0985 50.1875 24.7237C50.5686 24.1912 50.7448 23.5496 50.6862 22.9075C50.738 22.2748 50.5621 21.6441 50.1875 21.1193C49.8748 20.7431 49.4242 20.4935 48.9262 20.4208C48.2625 20.3684 47.5954 20.3684 46.9316 20.4208H29.3323V25.5898H46.9316ZM29.3323 12.4297H44.6437C45.3075 12.4811 45.9745 12.4811 46.6383 12.4297C47.1334 12.3494 47.5813 12.1013 47.8996 11.7312C48.2742 11.2064 48.45 10.5757 48.3982 9.94298C48.4569 9.30094 48.2807 8.65932 47.8996 8.12683C47.5813 7.75674 47.1334 7.50867 46.6383 7.42831C45.9745 7.37696 45.3075 7.37696 44.6437 7.42831H29.1563L29.3323 12.4297ZM56.6406 15.0003C58.1807 15.9296 59.4674 17.1936 60.3951 18.6884C61.2575 20.183 61.6735 21.8742 61.5978 23.5781C61.6648 24.9082 61.4385 26.2369 60.9332 27.4786C60.428 28.7202 59.6552 29.8472 58.6645 30.7868C57.5023 31.7697 56.1467 32.5228 54.6763 33.0025C53.206 33.4821 51.6503 33.6787 50.0995 33.5809H18.1567V0.051943H48.8089C51.6953 -0.221308 54.5795 0.590871 56.8459 2.31515C57.6729 3.16923 58.3098 4.17399 58.7181 5.26885C59.1264 6.36371 59.2978 7.526 59.2218 8.68565C59.2212 9.81231 58.9713 10.9262 58.4885 11.9547C57.9985 13.0711 57.3143 14.1007 56.4646 15.0003H56.6406ZM79.1091 8.18271V13.1562H105.098V20.309H78.9331V25.1987H104.922V33.3294H67.9335V0.051943H104.922V8.18271H79.1091ZM140.707 19.359L135.163 7.40037L129.59 19.3311L140.707 19.359ZM144.197 26.903H126.129L123.196 33.4132H110.935L127.243 0.051943H142.995L159.245 33.3853H147.16L144.197 26.903ZM205.326 16.8164C205.531 19.2236 205.16 21.6437 204.24 23.8943C203.32 26.1449 201.876 28.1673 200.017 29.8089C196.497 32.603 190.934 34 183.327 34C175.72 34 170.147 32.603 166.607 29.8089C164.753 28.1646 163.314 26.1411 162.4 23.8906C161.485 21.6402 161.119 19.2214 161.327 16.8164V0.051943H172.327V16.8164C172.28 18.2094 172.53 19.597 173.06 20.8958C173.744 22.2084 174.884 23.255 176.287 23.8575C178.487 24.7223 180.861 25.1135 183.239 25.0031C186.37 25.3777 189.53 24.5649 192.038 22.7399C193.545 21.1071 194.342 18.9891 194.268 16.8164V0.051943H205.326V16.8164ZM11.0583 33.5809H0V0.051943H10.9996L11.0583 33.5809ZM238.853 33.5809H227.794V8.90917H211.779V0.051943H238.794L238.853 33.5809Z" fill="#5D4382"/>
</svg>
