<svg width="28" height="28" viewBox="0 0 28 28" fill="none" xmlns="http://www.w3.org/2000/svg">
<rect width="28" height="28" rx="5" fill="#C4C4C4" fill-opacity="0.25"/>
<path d="M9.8 14.5C9.8 14.8978 9.6525 15.2794 9.38995 15.5607C9.1274 15.842 8.7713 16 8.4 16C8.0287 16 7.6726 15.842 7.41005 15.5607C7.1475 15.2794 7 14.8978 7 14.5C7 14.1022 7.1475 13.7206 7.41005 13.4393C7.6726 13.158 8.0287 13 8.4 13C8.7713 13 9.1274 13.158 9.38995 13.4393C9.6525 13.7206 9.8 14.1022 9.8 14.5Z" fill="#5D4382"/>
<path d="M15.4001 14.5C15.4001 14.8978 15.2526 15.2794 14.99 15.5607C14.7275 15.842 14.3714 16 14.0001 16C13.6288 16 13.2727 15.842 13.0101 15.5607C12.7476 15.2794 12.6001 14.8978 12.6001 14.5C12.6001 14.1022 12.7476 13.7206 13.0101 13.4393C13.2727 13.158 13.6288 13 14.0001 13C14.3714 13 14.7275 13.158 14.99 13.4393C15.2526 13.7206 15.4001 14.1022 15.4001 14.5Z" fill="#5D4382"/>
<path d="M19.6002 16C19.9715 16 20.3276 15.842 20.5901 15.5607C20.8527 15.2794 21.0002 14.8978 21.0002 14.5C21.0002 14.1022 20.8527 13.7206 20.5901 13.4393C20.3276 13.158 19.9715 13 19.6002 13C19.2289 13 18.8728 13.158 18.6102 13.4393C18.3477 13.7206 18.2002 14.1022 18.2002 14.5C18.2002 14.8978 18.3477 15.2794 18.6102 15.5607C18.8728 15.842 19.2289 16 19.6002 16Z" fill="#5D4382"/>
</svg>
